<svg id="Layer_1" data-name="Layer 1" xmlns="http://www.w3.org/2000/svg" viewBox="0 0 128 128"><defs><style>.cls-1{fill:#1976d2;}</style></defs><title>Artboard 2</title><path id="facebook_icon" data-name="facebook icon" class="cls-1" d="M68.37,128H7.06A7.06,7.06,0,0,1,0,120.94H0V7.06A7.06,7.06,0,0,1,7.06,0H120.94A7.06,7.06,0,0,1,128,7.06h0V120.93a7.07,7.07,0,0,1-7.06,7.07H88.32V78.43H105l2.49-19.32H88.32V46.78c0-5.6,1.55-9.4,9.57-9.4h10.2V20.1a135.47,135.47,0,0,0-14.93-.76A23.27,23.27,0,0,0,68.31,40.92a23.55,23.55,0,0,0,.06,3.94V59.09H51.69V78.41H68.37Z"/></svg>