<svg id="Layer_1" data-name="Layer 1" xmlns="http://www.w3.org/2000/svg" viewBox="0 0 128 128"><defs><style>.cls-1{fill:#0077b7;}</style></defs><title>Artboard 2</title><rect class="cls-1" x="4.38" y="42.23" width="27.04" height="85.77" rx="4.32" ry="4.32"/><circle class="cls-1" cx="17.9" cy="17.48" r="17.48"/><path class="cls-1" d="M127.58,124a4,4,0,0,1-4,4H103.86a4,4,0,0,1-4-4V87.85c0-5.4,1.59-23.65-14.1-23.65-12.17,0-14.63,12.49-15.13,18.1V124a4,4,0,0,1-4,4H47.58a4,4,0,0,1-4-4V46.2a4,4,0,0,1,4-4h19.1a4,4,0,0,1,4,4v6.73c4.51-6.77,11.22-12,25.49-12,31.62,0,31.44,29.54,31.44,45.77V124Z"/></svg>