<svg xmlns="http://www.w3.org/2000/svg" width="445" height="397.236" viewBox="0 0 445 397.236">
    <defs>
        <style>
            .cls-1{opacity:.4}.cls-2{fill:#e5e5e5}
        </style>
    </defs>
    <g id="dots_shape" class="cls-1" data-name="dots shape" transform="rotate(-90 443.721 826.771)">
        <path id="Path_10015" d="M876.459 467.792a3.2 3.2 0 1 0 3.2 3.2 3.2 3.2 0 0 0-3.2-3.2z" class="cls-2" data-name="Path 10015" transform="translate(0 50.21)"/>
        <path id="Path_10016" d="M876.459 510.163a3.2 3.2 0 1 0 3.2 3.2 3.2 3.2 0 0 0-3.2-3.2z" class="cls-2" data-name="Path 10016" transform="translate(0 75.315)"/>
        <path id="Path_10017" d="M876.459 488.977a3.2 3.2 0 1 0 3.2 3.2 3.2 3.2 0 0 0-3.2-3.2z" class="cls-2" data-name="Path 10017" transform="translate(0 62.762)"/>
        <path id="Path_10018" d="M876.459 425.421a3.2 3.2 0 1 0 3.2 3.2 3.2 3.2 0 0 0-3.2-3.2z" class="cls-2" data-name="Path 10018" transform="translate(0 25.111)"/>
        <path id="Path_10019" d="M876.459 383.05a3.2 3.2 0 1 0 3.2 3.2 3.2 3.2 0 0 0-3.2-3.2z" class="cls-2" data-name="Path 10019"/>
        <path id="Path_10020" d="M876.459 404.235a3.2 3.2 0 1 0 3.2 3.2 3.2 3.2 0 0 0-3.2-3.2z" class="cls-2" data-name="Path 10020" transform="translate(0 12.555)"/>
        <path id="Path_10021" d="M876.459 446.607a3.2 3.2 0 1 0 3.2 3.2 3.2 3.2 0 0 0-3.2-3.2z" class="cls-2" data-name="Path 10021" transform="translate(0 37.658)"/>
        <path id="Path_10022" d="M876.459 552.535a3.2 3.2 0 1 0 3.2 3.2 3.2 3.2 0 0 0-3.2-3.2z" class="cls-2" data-name="Path 10022" transform="translate(0 100.42)"/>
        <path id="Path_10023" d="M876.459 531.349a3.2 3.2 0 1 0 3.2 3.2 3.2 3.2 0 0 0-3.2-3.2z" class="cls-2" data-name="Path 10023" transform="translate(0 87.867)"/>
        <path id="Path_10024" d="M903.729 552.535a3.2 3.2 0 1 0 3.2 3.2 3.2 3.2 0 0 0-3.2-3.2z" class="cls-2" data-name="Path 10024" transform="translate(16.16 100.42)"/>
        <path id="Path_10025" d="M903.729 531.349a3.2 3.2 0 1 0 3.2 3.2 3.2 3.2 0 0 0-3.2-3.2z" class="cls-2" data-name="Path 10025" transform="translate(16.16 87.867)"/>
        <path id="Path_10026" d="M903.729 404.235a3.2 3.2 0 1 0 3.2 3.2 3.2 3.2 0 0 0-3.2-3.2z" class="cls-2" data-name="Path 10026" transform="translate(16.16 12.555)"/>
        <path id="Path_10027" d="M903.729 383.05a3.2 3.2 0 1 0 3.2 3.2 3.2 3.2 0 0 0-3.2-3.2z" class="cls-2" data-name="Path 10027" transform="translate(16.16)"/>
        <path id="Path_10028" d="M903.729 425.421a3.2 3.2 0 1 0 3.2 3.2 3.2 3.2 0 0 0-3.2-3.2z" class="cls-2" data-name="Path 10028" transform="translate(16.16 25.111)"/>
        <path id="Path_10029" d="M903.729 510.163a3.2 3.2 0 1 0 3.2 3.2 3.2 3.2 0 0 0-3.2-3.2z" class="cls-2" data-name="Path 10029" transform="translate(16.16 75.315)"/>
        <path id="Path_10030" d="M903.729 488.977a3.2 3.2 0 1 0 3.2 3.2 3.2 3.2 0 0 0-3.2-3.2z" class="cls-2" data-name="Path 10030" transform="translate(16.16 62.762)"/>
        <path id="Path_10031" d="M903.729 467.792a3.2 3.2 0 1 0 3.2 3.2 3.2 3.2 0 0 0-3.2-3.2z" class="cls-2" data-name="Path 10031" transform="translate(16.16 50.21)"/>
        <path id="Path_10032" d="M903.729 446.607a3.2 3.2 0 1 0 3.2 3.2 3.2 3.2 0 0 0-3.2-3.2z" class="cls-2" data-name="Path 10032" transform="translate(16.16 37.658)"/>
        <path id="Path_10033" d="M931 531.349a3.2 3.2 0 1 0 3.2 3.2 3.2 3.2 0 0 0-3.2-3.2z" class="cls-2" data-name="Path 10033" transform="translate(32.313 87.867)"/>
        <path id="Path_10034" d="M931 510.163a3.2 3.2 0 1 0 3.2 3.2 3.2 3.2 0 0 0-3.2-3.2z" class="cls-2" data-name="Path 10034" transform="translate(32.313 75.315)"/>
        <path id="Path_10035" d="M931 552.535a3.2 3.2 0 1 0 3.2 3.2 3.2 3.2 0 0 0-3.2-3.2z" class="cls-2" data-name="Path 10035" transform="translate(32.313 100.42)"/>
        <path id="Path_10036" d="M931 467.792a3.2 3.2 0 1 0 3.2 3.2 3.2 3.2 0 0 0-3.2-3.2z" class="cls-2" data-name="Path 10036" transform="translate(32.313 50.21)"/>
        <path id="Path_10037" d="M931 488.977a3.2 3.2 0 1 0 3.2 3.2 3.2 3.2 0 0 0-3.2-3.2z" class="cls-2" data-name="Path 10037" transform="translate(32.313 62.762)"/>
        <path id="Path_10038" d="M931 446.607a3.2 3.2 0 1 0 3.2 3.2 3.2 3.2 0 0 0-3.2-3.2z" class="cls-2" data-name="Path 10038" transform="translate(32.313 37.658)"/>
        <path id="Path_10039" d="M931 425.421a3.2 3.2 0 1 0 3.2 3.2 3.2 3.2 0 0 0-3.2-3.2z" class="cls-2" data-name="Path 10039" transform="translate(32.313 25.111)"/>
        <path id="Path_10040" d="M931 383.05a3.2 3.2 0 1 0 3.2 3.2 3.2 3.2 0 0 0-3.2-3.2z" class="cls-2" data-name="Path 10040" transform="translate(32.313)"/>
        <path id="Path_10041" d="M931 404.235a3.2 3.2 0 1 0 3.2 3.2 3.2 3.2 0 0 0-3.2-3.2z" class="cls-2" data-name="Path 10041" transform="translate(32.313 12.555)"/>
        <path id="Path_10042" d="M958.266 467.792a3.2 3.2 0 1 0 3.2 3.2 3.2 3.2 0 0 0-3.2-3.2z" class="cls-2" data-name="Path 10042" transform="translate(48.47 50.21)"/>
        <path id="Path_10043" d="M958.266 446.607a3.2 3.2 0 1 0 3.2 3.2 3.2 3.2 0 0 0-3.2-3.2z" class="cls-2" data-name="Path 10043" transform="translate(48.47 37.658)"/>
        <path id="Path_10044" d="M958.266 425.421a3.2 3.2 0 1 0 3.2 3.2 3.2 3.2 0 0 0-3.2-3.2z" class="cls-2" data-name="Path 10044" transform="translate(48.47 25.111)"/>
        <path id="Path_10045" d="M958.266 510.163a3.2 3.2 0 1 0 3.2 3.2 3.2 3.2 0 0 0-3.2-3.2z" class="cls-2" data-name="Path 10045" transform="translate(48.47 75.315)"/>
        <path id="Path_10046" d="M958.266 383.05a3.2 3.2 0 1 0 3.2 3.2 3.2 3.2 0 0 0-3.2-3.2z" class="cls-2" data-name="Path 10046" transform="translate(48.47)"/>
        <path id="Path_10047" d="M958.266 404.235a3.2 3.2 0 1 0 3.2 3.2 3.2 3.2 0 0 0-3.2-3.2z" class="cls-2" data-name="Path 10047" transform="translate(48.47 12.555)"/>
        <path id="Path_10048" d="M958.266 531.349a3.2 3.2 0 1 0 3.2 3.2 3.2 3.2 0 0 0-3.2-3.2z" class="cls-2" data-name="Path 10048" transform="translate(48.47 87.867)"/>
        <path id="Path_10049" d="M958.266 488.977a3.2 3.2 0 1 0 3.2 3.2 3.2 3.2 0 0 0-3.2-3.2z" class="cls-2" data-name="Path 10049" transform="translate(48.47 62.762)"/>
        <path id="Path_10050" d="M958.266 552.535a3.2 3.2 0 1 0 3.2 3.2 3.2 3.2 0 0 0-3.2-3.2z" class="cls-2" data-name="Path 10050" transform="translate(48.47 100.42)"/>
        <path id="Path_10051" d="M985.535 510.163a3.2 3.2 0 1 0 3.2 3.2 3.2 3.2 0 0 0-3.2-3.2z" class="cls-2" data-name="Path 10051" transform="translate(64.627 75.315)"/>
        <path id="Path_10052" d="M985.535 488.977a3.2 3.2 0 1 0 3.2 3.2 3.2 3.2 0 0 0-3.2-3.2z" class="cls-2" data-name="Path 10052" transform="translate(64.627 62.762)"/>
        <path id="Path_10053" d="M985.535 467.792a3.2 3.2 0 1 0 3.2 3.2 3.2 3.2 0 0 0-3.2-3.2z" class="cls-2" data-name="Path 10053" transform="translate(64.627 50.21)"/>
        <path id="Path_10054" d="M985.535 531.349a3.2 3.2 0 1 0 3.2 3.2 3.2 3.2 0 0 0-3.2-3.2z" class="cls-2" data-name="Path 10054" transform="translate(64.627 87.867)"/>
        <path id="Path_10055" d="M985.535 552.535a3.2 3.2 0 1 0 3.2 3.2 3.2 3.2 0 0 0-3.2-3.2z" class="cls-2" data-name="Path 10055" transform="translate(64.627 100.42)"/>
        <path id="Path_10056" d="M985.535 383.05a3.2 3.2 0 1 0 3.2 3.2 3.2 3.2 0 0 0-3.2-3.2z" class="cls-2" data-name="Path 10056" transform="translate(64.627)"/>
        <path id="Path_10057" d="M985.535 404.235a3.2 3.2 0 1 0 3.2 3.2 3.2 3.2 0 0 0-3.2-3.2z" class="cls-2" data-name="Path 10057" transform="translate(64.627 12.555)"/>
        <path id="Path_10058" d="M985.535 425.421a3.2 3.2 0 1 0 3.2 3.2 3.2 3.2 0 0 0-3.2-3.2z" class="cls-2" data-name="Path 10058" transform="translate(64.627 25.111)"/>
        <path id="Path_10059" d="M985.535 446.607a3.2 3.2 0 1 0 3.2 3.2 3.2 3.2 0 0 0-3.2-3.2z" class="cls-2" data-name="Path 10059" transform="translate(64.627 37.658)"/>
        <path id="Path_10060" d="M1012.8 488.977a3.2 3.2 0 1 0 3.2 3.2 3.2 3.2 0 0 0-3.2-3.2z" class="cls-2" data-name="Path 10060" transform="translate(80.784 62.762)"/>
        <path id="Path_10061" d="M1012.8 467.792a3.2 3.2 0 1 0 3.2 3.2 3.2 3.2 0 0 0-3.2-3.2z" class="cls-2" data-name="Path 10061" transform="translate(80.784 50.21)"/>
        <path id="Path_10062" d="M1012.8 425.421a3.2 3.2 0 1 0 3.2 3.2 3.2 3.2 0 0 0-3.2-3.2z" class="cls-2" data-name="Path 10062" transform="translate(80.784 25.111)"/>
        <path id="Path_10063" d="M1012.8 404.235a3.2 3.2 0 1 0 3.2 3.2 3.2 3.2 0 0 0-3.2-3.2z" class="cls-2" data-name="Path 10063" transform="translate(80.784 12.555)"/>
        <path id="Path_10064" d="M1012.8 383.05a3.2 3.2 0 1 0 3.2 3.2 3.2 3.2 0 0 0-3.2-3.2z" class="cls-2" data-name="Path 10064" transform="translate(80.784)"/>
        <path id="Path_10065" d="M1012.8 531.349a3.2 3.2 0 1 0 3.2 3.2 3.2 3.2 0 0 0-3.2-3.2z" class="cls-2" data-name="Path 10065" transform="translate(80.784 87.867)"/>
        <path id="Path_10066" d="M1012.8 510.163a3.2 3.2 0 1 0 3.2 3.2 3.2 3.2 0 0 0-3.2-3.2z" class="cls-2" data-name="Path 10066" transform="translate(80.784 75.315)"/>
        <path id="Path_10067" d="M1012.8 552.535a3.2 3.2 0 1 0 3.2 3.2 3.2 3.2 0 0 0-3.2-3.2z" class="cls-2" data-name="Path 10067" transform="translate(80.784 100.42)"/>
        <path id="Path_10068" d="M1012.8 446.607a3.2 3.2 0 1 0 3.2 3.2 3.2 3.2 0 0 0-3.2-3.2z" class="cls-2" data-name="Path 10068" transform="translate(80.784 37.658)"/>
        <path id="Path_10069" d="M1040.073 552.535a3.2 3.2 0 1 0 3.2 3.2 3.2 3.2 0 0 0-3.2-3.2z" class="cls-2" data-name="Path 10069" transform="translate(96.94 100.42)"/>
        <path id="Path_10070" d="M1040.073 467.792a3.2 3.2 0 1 0 3.2 3.2 3.2 3.2 0 0 0-3.2-3.2z" class="cls-2" data-name="Path 10070" transform="translate(96.94 50.21)"/>
        <path id="Path_10071" d="M1040.073 531.349a3.2 3.2 0 1 0 3.2 3.2 3.2 3.2 0 0 0-3.2-3.2z" class="cls-2" data-name="Path 10071" transform="translate(96.94 87.867)"/>
        <path id="Path_10072" d="M1040.073 488.977a3.2 3.2 0 1 0 3.2 3.2 3.2 3.2 0 0 0-3.2-3.2z" class="cls-2" data-name="Path 10072" transform="translate(96.94 62.762)"/>
        <path id="Path_10073" d="M1040.073 446.607a3.2 3.2 0 1 0 3.2 3.2 3.2 3.2 0 0 0-3.2-3.2z" class="cls-2" data-name="Path 10073" transform="translate(96.94 37.658)"/>
        <path id="Path_10074" d="M1040.073 510.163a3.2 3.2 0 1 0 3.2 3.2 3.2 3.2 0 0 0-3.2-3.2z" class="cls-2" data-name="Path 10074" transform="translate(96.94 75.315)"/>
        <path id="Path_10075" d="M1040.073 425.421a3.2 3.2 0 1 0 3.2 3.2 3.2 3.2 0 0 0-3.2-3.2z" class="cls-2" data-name="Path 10075" transform="translate(96.94 25.111)"/>
        <path id="Path_10076" d="M1040.073 383.05a3.2 3.2 0 1 0 3.2 3.2 3.2 3.2 0 0 0-3.2-3.2z" class="cls-2" data-name="Path 10076" transform="translate(96.94)"/>
        <path id="Path_10077" d="M1040.073 404.235a3.2 3.2 0 1 0 3.2 3.2 3.2 3.2 0 0 0-3.2-3.2z" class="cls-2" data-name="Path 10077" transform="translate(96.94 12.555)"/>
        <path id="Path_10078" d="M1067.341 383.05a3.2 3.2 0 1 0 3.2 3.2 3.2 3.2 0 0 0-3.2-3.2z" class="cls-2" data-name="Path 10078" transform="translate(113.096)"/>
        <path id="Path_10079" d="M1067.341 446.607a3.2 3.2 0 1 0 3.2 3.2 3.2 3.2 0 0 0-3.2-3.2z" class="cls-2" data-name="Path 10079" transform="translate(113.096 37.658)"/>
        <path id="Path_10080" d="M1067.341 552.535a3.2 3.2 0 1 0 3.2 3.2 3.2 3.2 0 0 0-3.2-3.2z" class="cls-2" data-name="Path 10080" transform="translate(113.096 100.42)"/>
        <path id="Path_10081" d="M1067.341 425.421a3.2 3.2 0 1 0 3.2 3.2 3.2 3.2 0 0 0-3.2-3.2z" class="cls-2" data-name="Path 10081" transform="translate(113.096 25.111)"/>
        <path id="Path_10082" d="M1067.341 404.235a3.2 3.2 0 1 0 3.2 3.2 3.2 3.2 0 0 0-3.2-3.2z" class="cls-2" data-name="Path 10082" transform="translate(113.096 12.555)"/>
        <path id="Path_10083" d="M1067.341 531.349a3.2 3.2 0 1 0 3.2 3.2 3.2 3.2 0 0 0-3.2-3.2z" class="cls-2" data-name="Path 10083" transform="translate(113.096 87.867)"/>
        <path id="Path_10084" d="M1067.341 510.163a3.2 3.2 0 1 0 3.2 3.2 3.2 3.2 0 0 0-3.2-3.2z" class="cls-2" data-name="Path 10084" transform="translate(113.096 75.315)"/>
        <path id="Path_10085" d="M1067.341 488.977a3.2 3.2 0 1 0 3.2 3.2 3.2 3.2 0 0 0-3.2-3.2z" class="cls-2" data-name="Path 10085" transform="translate(113.096 62.762)"/>
        <path id="Path_10086" d="M1067.341 467.792a3.2 3.2 0 1 0 3.2 3.2 3.2 3.2 0 0 0-3.2-3.2z" class="cls-2" data-name="Path 10086" transform="translate(113.096 50.21)"/>
        <path id="Path_10087" d="M1094.61 488.977a3.2 3.2 0 1 0 3.2 3.2 3.2 3.2 0 0 0-3.2-3.2z" class="cls-2" data-name="Path 10087" transform="translate(129.249 62.762)"/>
        <path id="Path_10088" d="M1094.61 446.607a3.2 3.2 0 1 0 3.2 3.2 3.2 3.2 0 0 0-3.2-3.2z" class="cls-2" data-name="Path 10088" transform="translate(129.249 37.658)"/>
        <path id="Path_10089" d="M1094.61 467.792a3.2 3.2 0 1 0 3.2 3.2 3.2 3.2 0 0 0-3.2-3.2z" class="cls-2" data-name="Path 10089" transform="translate(129.249 50.21)"/>
        <path id="Path_10090" d="M1094.61 404.235a3.2 3.2 0 1 0 3.2 3.2 3.2 3.2 0 0 0-3.2-3.2z" class="cls-2" data-name="Path 10090" transform="translate(129.249 12.555)"/>
        <path id="Path_10091" d="M1094.61 425.421a3.2 3.2 0 1 0 3.2 3.2 3.2 3.2 0 0 0-3.2-3.2z" class="cls-2" data-name="Path 10091" transform="translate(129.249 25.111)"/>
        <path id="Path_10092" d="M1094.61 383.05a3.2 3.2 0 1 0 3.2 3.2 3.2 3.2 0 0 0-3.2-3.2z" class="cls-2" data-name="Path 10092" transform="translate(129.249)"/>
        <path id="Path_10093" d="M1094.61 510.163a3.2 3.2 0 1 0 3.2 3.2 3.2 3.2 0 0 0-3.2-3.2z" class="cls-2" data-name="Path 10093" transform="translate(129.249 75.315)"/>
        <path id="Path_10094" d="M1094.61 531.349a3.2 3.2 0 1 0 3.2 3.2 3.2 3.2 0 0 0-3.2-3.2z" class="cls-2" data-name="Path 10094" transform="translate(129.249 87.867)"/>
        <path id="Path_10095" d="M1094.61 552.535a3.2 3.2 0 1 0 3.2 3.2 3.2 3.2 0 0 0-3.2-3.2z" class="cls-2" data-name="Path 10095" transform="translate(129.249 100.42)"/>
        <path id="Path_10096" d="M1121.879 383.05a3.2 3.2 0 1 0 3.2 3.2 3.2 3.2 0 0 0-3.2-3.2z" class="cls-2" data-name="Path 10096" transform="translate(145.41)"/>
        <path id="Path_10097" d="M1121.879 552.535a3.2 3.2 0 1 0 3.2 3.2 3.2 3.2 0 0 0-3.2-3.2z" class="cls-2" data-name="Path 10097" transform="translate(145.41 100.42)"/>
        <path id="Path_10098" d="M1121.879 531.349a3.2 3.2 0 1 0 3.2 3.2 3.2 3.2 0 0 0-3.2-3.2z" class="cls-2" data-name="Path 10098" transform="translate(145.41 87.867)"/>
        <path id="Path_10099" d="M1121.879 425.421a3.2 3.2 0 1 0 3.2 3.2 3.2 3.2 0 0 0-3.2-3.2z" class="cls-2" data-name="Path 10099" transform="translate(145.41 25.111)"/>
        <path id="Path_10100" d="M1121.879 510.163a3.2 3.2 0 1 0 3.2 3.2 3.2 3.2 0 0 0-3.2-3.2z" class="cls-2" data-name="Path 10100" transform="translate(145.41 75.315)"/>
        <path id="Path_10101" d="M1121.879 404.235a3.2 3.2 0 1 0 3.2 3.2 3.2 3.2 0 0 0-3.2-3.2z" class="cls-2" data-name="Path 10101" transform="translate(145.41 12.555)"/>
        <path id="Path_10102" d="M1121.879 467.792a3.2 3.2 0 1 0 3.2 3.2 3.2 3.2 0 0 0-3.2-3.2z" class="cls-2" data-name="Path 10102" transform="translate(145.41 50.21)"/>
        <path id="Path_10103" d="M1121.879 446.607a3.2 3.2 0 1 0 3.2 3.2 3.2 3.2 0 0 0-3.2-3.2z" class="cls-2" data-name="Path 10103" transform="translate(145.41 37.658)"/>
        <path id="Path_10104" d="M1121.879 488.977a3.2 3.2 0 1 0 3.2 3.2 3.2 3.2 0 0 0-3.2-3.2z" class="cls-2" data-name="Path 10104" transform="translate(145.41 62.762)"/>
        <path id="Path_10105" d="M876.459 573.72a3.2 3.2 0 1 0 3.2 3.2 3.2 3.2 0 0 0-3.2-3.2z" class="cls-2" data-name="Path 10105" transform="translate(0 112.972)"/>
        <path id="Path_10106" d="M876.459 616.091a3.2 3.2 0 1 0 3.2 3.2 3.2 3.2 0 0 0-3.2-3.2z" class="cls-2" data-name="Path 10106" transform="translate(0 138.072)"/>
        <path id="Path_10107" d="M876.459 658.462a3.2 3.2 0 1 0 3.2 3.2 3.2 3.2 0 0 0-3.2-3.2z" class="cls-2" data-name="Path 10107" transform="translate(0 163.182)"/>
        <path id="Path_10108" d="M876.459 637.277a3.2 3.2 0 1 0 3.2 3.2 3.2 3.2 0 0 0-3.2-3.2z" class="cls-2" data-name="Path 10108" transform="translate(0 150.627)"/>
        <path id="Path_10109" d="M876.459 594.905a3.2 3.2 0 1 0 3.2 3.2 3.2 3.2 0 0 0-3.2-3.2z" class="cls-2" data-name="Path 10109" transform="translate(0 125.525)"/>
        <path id="Path_10110" d="M903.729 637.277a3.2 3.2 0 1 0 3.2 3.2 3.2 3.2 0 0 0-3.2-3.2z" class="cls-2" data-name="Path 10110" transform="translate(16.16 150.627)"/>
        <path id="Path_10111" d="M903.729 658.462a3.2 3.2 0 1 0 3.2 3.2 3.2 3.2 0 0 0-3.2-3.2z" class="cls-2" data-name="Path 10111" transform="translate(16.16 163.182)"/>
        <path id="Path_10112" d="M903.729 616.091a3.2 3.2 0 1 0 3.2 3.2 3.2 3.2 0 0 0-3.2-3.2z" class="cls-2" data-name="Path 10112" transform="translate(16.16 138.072)"/>
        <path id="Path_10113" d="M903.729 573.72a3.2 3.2 0 1 0 3.2 3.2 3.2 3.2 0 0 0-3.2-3.2z" class="cls-2" data-name="Path 10113" transform="translate(16.16 112.972)"/>
        <path id="Path_10114" d="M903.729 594.905a3.2 3.2 0 1 0 3.2 3.2 3.2 3.2 0 0 0-3.2-3.2z" class="cls-2" data-name="Path 10114" transform="translate(16.16 125.525)"/>
        <path id="Path_10115" d="M931 573.72a3.2 3.2 0 1 0 3.2 3.2 3.2 3.2 0 0 0-3.2-3.2z" class="cls-2" data-name="Path 10115" transform="translate(32.313 112.972)"/>
        <path id="Path_10116" d="M931 594.905a3.2 3.2 0 1 0 3.2 3.2 3.2 3.2 0 0 0-3.2-3.2z" class="cls-2" data-name="Path 10116" transform="translate(32.313 125.525)"/>
        <path id="Path_10117" d="M931 616.091a3.2 3.2 0 1 0 3.2 3.2 3.2 3.2 0 0 0-3.2-3.2z" class="cls-2" data-name="Path 10117" transform="translate(32.313 138.072)"/>
        <path id="Path_10118" d="M931 658.462a3.2 3.2 0 1 0 3.2 3.2 3.2 3.2 0 0 0-3.2-3.2z" class="cls-2" data-name="Path 10118" transform="translate(32.313 163.182)"/>
        <path id="Path_10119" d="M931 637.277a3.2 3.2 0 1 0 3.2 3.2 3.2 3.2 0 0 0-3.2-3.2z" class="cls-2" data-name="Path 10119" transform="translate(32.313 150.627)"/>
        <path id="Path_10120" d="M958.266 573.72a3.2 3.2 0 1 0 3.2 3.2 3.2 3.2 0 0 0-3.2-3.2z" class="cls-2" data-name="Path 10120" transform="translate(48.47 112.972)"/>
        <path id="Path_10121" d="M958.266 594.905a3.2 3.2 0 1 0 3.2 3.2 3.2 3.2 0 0 0-3.2-3.2z" class="cls-2" data-name="Path 10121" transform="translate(48.47 125.525)"/>
        <path id="Path_10122" d="M958.266 616.091a3.2 3.2 0 1 0 3.2 3.2 3.2 3.2 0 0 0-3.2-3.2z" class="cls-2" data-name="Path 10122" transform="translate(48.47 138.072)"/>
        <path id="Path_10123" d="M958.266 658.462a3.2 3.2 0 1 0 3.2 3.2 3.2 3.2 0 0 0-3.2-3.2z" class="cls-2" data-name="Path 10123" transform="translate(48.47 163.182)"/>
        <path id="Path_10124" d="M958.266 637.277a3.2 3.2 0 1 0 3.2 3.2 3.2 3.2 0 0 0-3.2-3.2z" class="cls-2" data-name="Path 10124" transform="translate(48.47 150.627)"/>
        <path id="Path_10125" d="M985.535 573.72a3.2 3.2 0 1 0 3.2 3.2 3.2 3.2 0 0 0-3.2-3.2z" class="cls-2" data-name="Path 10125" transform="translate(64.627 112.972)"/>
        <path id="Path_10126" d="M985.535 658.462a3.2 3.2 0 1 0 3.2 3.2 3.2 3.2 0 0 0-3.2-3.2z" class="cls-2" data-name="Path 10126" transform="translate(64.627 163.182)"/>
        <path id="Path_10127" d="M985.535 637.277a3.2 3.2 0 1 0 3.2 3.2 3.2 3.2 0 0 0-3.2-3.2z" class="cls-2" data-name="Path 10127" transform="translate(64.627 150.627)"/>
        <path id="Path_10128" d="M985.535 616.091a3.2 3.2 0 1 0 3.2 3.2 3.2 3.2 0 0 0-3.2-3.2z" class="cls-2" data-name="Path 10128" transform="translate(64.627 138.072)"/>
        <path id="Path_10129" d="M985.535 594.905a3.2 3.2 0 1 0 3.2 3.2 3.2 3.2 0 0 0-3.2-3.2z" class="cls-2" data-name="Path 10129" transform="translate(64.627 125.525)"/>
        <path id="Path_10130" d="M1012.8 573.72a3.2 3.2 0 1 0 3.2 3.2 3.2 3.2 0 0 0-3.2-3.2z" class="cls-2" data-name="Path 10130" transform="translate(80.784 112.972)"/>
        <path id="Path_10131" d="M1012.8 616.091a3.2 3.2 0 1 0 3.2 3.2 3.2 3.2 0 0 0-3.2-3.2z" class="cls-2" data-name="Path 10131" transform="translate(80.784 138.072)"/>
        <path id="Path_10132" d="M1012.8 637.277a3.2 3.2 0 1 0 3.2 3.2 3.2 3.2 0 0 0-3.2-3.2z" class="cls-2" data-name="Path 10132" transform="translate(80.784 150.627)"/>
        <path id="Path_10133" d="M1012.8 658.462a3.2 3.2 0 1 0 3.2 3.2 3.2 3.2 0 0 0-3.2-3.2z" class="cls-2" data-name="Path 10133" transform="translate(80.784 163.182)"/>
        <path id="Path_10134" d="M1012.8 594.905a3.2 3.2 0 1 0 3.2 3.2 3.2 3.2 0 0 0-3.2-3.2z" class="cls-2" data-name="Path 10134" transform="translate(80.784 125.525)"/>
        <path id="Path_10135" d="M1040.073 573.72a3.2 3.2 0 1 0 3.2 3.2 3.2 3.2 0 0 0-3.2-3.2z" class="cls-2" data-name="Path 10135" transform="translate(96.94 112.972)"/>
        <path id="Path_10136" d="M1040.073 594.905a3.2 3.2 0 1 0 3.2 3.2 3.2 3.2 0 0 0-3.2-3.2z" class="cls-2" data-name="Path 10136" transform="translate(96.94 125.525)"/>
        <path id="Path_10137" d="M1040.073 616.091a3.2 3.2 0 1 0 3.2 3.2 3.2 3.2 0 0 0-3.2-3.2z" class="cls-2" data-name="Path 10137" transform="translate(96.94 138.072)"/>
        <path id="Path_10138" d="M1040.073 658.462a3.2 3.2 0 1 0 3.2 3.2 3.2 3.2 0 0 0-3.2-3.2z" class="cls-2" data-name="Path 10138" transform="translate(96.94 163.182)"/>
        <path id="Path_10139" d="M1040.073 637.277a3.2 3.2 0 1 0 3.2 3.2 3.2 3.2 0 0 0-3.2-3.2z" class="cls-2" data-name="Path 10139" transform="translate(96.94 150.627)"/>
        <path id="Path_10140" d="M1067.341 658.462a3.2 3.2 0 1 0 3.2 3.2 3.2 3.2 0 0 0-3.2-3.2z" class="cls-2" data-name="Path 10140" transform="translate(113.096 163.182)"/>
        <path id="Path_10141" d="M1067.341 594.905a3.2 3.2 0 1 0 3.2 3.2 3.2 3.2 0 0 0-3.2-3.2z" class="cls-2" data-name="Path 10141" transform="translate(113.096 125.525)"/>
        <path id="Path_10142" d="M1067.341 616.091a3.2 3.2 0 1 0 3.2 3.2 3.2 3.2 0 0 0-3.2-3.2z" class="cls-2" data-name="Path 10142" transform="translate(113.096 138.072)"/>
        <path id="Path_10143" d="M1067.341 637.277a3.2 3.2 0 1 0 3.2 3.2 3.2 3.2 0 0 0-3.2-3.2z" class="cls-2" data-name="Path 10143" transform="translate(113.096 150.627)"/>
        <path id="Path_10144" d="M1067.341 573.72a3.2 3.2 0 1 0 3.2 3.2 3.2 3.2 0 0 0-3.2-3.2z" class="cls-2" data-name="Path 10144" transform="translate(113.096 112.972)"/>
        <path id="Path_10145" d="M1094.61 594.905a3.2 3.2 0 1 0 3.2 3.2 3.2 3.2 0 0 0-3.2-3.2z" class="cls-2" data-name="Path 10145" transform="translate(129.249 125.525)"/>
        <path id="Path_10146" d="M1094.61 573.72a3.2 3.2 0 1 0 3.2 3.2 3.2 3.2 0 0 0-3.2-3.2z" class="cls-2" data-name="Path 10146" transform="translate(129.249 112.972)"/>
        <path id="Path_10147" d="M1094.61 637.277a3.2 3.2 0 1 0 3.2 3.2 3.2 3.2 0 0 0-3.2-3.2z" class="cls-2" data-name="Path 10147" transform="translate(129.249 150.627)"/>
        <path id="Path_10148" d="M1094.61 616.091a3.2 3.2 0 1 0 3.2 3.2 3.2 3.2 0 0 0-3.2-3.2z" class="cls-2" data-name="Path 10148" transform="translate(129.249 138.072)"/>
        <path id="Path_10149" d="M1094.61 658.462a3.2 3.2 0 1 0 3.2 3.2 3.2 3.2 0 0 0-3.2-3.2z" class="cls-2" data-name="Path 10149" transform="translate(129.249 163.182)"/>
        <path id="Path_10150" d="M1121.879 658.462a3.2 3.2 0 1 0 3.2 3.2 3.2 3.2 0 0 0-3.2-3.2z" class="cls-2" data-name="Path 10150" transform="translate(145.41 163.182)"/>
        <path id="Path_10151" d="M1121.879 616.091a3.2 3.2 0 1 0 3.2 3.2 3.2 3.2 0 0 0-3.2-3.2z" class="cls-2" data-name="Path 10151" transform="translate(145.41 138.072)"/>
        <path id="Path_10152" d="M1121.879 637.277a3.2 3.2 0 1 0 3.2 3.2 3.2 3.2 0 0 0-3.2-3.2z" class="cls-2" data-name="Path 10152" transform="translate(145.41 150.627)"/>
        <path id="Path_10153" d="M1121.879 573.72a3.2 3.2 0 1 0 3.2 3.2 3.2 3.2 0 0 0-3.2-3.2z" class="cls-2" data-name="Path 10153" transform="translate(145.41 112.972)"/>
        <path id="Path_10154" d="M1121.879 594.905a3.2 3.2 0 1 0 3.2 3.2 3.2 3.2 0 0 0-3.2-3.2z" class="cls-2" data-name="Path 10154" transform="translate(145.41 125.525)"/>
    </g>
</svg>
