<svg xmlns="http://www.w3.org/2000/svg" width="133.9" height="150" viewBox="0 0 133.9 150">
    <defs>
        <style>
            .cls-1{opacity:.298}.cls-2{fill:#0468bf}
        </style>
    </defs>
    <g id="dots_shape" class="cls-1" data-name="dots shape" transform="translate(-873.256 -383.05)">
        <path id="Path_10015" d="M874.336 467.792a1.079 1.079 0 1 0 1.08 1.08 1.08 1.08 0 0 0-1.08-1.08z" class="cls-2" data-name="Path 10015" transform="translate(0 -39.253)"/>
        <path id="Path_10016" d="M874.336 510.163a1.079 1.079 0 1 0 1.08 1.08 1.08 1.08 0 0 0-1.08-1.08z" class="cls-2" data-name="Path 10016" transform="translate(0 -58.879)"/>
        <path id="Path_10017" d="M874.336 488.977a1.08 1.08 0 1 0 1.08 1.08 1.08 1.08 0 0 0-1.08-1.08z" class="cls-2" data-name="Path 10017" transform="translate(0 -49.066)"/>
        <path id="Path_10018" d="M874.336 425.421a1.079 1.079 0 1 0 1.08 1.08 1.08 1.08 0 0 0-1.08-1.08z" class="cls-2" data-name="Path 10018" transform="translate(0 -19.624)"/>
        <path id="Path_10019" d="M874.336 383.05a1.079 1.079 0 1 0 1.08 1.079 1.08 1.08 0 0 0-1.08-1.079z" class="cls-2" data-name="Path 10019"/>
        <path id="Path_10020" d="M874.336 404.235a1.08 1.08 0 1 0 1.08 1.08 1.08 1.08 0 0 0-1.08-1.08z" class="cls-2" data-name="Path 10020" transform="translate(0 -9.812)"/>
        <path id="Path_10021" d="M874.336 446.607a1.079 1.079 0 1 0 1.08 1.079 1.08 1.08 0 0 0-1.08-1.079z" class="cls-2" data-name="Path 10021" transform="translate(0 -29.44)"/>
        <path id="Path_10022" d="M874.336 552.535a1.079 1.079 0 1 0 1.08 1.079 1.08 1.08 0 0 0-1.08-1.079z" class="cls-2" data-name="Path 10022" transform="translate(0 -78.506)"/>
        <path id="Path_10023" d="M874.336 531.349a1.079 1.079 0 1 0 1.08 1.079 1.08 1.08 0 0 0-1.08-1.079z" class="cls-2" data-name="Path 10023" transform="translate(0 -68.692)"/>
        <path id="Path_10024" d="M901.605 552.535a1.079 1.079 0 1 0 1.079 1.079 1.08 1.08 0 0 0-1.079-1.079z" class="cls-2" data-name="Path 10024" transform="translate(-12.63 -78.506)"/>
        <path id="Path_10025" d="M901.605 531.349a1.079 1.079 0 1 0 1.079 1.079 1.08 1.08 0 0 0-1.079-1.079z" class="cls-2" data-name="Path 10025" transform="translate(-12.63 -68.692)"/>
        <path id="Path_10026" d="M901.605 404.235a1.08 1.08 0 1 0 1.079 1.08 1.08 1.08 0 0 0-1.079-1.08z" class="cls-2" data-name="Path 10026" transform="translate(-12.63 -9.812)"/>
        <path id="Path_10027" d="M901.605 383.05a1.079 1.079 0 1 0 1.079 1.079 1.08 1.08 0 0 0-1.079-1.079z" class="cls-2" data-name="Path 10027" transform="translate(-12.63)"/>
        <path id="Path_10028" d="M901.605 425.421a1.079 1.079 0 1 0 1.079 1.08 1.08 1.08 0 0 0-1.079-1.08z" class="cls-2" data-name="Path 10028" transform="translate(-12.63 -19.624)"/>
        <path id="Path_10029" d="M901.605 510.163a1.079 1.079 0 1 0 1.079 1.08 1.08 1.08 0 0 0-1.079-1.08z" class="cls-2" data-name="Path 10029" transform="translate(-12.63 -58.879)"/>
        <path id="Path_10030" d="M901.605 488.977a1.08 1.08 0 1 0 1.079 1.08 1.08 1.08 0 0 0-1.079-1.08z" class="cls-2" data-name="Path 10030" transform="translate(-12.63 -49.066)"/>
        <path id="Path_10031" d="M901.605 467.792a1.079 1.079 0 1 0 1.079 1.08 1.08 1.08 0 0 0-1.079-1.08z" class="cls-2" data-name="Path 10031" transform="translate(-12.63 -39.253)"/>
        <path id="Path_10032" d="M901.605 446.607a1.079 1.079 0 1 0 1.079 1.079 1.08 1.08 0 0 0-1.079-1.079z" class="cls-2" data-name="Path 10032" transform="translate(-12.63 -29.44)"/>
        <path id="Path_10033" d="M928.874 531.349a1.079 1.079 0 1 0 1.079 1.079 1.08 1.08 0 0 0-1.079-1.079z" class="cls-2" data-name="Path 10033" transform="translate(-25.262 -68.692)"/>
        <path id="Path_10034" d="M928.874 510.163a1.079 1.079 0 1 0 1.079 1.08 1.08 1.08 0 0 0-1.079-1.08z" class="cls-2" data-name="Path 10034" transform="translate(-25.262 -58.879)"/>
        <path id="Path_10035" d="M928.874 552.535a1.079 1.079 0 1 0 1.079 1.079 1.08 1.08 0 0 0-1.079-1.079z" class="cls-2" data-name="Path 10035" transform="translate(-25.262 -78.506)"/>
        <path id="Path_10036" d="M928.874 467.792a1.079 1.079 0 1 0 1.079 1.08 1.08 1.08 0 0 0-1.079-1.08z" class="cls-2" data-name="Path 10036" transform="translate(-25.262 -39.253)"/>
        <path id="Path_10037" d="M928.874 488.977a1.08 1.08 0 1 0 1.079 1.08 1.08 1.08 0 0 0-1.079-1.08z" class="cls-2" data-name="Path 10037" transform="translate(-25.262 -49.066)"/>
        <path id="Path_10038" d="M928.874 446.607a1.079 1.079 0 1 0 1.079 1.079 1.08 1.08 0 0 0-1.079-1.079z" class="cls-2" data-name="Path 10038" transform="translate(-25.262 -29.44)"/>
        <path id="Path_10039" d="M928.874 425.421a1.079 1.079 0 1 0 1.079 1.08 1.08 1.08 0 0 0-1.079-1.08z" class="cls-2" data-name="Path 10039" transform="translate(-25.262 -19.624)"/>
        <path id="Path_10040" d="M928.874 383.05a1.079 1.079 0 1 0 1.079 1.079 1.08 1.08 0 0 0-1.079-1.079z" class="cls-2" data-name="Path 10040" transform="translate(-25.262)"/>
        <path id="Path_10041" d="M928.874 404.235a1.08 1.08 0 1 0 1.079 1.08 1.08 1.08 0 0 0-1.079-1.08z" class="cls-2" data-name="Path 10041" transform="translate(-25.262 -9.812)"/>
        <path id="Path_10042" d="M956.143 467.792a1.079 1.079 0 1 0 1.08 1.08 1.079 1.079 0 0 0-1.08-1.08z" class="cls-2" data-name="Path 10042" transform="translate(-37.893 -39.253)"/>
        <path id="Path_10043" d="M956.143 446.607a1.079 1.079 0 1 0 1.08 1.079 1.079 1.079 0 0 0-1.08-1.079z" class="cls-2" data-name="Path 10043" transform="translate(-37.893 -29.44)"/>
        <path id="Path_10044" d="M956.143 425.421a1.079 1.079 0 1 0 1.08 1.08 1.079 1.079 0 0 0-1.08-1.08z" class="cls-2" data-name="Path 10044" transform="translate(-37.893 -19.624)"/>
        <path id="Path_10045" d="M956.143 510.163a1.079 1.079 0 1 0 1.08 1.08 1.079 1.079 0 0 0-1.08-1.08z" class="cls-2" data-name="Path 10045" transform="translate(-37.893 -58.879)"/>
        <path id="Path_10046" d="M956.143 383.05a1.079 1.079 0 1 0 1.08 1.079 1.079 1.079 0 0 0-1.08-1.079z" class="cls-2" data-name="Path 10046" transform="translate(-37.893)"/>
        <path id="Path_10047" d="M956.143 404.235a1.08 1.08 0 1 0 1.08 1.08 1.079 1.079 0 0 0-1.08-1.08z" class="cls-2" data-name="Path 10047" transform="translate(-37.893 -9.812)"/>
        <path id="Path_10048" d="M956.143 531.349a1.079 1.079 0 1 0 1.08 1.079 1.079 1.079 0 0 0-1.08-1.079z" class="cls-2" data-name="Path 10048" transform="translate(-37.893 -68.692)"/>
        <path id="Path_10049" d="M956.143 488.977a1.08 1.08 0 1 0 1.08 1.08 1.08 1.08 0 0 0-1.08-1.08z" class="cls-2" data-name="Path 10049" transform="translate(-37.893 -49.066)"/>
        <path id="Path_10050" d="M956.143 552.535a1.079 1.079 0 1 0 1.08 1.079 1.079 1.079 0 0 0-1.08-1.079z" class="cls-2" data-name="Path 10050" transform="translate(-37.893 -78.506)"/>
        <path id="Path_10051" d="M983.412 510.163a1.079 1.079 0 1 0 1.08 1.08 1.08 1.08 0 0 0-1.08-1.08z" class="cls-2" data-name="Path 10051" transform="translate(-50.524 -58.879)"/>
        <path id="Path_10052" d="M983.412 488.977a1.08 1.08 0 1 0 1.08 1.08 1.08 1.08 0 0 0-1.08-1.08z" class="cls-2" data-name="Path 10052" transform="translate(-50.524 -49.066)"/>
        <path id="Path_10053" d="M983.412 467.792a1.079 1.079 0 1 0 1.08 1.08 1.08 1.08 0 0 0-1.08-1.08z" class="cls-2" data-name="Path 10053" transform="translate(-50.524 -39.253)"/>
        <path id="Path_10054" d="M983.412 531.349a1.079 1.079 0 1 0 1.08 1.079 1.08 1.08 0 0 0-1.08-1.079z" class="cls-2" data-name="Path 10054" transform="translate(-50.524 -68.692)"/>
        <path id="Path_10055" d="M983.412 552.535a1.079 1.079 0 1 0 1.08 1.079 1.08 1.08 0 0 0-1.08-1.079z" class="cls-2" data-name="Path 10055" transform="translate(-50.524 -78.506)"/>
        <path id="Path_10056" d="M983.412 383.05a1.079 1.079 0 1 0 1.08 1.079 1.08 1.08 0 0 0-1.08-1.079z" class="cls-2" data-name="Path 10056" transform="translate(-50.524)"/>
        <path id="Path_10057" d="M983.412 404.235a1.08 1.08 0 1 0 1.08 1.08 1.08 1.08 0 0 0-1.08-1.08z" class="cls-2" data-name="Path 10057" transform="translate(-50.524 -9.812)"/>
        <path id="Path_10058" d="M983.412 425.421a1.079 1.079 0 1 0 1.08 1.08 1.08 1.08 0 0 0-1.08-1.08z" class="cls-2" data-name="Path 10058" transform="translate(-50.524 -19.624)"/>
        <path id="Path_10059" d="M983.412 446.607a1.079 1.079 0 1 0 1.08 1.079 1.08 1.08 0 0 0-1.08-1.079z" class="cls-2" data-name="Path 10059" transform="translate(-50.524 -29.44)"/>
        <path id="Path_10060" d="M1010.68 488.977a1.08 1.08 0 1 0 1.08 1.08 1.08 1.08 0 0 0-1.08-1.08z" class="cls-2" data-name="Path 10060" transform="translate(-63.155 -49.066)"/>
        <path id="Path_10061" d="M1010.68 467.792a1.079 1.079 0 1 0 1.08 1.08 1.079 1.079 0 0 0-1.08-1.08z" class="cls-2" data-name="Path 10061" transform="translate(-63.155 -39.253)"/>
        <path id="Path_10062" d="M1010.68 425.421a1.079 1.079 0 1 0 1.08 1.08 1.079 1.079 0 0 0-1.08-1.08z" class="cls-2" data-name="Path 10062" transform="translate(-63.155 -19.624)"/>
        <path id="Path_10063" d="M1010.68 404.235a1.08 1.08 0 1 0 1.08 1.08 1.079 1.079 0 0 0-1.08-1.08z" class="cls-2" data-name="Path 10063" transform="translate(-63.155 -9.812)"/>
        <path id="Path_10064" d="M1010.68 383.05a1.079 1.079 0 1 0 1.08 1.079 1.079 1.079 0 0 0-1.08-1.079z" class="cls-2" data-name="Path 10064" transform="translate(-63.155)"/>
        <path id="Path_10065" d="M1010.68 531.349a1.079 1.079 0 1 0 1.08 1.079 1.079 1.079 0 0 0-1.08-1.079z" class="cls-2" data-name="Path 10065" transform="translate(-63.155 -68.692)"/>
        <path id="Path_10066" d="M1010.68 510.163a1.079 1.079 0 1 0 1.08 1.08 1.079 1.079 0 0 0-1.08-1.08z" class="cls-2" data-name="Path 10066" transform="translate(-63.155 -58.879)"/>
        <path id="Path_10067" d="M1010.68 552.535a1.079 1.079 0 1 0 1.08 1.079 1.079 1.079 0 0 0-1.08-1.079z" class="cls-2" data-name="Path 10067" transform="translate(-63.155 -78.506)"/>
        <path id="Path_10068" d="M1010.68 446.607a1.079 1.079 0 1 0 1.08 1.079 1.079 1.079 0 0 0-1.08-1.079z" class="cls-2" data-name="Path 10068" transform="translate(-63.155 -29.44)"/>
        <path id="Path_10069" d="M1037.95 552.535a1.079 1.079 0 1 0 1.079 1.079 1.079 1.079 0 0 0-1.079-1.079z" class="cls-2" data-name="Path 10069" transform="translate(-75.786 -78.506)"/>
        <path id="Path_10070" d="M1037.95 467.792a1.079 1.079 0 1 0 1.079 1.08 1.079 1.079 0 0 0-1.079-1.08z" class="cls-2" data-name="Path 10070" transform="translate(-75.786 -39.253)"/>
        <path id="Path_10071" d="M1037.95 531.349a1.079 1.079 0 1 0 1.079 1.079 1.079 1.079 0 0 0-1.079-1.079z" class="cls-2" data-name="Path 10071" transform="translate(-75.786 -68.692)"/>
        <path id="Path_10072" d="M1037.95 488.977a1.08 1.08 0 1 0 1.079 1.08 1.08 1.08 0 0 0-1.079-1.08z" class="cls-2" data-name="Path 10072" transform="translate(-75.786 -49.066)"/>
        <path id="Path_10073" d="M1037.95 446.607a1.079 1.079 0 1 0 1.079 1.079 1.079 1.079 0 0 0-1.079-1.079z" class="cls-2" data-name="Path 10073" transform="translate(-75.786 -29.44)"/>
        <path id="Path_10074" d="M1037.95 510.163a1.079 1.079 0 1 0 1.079 1.08 1.079 1.079 0 0 0-1.079-1.08z" class="cls-2" data-name="Path 10074" transform="translate(-75.786 -58.879)"/>
        <path id="Path_10075" d="M1037.95 425.421a1.079 1.079 0 1 0 1.079 1.08 1.079 1.079 0 0 0-1.079-1.08z" class="cls-2" data-name="Path 10075" transform="translate(-75.786 -19.624)"/>
        <path id="Path_10076" d="M1037.95 383.05a1.079 1.079 0 1 0 1.079 1.079 1.079 1.079 0 0 0-1.079-1.079z" class="cls-2" data-name="Path 10076" transform="translate(-75.786)"/>
        <path id="Path_10077" d="M1037.95 404.235a1.08 1.08 0 1 0 1.079 1.08 1.079 1.079 0 0 0-1.079-1.08z" class="cls-2" data-name="Path 10077" transform="translate(-75.786 -9.812)"/>
        <path id="Path_10078" d="M1065.218 383.05a1.079 1.079 0 1 0 1.08 1.079 1.08 1.08 0 0 0-1.08-1.079z" class="cls-2" data-name="Path 10078" transform="translate(-88.417)"/>
        <path id="Path_10079" d="M1065.218 446.607a1.079 1.079 0 1 0 1.08 1.079 1.08 1.08 0 0 0-1.08-1.079z" class="cls-2" data-name="Path 10079" transform="translate(-88.417 -29.44)"/>
        <path id="Path_10080" d="M1065.218 552.535a1.079 1.079 0 1 0 1.08 1.079 1.08 1.08 0 0 0-1.08-1.079z" class="cls-2" data-name="Path 10080" transform="translate(-88.417 -78.506)"/>
        <path id="Path_10081" d="M1065.218 425.421a1.079 1.079 0 1 0 1.08 1.08 1.08 1.08 0 0 0-1.08-1.08z" class="cls-2" data-name="Path 10081" transform="translate(-88.417 -19.624)"/>
        <path id="Path_10082" d="M1065.218 404.235a1.08 1.08 0 1 0 1.08 1.08 1.08 1.08 0 0 0-1.08-1.08z" class="cls-2" data-name="Path 10082" transform="translate(-88.417 -9.812)"/>
        <path id="Path_10083" d="M1065.218 531.349a1.079 1.079 0 1 0 1.08 1.079 1.08 1.08 0 0 0-1.08-1.079z" class="cls-2" data-name="Path 10083" transform="translate(-88.417 -68.692)"/>
        <path id="Path_10084" d="M1065.218 510.163a1.079 1.079 0 1 0 1.08 1.08 1.08 1.08 0 0 0-1.08-1.08z" class="cls-2" data-name="Path 10084" transform="translate(-88.417 -58.879)"/>
        <path id="Path_10085" d="M1065.218 488.977a1.08 1.08 0 1 0 1.08 1.08 1.08 1.08 0 0 0-1.08-1.08z" class="cls-2" data-name="Path 10085" transform="translate(-88.417 -49.066)"/>
        <path id="Path_10086" d="M1065.218 467.792a1.079 1.079 0 1 0 1.08 1.08 1.08 1.08 0 0 0-1.08-1.08z" class="cls-2" data-name="Path 10086" transform="translate(-88.417 -39.253)"/>
        <path id="Path_10087" d="M1092.487 488.977a1.08 1.08 0 1 0 1.08 1.08 1.08 1.08 0 0 0-1.08-1.08z" class="cls-2" data-name="Path 10087" transform="translate(-101.049 -49.066)"/>
        <path id="Path_10088" d="M1092.487 446.607a1.079 1.079 0 1 0 1.08 1.079 1.079 1.079 0 0 0-1.08-1.079z" class="cls-2" data-name="Path 10088" transform="translate(-101.049 -29.44)"/>
        <path id="Path_10089" d="M1092.487 467.792a1.079 1.079 0 1 0 1.08 1.08 1.079 1.079 0 0 0-1.08-1.08z" class="cls-2" data-name="Path 10089" transform="translate(-101.049 -39.253)"/>
        <path id="Path_10090" d="M1092.487 404.235a1.08 1.08 0 1 0 1.08 1.08 1.079 1.079 0 0 0-1.08-1.08z" class="cls-2" data-name="Path 10090" transform="translate(-101.049 -9.812)"/>
        <path id="Path_10091" d="M1092.487 425.421a1.079 1.079 0 1 0 1.08 1.08 1.079 1.079 0 0 0-1.08-1.08z" class="cls-2" data-name="Path 10091" transform="translate(-101.049 -19.624)"/>
        <path id="Path_10092" d="M1092.487 383.05a1.079 1.079 0 1 0 1.08 1.079 1.079 1.079 0 0 0-1.08-1.079z" class="cls-2" data-name="Path 10092" transform="translate(-101.049)"/>
        <path id="Path_10093" d="M1092.487 510.163a1.079 1.079 0 1 0 1.08 1.08 1.079 1.079 0 0 0-1.08-1.08z" class="cls-2" data-name="Path 10093" transform="translate(-101.049 -58.879)"/>
        <path id="Path_10094" d="M1092.487 531.349a1.079 1.079 0 1 0 1.08 1.079 1.079 1.079 0 0 0-1.08-1.079z" class="cls-2" data-name="Path 10094" transform="translate(-101.049 -68.692)"/>
        <path id="Path_10095" d="M1092.487 552.535a1.079 1.079 0 1 0 1.08 1.079 1.079 1.079 0 0 0-1.08-1.079z" class="cls-2" data-name="Path 10095" transform="translate(-101.049 -78.506)"/>
        <path id="Path_10096" d="M1119.756 383.05a1.079 1.079 0 1 0 1.08 1.079 1.079 1.079 0 0 0-1.08-1.079z" class="cls-2" data-name="Path 10096" transform="translate(-113.679)"/>
        <path id="Path_10097" d="M1119.756 552.535a1.079 1.079 0 1 0 1.08 1.079 1.079 1.079 0 0 0-1.08-1.079z" class="cls-2" data-name="Path 10097" transform="translate(-113.679 -78.506)"/>
        <path id="Path_10098" d="M1119.756 531.349a1.079 1.079 0 1 0 1.08 1.079 1.079 1.079 0 0 0-1.08-1.079z" class="cls-2" data-name="Path 10098" transform="translate(-113.679 -68.692)"/>
        <path id="Path_10099" d="M1119.756 425.421a1.079 1.079 0 1 0 1.08 1.08 1.079 1.079 0 0 0-1.08-1.08z" class="cls-2" data-name="Path 10099" transform="translate(-113.679 -19.624)"/>
        <path id="Path_10100" d="M1119.756 510.163a1.079 1.079 0 1 0 1.08 1.08 1.079 1.079 0 0 0-1.08-1.08z" class="cls-2" data-name="Path 10100" transform="translate(-113.679 -58.879)"/>
        <path id="Path_10101" d="M1119.756 404.235a1.08 1.08 0 1 0 1.08 1.08 1.079 1.079 0 0 0-1.08-1.08z" class="cls-2" data-name="Path 10101" transform="translate(-113.679 -9.812)"/>
        <path id="Path_10102" d="M1119.756 467.792a1.079 1.079 0 1 0 1.08 1.08 1.079 1.079 0 0 0-1.08-1.08z" class="cls-2" data-name="Path 10102" transform="translate(-113.679 -39.253)"/>
        <path id="Path_10103" d="M1119.756 446.607a1.079 1.079 0 1 0 1.08 1.079 1.079 1.079 0 0 0-1.08-1.079z" class="cls-2" data-name="Path 10103" transform="translate(-113.679 -29.44)"/>
        <path id="Path_10104" d="M1119.756 488.977a1.08 1.08 0 1 0 1.08 1.08 1.08 1.08 0 0 0-1.08-1.08z" class="cls-2" data-name="Path 10104" transform="translate(-113.679 -49.066)"/>
        <path id="Path_10105" d="M874.336 573.72a1.079 1.079 0 1 0 1.08 1.079 1.08 1.08 0 0 0-1.08-1.079z" class="cls-2" data-name="Path 10105" transform="translate(0 -88.319)"/>
        <path id="Path_10106" d="M874.336 616.091a1.079 1.079 0 1 0 1.08 1.08 1.08 1.08 0 0 0-1.08-1.08z" class="cls-2" data-name="Path 10106" transform="translate(0 -107.947)"/>
        <path id="Path_10107" d="M874.336 658.462a1.08 1.08 0 1 0 1.08 1.08 1.08 1.08 0 0 0-1.08-1.08z" class="cls-2" data-name="Path 10107" transform="translate(0 -127.571)"/>
        <path id="Path_10108" d="M874.336 637.277a1.079 1.079 0 1 0 1.08 1.08 1.08 1.08 0 0 0-1.08-1.08z" class="cls-2" data-name="Path 10108" transform="translate(0 -117.759)"/>
        <path id="Path_10109" d="M874.336 594.905a1.08 1.08 0 1 0 1.08 1.08 1.08 1.08 0 0 0-1.08-1.08z" class="cls-2" data-name="Path 10109" transform="translate(0 -98.132)"/>
        <path id="Path_10110" d="M901.605 637.277a1.079 1.079 0 1 0 1.079 1.08 1.08 1.08 0 0 0-1.079-1.08z" class="cls-2" data-name="Path 10110" transform="translate(-12.63 -117.759)"/>
        <path id="Path_10111" d="M901.605 658.462a1.08 1.08 0 1 0 1.079 1.08 1.08 1.08 0 0 0-1.079-1.08z" class="cls-2" data-name="Path 10111" transform="translate(-12.63 -127.571)"/>
        <path id="Path_10112" d="M901.605 616.091a1.079 1.079 0 1 0 1.079 1.08 1.08 1.08 0 0 0-1.079-1.08z" class="cls-2" data-name="Path 10112" transform="translate(-12.63 -107.947)"/>
        <path id="Path_10113" d="M901.605 573.72a1.079 1.079 0 1 0 1.079 1.079 1.08 1.08 0 0 0-1.079-1.079z" class="cls-2" data-name="Path 10113" transform="translate(-12.63 -88.319)"/>
        <path id="Path_10114" d="M901.605 594.905a1.08 1.08 0 1 0 1.079 1.08 1.08 1.08 0 0 0-1.079-1.08z" class="cls-2" data-name="Path 10114" transform="translate(-12.63 -98.132)"/>
        <path id="Path_10115" d="M928.874 573.72a1.079 1.079 0 1 0 1.079 1.079 1.08 1.08 0 0 0-1.079-1.079z" class="cls-2" data-name="Path 10115" transform="translate(-25.262 -88.319)"/>
        <path id="Path_10116" d="M928.874 594.905a1.08 1.08 0 1 0 1.079 1.08 1.08 1.08 0 0 0-1.079-1.08z" class="cls-2" data-name="Path 10116" transform="translate(-25.262 -98.132)"/>
        <path id="Path_10117" d="M928.874 616.091a1.079 1.079 0 1 0 1.079 1.08 1.08 1.08 0 0 0-1.079-1.08z" class="cls-2" data-name="Path 10117" transform="translate(-25.262 -107.947)"/>
        <path id="Path_10118" d="M928.874 658.462a1.08 1.08 0 1 0 1.079 1.08 1.08 1.08 0 0 0-1.079-1.08z" class="cls-2" data-name="Path 10118" transform="translate(-25.262 -127.571)"/>
        <path id="Path_10119" d="M928.874 637.277a1.079 1.079 0 1 0 1.079 1.08 1.08 1.08 0 0 0-1.079-1.08z" class="cls-2" data-name="Path 10119" transform="translate(-25.262 -117.759)"/>
        <path id="Path_10120" d="M956.143 573.72a1.079 1.079 0 1 0 1.08 1.079 1.079 1.079 0 0 0-1.08-1.079z" class="cls-2" data-name="Path 10120" transform="translate(-37.893 -88.319)"/>
        <path id="Path_10121" d="M956.143 594.905a1.08 1.08 0 1 0 1.08 1.08 1.08 1.08 0 0 0-1.08-1.08z" class="cls-2" data-name="Path 10121" transform="translate(-37.893 -98.132)"/>
        <path id="Path_10122" d="M956.143 616.091a1.079 1.079 0 1 0 1.08 1.08 1.079 1.079 0 0 0-1.08-1.08z" class="cls-2" data-name="Path 10122" transform="translate(-37.893 -107.947)"/>
        <path id="Path_10123" d="M956.143 658.462a1.08 1.08 0 1 0 1.08 1.08 1.079 1.079 0 0 0-1.08-1.08z" class="cls-2" data-name="Path 10123" transform="translate(-37.893 -127.571)"/>
        <path id="Path_10124" d="M956.143 637.277a1.079 1.079 0 1 0 1.08 1.08 1.079 1.079 0 0 0-1.08-1.08z" class="cls-2" data-name="Path 10124" transform="translate(-37.893 -117.759)"/>
        <path id="Path_10125" d="M983.412 573.72a1.079 1.079 0 1 0 1.08 1.079 1.08 1.08 0 0 0-1.08-1.079z" class="cls-2" data-name="Path 10125" transform="translate(-50.524 -88.319)"/>
        <path id="Path_10126" d="M983.412 658.462a1.08 1.08 0 1 0 1.08 1.08 1.08 1.08 0 0 0-1.08-1.08z" class="cls-2" data-name="Path 10126" transform="translate(-50.524 -127.571)"/>
        <path id="Path_10127" d="M983.412 637.277a1.079 1.079 0 1 0 1.08 1.08 1.08 1.08 0 0 0-1.08-1.08z" class="cls-2" data-name="Path 10127" transform="translate(-50.524 -117.759)"/>
        <path id="Path_10128" d="M983.412 616.091a1.079 1.079 0 1 0 1.08 1.08 1.08 1.08 0 0 0-1.08-1.08z" class="cls-2" data-name="Path 10128" transform="translate(-50.524 -107.947)"/>
        <path id="Path_10129" d="M983.412 594.905a1.08 1.08 0 1 0 1.08 1.08 1.08 1.08 0 0 0-1.08-1.08z" class="cls-2" data-name="Path 10129" transform="translate(-50.524 -98.132)"/>
        <path id="Path_10130" d="M1010.68 573.72a1.079 1.079 0 1 0 1.08 1.079 1.079 1.079 0 0 0-1.08-1.079z" class="cls-2" data-name="Path 10130" transform="translate(-63.155 -88.319)"/>
        <path id="Path_10131" d="M1010.68 616.091a1.079 1.079 0 1 0 1.08 1.08 1.079 1.079 0 0 0-1.08-1.08z" class="cls-2" data-name="Path 10131" transform="translate(-63.155 -107.947)"/>
        <path id="Path_10132" d="M1010.68 637.277a1.079 1.079 0 1 0 1.08 1.08 1.079 1.079 0 0 0-1.08-1.08z" class="cls-2" data-name="Path 10132" transform="translate(-63.155 -117.759)"/>
        <path id="Path_10133" d="M1010.68 658.462a1.08 1.08 0 1 0 1.08 1.08 1.079 1.079 0 0 0-1.08-1.08z" class="cls-2" data-name="Path 10133" transform="translate(-63.155 -127.571)"/>
        <path id="Path_10134" d="M1010.68 594.905a1.08 1.08 0 1 0 1.08 1.08 1.08 1.08 0 0 0-1.08-1.08z" class="cls-2" data-name="Path 10134" transform="translate(-63.155 -98.132)"/>
        <path id="Path_10135" d="M1037.95 573.72a1.079 1.079 0 1 0 1.079 1.079 1.079 1.079 0 0 0-1.079-1.079z" class="cls-2" data-name="Path 10135" transform="translate(-75.786 -88.319)"/>
        <path id="Path_10136" d="M1037.95 594.905a1.08 1.08 0 1 0 1.079 1.08 1.08 1.08 0 0 0-1.079-1.08z" class="cls-2" data-name="Path 10136" transform="translate(-75.786 -98.132)"/>
        <path id="Path_10137" d="M1037.95 616.091a1.079 1.079 0 1 0 1.079 1.08 1.079 1.079 0 0 0-1.079-1.08z" class="cls-2" data-name="Path 10137" transform="translate(-75.786 -107.947)"/>
        <path id="Path_10138" d="M1037.95 658.462a1.08 1.08 0 1 0 1.079 1.08 1.079 1.079 0 0 0-1.079-1.08z" class="cls-2" data-name="Path 10138" transform="translate(-75.786 -127.571)"/>
        <path id="Path_10139" d="M1037.95 637.277a1.079 1.079 0 1 0 1.079 1.08 1.079 1.079 0 0 0-1.079-1.08z" class="cls-2" data-name="Path 10139" transform="translate(-75.786 -117.759)"/>
        <path id="Path_10140" d="M1065.218 658.462a1.08 1.08 0 1 0 1.08 1.08 1.08 1.08 0 0 0-1.08-1.08z" class="cls-2" data-name="Path 10140" transform="translate(-88.417 -127.571)"/>
        <path id="Path_10141" d="M1065.218 594.905a1.08 1.08 0 1 0 1.08 1.08 1.08 1.08 0 0 0-1.08-1.08z" class="cls-2" data-name="Path 10141" transform="translate(-88.417 -98.132)"/>
        <path id="Path_10142" d="M1065.218 616.091a1.079 1.079 0 1 0 1.08 1.08 1.08 1.08 0 0 0-1.08-1.08z" class="cls-2" data-name="Path 10142" transform="translate(-88.417 -107.947)"/>
        <path id="Path_10143" d="M1065.218 637.277a1.079 1.079 0 1 0 1.08 1.08 1.08 1.08 0 0 0-1.08-1.08z" class="cls-2" data-name="Path 10143" transform="translate(-88.417 -117.759)"/>
        <path id="Path_10144" d="M1065.218 573.72a1.079 1.079 0 1 0 1.08 1.079 1.08 1.08 0 0 0-1.08-1.079z" class="cls-2" data-name="Path 10144" transform="translate(-88.417 -88.319)"/>
        <path id="Path_10145" d="M1092.487 594.905a1.08 1.08 0 1 0 1.08 1.08 1.08 1.08 0 0 0-1.08-1.08z" class="cls-2" data-name="Path 10145" transform="translate(-101.049 -98.132)"/>
        <path id="Path_10146" d="M1092.487 573.72a1.079 1.079 0 1 0 1.08 1.079 1.079 1.079 0 0 0-1.08-1.079z" class="cls-2" data-name="Path 10146" transform="translate(-101.049 -88.319)"/>
        <path id="Path_10147" d="M1092.487 637.277a1.079 1.079 0 1 0 1.08 1.08 1.079 1.079 0 0 0-1.08-1.08z" class="cls-2" data-name="Path 10147" transform="translate(-101.049 -117.759)"/>
        <path id="Path_10148" d="M1092.487 616.091a1.079 1.079 0 1 0 1.08 1.08 1.079 1.079 0 0 0-1.08-1.08z" class="cls-2" data-name="Path 10148" transform="translate(-101.049 -107.947)"/>
        <path id="Path_10149" d="M1092.487 658.462a1.08 1.08 0 1 0 1.08 1.08 1.079 1.079 0 0 0-1.08-1.08z" class="cls-2" data-name="Path 10149" transform="translate(-101.049 -127.571)"/>
        <path id="Path_10150" d="M1119.756 658.462a1.08 1.08 0 1 0 1.08 1.08 1.079 1.079 0 0 0-1.08-1.08z" class="cls-2" data-name="Path 10150" transform="translate(-113.679 -127.571)"/>
        <path id="Path_10151" d="M1119.756 616.091a1.079 1.079 0 1 0 1.08 1.08 1.079 1.079 0 0 0-1.08-1.08z" class="cls-2" data-name="Path 10151" transform="translate(-113.679 -107.947)"/>
        <path id="Path_10152" d="M1119.756 637.277a1.079 1.079 0 1 0 1.08 1.08 1.079 1.079 0 0 0-1.08-1.08z" class="cls-2" data-name="Path 10152" transform="translate(-113.679 -117.759)"/>
        <path id="Path_10153" d="M1119.756 573.72a1.079 1.079 0 1 0 1.08 1.079 1.079 1.079 0 0 0-1.08-1.079z" class="cls-2" data-name="Path 10153" transform="translate(-113.679 -88.319)"/>
        <path id="Path_10154" d="M1119.756 594.905a1.08 1.08 0 1 0 1.08 1.08 1.08 1.08 0 0 0-1.08-1.08z" class="cls-2" data-name="Path 10154" transform="translate(-113.679 -98.132)"/>
    </g>
</svg>
