<svg xmlns="http://www.w3.org/2000/svg" width="479.524" height="515.922" viewBox="0 0 479.524 515.922">
    <defs>
        <style>
            .cls-1{opacity:.696}.cls-2{fill:#e5e5e5}
        </style>
    </defs>
    <g id="dots_shape" class="cls-1" data-name="dots shape" transform="translate(-791.45 -300.564)">
        <path id="Path_9746" d="M793.785 531.349a2.334 2.334 0 1 0 2.335 2.333 2.335 2.335 0 0 0-2.335-2.333z" class="cls-2" data-name="Path 9746" transform="translate(0 37.139)"/>
        <path id="Path_9747" d="M793.785 510.163a2.334 2.334 0 1 0 2.335 2.335 2.335 2.335 0 0 0-2.335-2.335z" class="cls-2" data-name="Path 9747" transform="translate(0 33.73)"/>
        <path id="Path_9748" d="M793.765 467.792a2.324 2.324 0 0 0-1.707.751c-.165.784-.33 1.566-.488 2.353a2.33 2.33 0 1 0 2.194-3.1z" class="cls-2" data-name="Path 9748" transform="translate(.019 26.911)"/>
        <path id="Path_9749" d="M793.785 488.977a2.3 2.3 0 0 0-.525.065c-.042.009-.081.026-.122.037a2.317 2.317 0 0 0-.373.142q-.052.026-.1.056a2.311 2.311 0 0 0-.354.239c-.017.015-.036.029-.053.045a2.3 2.3 0 0 0 .045 3.541l.071.057a2.278 2.278 0 0 0 .592.331c.036.014.072.022.107.034a2.322 2.322 0 0 0 .709.123 2.335 2.335 0 0 0 0-4.669z" class="cls-2" data-name="Path 9749" transform="translate(0 30.32)"/>
        <path id="Path_9750" d="M793.785 552.535a2.319 2.319 0 0 0-.709.122c-.035.012-.071.02-.107.033a2.316 2.316 0 0 0-.592.332l-.071.058a2.3 2.3 0 0 0-.045 3.541l.053.044a2.265 2.265 0 0 0 .353.239c.034.02.067.039.1.056a2.427 2.427 0 0 0 .372.142c.042.012.081.028.123.038a2.365 2.365 0 0 0 .525.064 2.334 2.334 0 1 0 0-4.668z" class="cls-2" data-name="Path 9750" transform="translate(0 40.548)"/>
        <path id="Path_9751" d="M821.054 425.421a2.334 2.334 0 1 0 2.335 2.335 2.334 2.334 0 0 0-2.335-2.335z" class="cls-2" data-name="Path 9751" transform="translate(4.388 20.092)"/>
        <path id="Path_9752" d="M821.054 446.607a2.334 2.334 0 1 0 2.335 2.333 2.334 2.334 0 0 0-2.335-2.333z" class="cls-2" data-name="Path 9752" transform="translate(4.388 23.502)"/>
        <path id="Path_9753" d="M821.054 404.235a2.335 2.335 0 1 0 2.335 2.335 2.334 2.334 0 0 0-2.335-2.335z" class="cls-2" data-name="Path 9753" transform="translate(4.388 16.683)"/>
        <path id="Path_9754" d="M821.054 531.349a2.334 2.334 0 1 0 2.335 2.333 2.334 2.334 0 0 0-2.335-2.333z" class="cls-2" data-name="Path 9754" transform="translate(4.388 37.139)"/>
        <path id="Path_9755" d="M821.054 552.535a2.334 2.334 0 1 0 2.335 2.333 2.334 2.334 0 0 0-2.335-2.333z" class="cls-2" data-name="Path 9755" transform="translate(4.388 40.548)"/>
        <path id="Path_9756" d="M821.054 467.792a2.334 2.334 0 1 0 2.335 2.335 2.334 2.334 0 0 0-2.335-2.335z" class="cls-2" data-name="Path 9756" transform="translate(4.388 26.911)"/>
        <path id="Path_9757" d="M821.054 510.163a2.334 2.334 0 1 0 2.335 2.335 2.334 2.334 0 0 0-2.335-2.335z" class="cls-2" data-name="Path 9757" transform="translate(4.388 33.73)"/>
        <path id="Path_9758" d="M821.054 488.977a2.335 2.335 0 1 0 2.335 2.335 2.335 2.335 0 0 0-2.335-2.335z" class="cls-2" data-name="Path 9758" transform="translate(4.388 30.32)"/>
        <path id="Path_9759" d="M848.323 467.792a2.334 2.334 0 1 0 2.333 2.335 2.334 2.334 0 0 0-2.333-2.335z" class="cls-2" data-name="Path 9759" transform="translate(8.776 26.911)"/>
        <path id="Path_9760" d="M848.323 510.163a2.334 2.334 0 1 0 2.333 2.335 2.334 2.334 0 0 0-2.333-2.335z" class="cls-2" data-name="Path 9760" transform="translate(8.776 33.73)"/>
        <path id="Path_9761" d="M848.323 488.977a2.335 2.335 0 1 0 2.333 2.335 2.335 2.335 0 0 0-2.333-2.335z" class="cls-2" data-name="Path 9761" transform="translate(8.776 30.32)"/>
        <path id="Path_9762" d="M848.323 404.235a2.335 2.335 0 1 0 2.333 2.335 2.334 2.334 0 0 0-2.333-2.335z" class="cls-2" data-name="Path 9762" transform="translate(8.776 16.683)"/>
        <path id="Path_9763" d="M848.323 446.607a2.334 2.334 0 1 0 2.333 2.333 2.334 2.334 0 0 0-2.333-2.333z" class="cls-2" data-name="Path 9763" transform="translate(8.776 23.502)"/>
        <path id="Path_9764" d="M848.323 531.349a2.334 2.334 0 1 0 2.333 2.333 2.334 2.334 0 0 0-2.333-2.333z" class="cls-2" data-name="Path 9764" transform="translate(8.776 37.139)"/>
        <path id="Path_9765" d="M848.323 425.421a2.334 2.334 0 1 0 2.333 2.335 2.334 2.334 0 0 0-2.333-2.335z" class="cls-2" data-name="Path 9765" transform="translate(8.776 20.092)"/>
        <path id="Path_9766" d="M846.671 365.835a2.326 2.326 0 0 0 3.247-3.325 248.285 248.285 0 0 0-3.247 3.325z" class="cls-2" data-name="Path 9766" transform="translate(8.886 9.969)"/>
        <path id="Path_9767" d="M848.323 383.05a2.334 2.334 0 1 0 2.333 2.333 2.334 2.334 0 0 0-2.333-2.333z" class="cls-2" data-name="Path 9767" transform="translate(8.776 13.274)"/>
        <path id="Path_9768" d="M848.323 552.535a2.334 2.334 0 1 0 2.333 2.333 2.334 2.334 0 0 0-2.333-2.333z" class="cls-2" data-name="Path 9768" transform="translate(8.776 40.548)"/>
        <path id="Path_9769" d="M875.591 467.792a2.334 2.334 0 1 0 2.335 2.335 2.335 2.335 0 0 0-2.335-2.335z" class="cls-2" data-name="Path 9769" transform="translate(13.165 26.911)"/>
        <path id="Path_9770" d="M875.591 510.163a2.334 2.334 0 1 0 2.335 2.335 2.335 2.335 0 0 0-2.335-2.335z" class="cls-2" data-name="Path 9770" transform="translate(13.165 33.73)"/>
        <path id="Path_9771" d="M875.591 488.977a2.335 2.335 0 1 0 2.335 2.335 2.336 2.336 0 0 0-2.335-2.335z" class="cls-2" data-name="Path 9771" transform="translate(13.165 30.32)"/>
        <path id="Path_9772" d="M875.591 425.421a2.334 2.334 0 1 0 2.335 2.335 2.335 2.335 0 0 0-2.335-2.335z" class="cls-2" data-name="Path 9772" transform="translate(13.165 20.092)"/>
        <path id="Path_9773" d="M875.591 361.864a2.335 2.335 0 1 0 2.335 2.335 2.335 2.335 0 0 0-2.335-2.335z" class="cls-2" data-name="Path 9773" transform="translate(13.165 9.865)"/>
        <path id="Path_9774" d="M875.591 383.05a2.334 2.334 0 1 0 2.335 2.333 2.335 2.335 0 0 0-2.335-2.333z" class="cls-2" data-name="Path 9774" transform="translate(13.165 13.274)"/>
        <path id="Path_9775" d="M875.591 404.235a2.335 2.335 0 1 0 2.335 2.335 2.335 2.335 0 0 0-2.335-2.335z" class="cls-2" data-name="Path 9775" transform="translate(13.165 16.683)"/>
        <path id="Path_9776" d="M875.591 446.607a2.334 2.334 0 1 0 2.335 2.333 2.335 2.335 0 0 0-2.335-2.333z" class="cls-2" data-name="Path 9776" transform="translate(13.165 23.502)"/>
        <path id="Path_9777" d="M875.591 552.535a2.334 2.334 0 1 0 2.335 2.333 2.335 2.335 0 0 0-2.335-2.333z" class="cls-2" data-name="Path 9777" transform="translate(13.165 40.548)"/>
        <path id="Path_9778" d="M875.591 531.349a2.334 2.334 0 1 0 2.335 2.333 2.335 2.335 0 0 0-2.335-2.333z" class="cls-2" data-name="Path 9778" transform="translate(13.165 37.139)"/>
        <path id="Path_9779" d="M875.591 340.678a2.34 2.34 0 0 0-.3.03c-.6.44-1.211.877-1.811 1.321a2.309 2.309 0 0 0-.224.983 2.335 2.335 0 1 0 2.335-2.335z" class="cls-2" data-name="Path 9779" transform="translate(13.165 6.455)"/>
        <path id="Path_9780" d="M902.861 552.535a2.334 2.334 0 1 0 2.333 2.333 2.335 2.335 0 0 0-2.333-2.333z" class="cls-2" data-name="Path 9780" transform="translate(17.553 40.548)"/>
        <path id="Path_9781" d="M902.861 531.349a2.334 2.334 0 1 0 2.333 2.333 2.335 2.335 0 0 0-2.333-2.333z" class="cls-2" data-name="Path 9781" transform="translate(17.553 37.139)"/>
        <path id="Path_9782" d="M902.861 404.235a2.335 2.335 0 1 0 2.333 2.335 2.335 2.335 0 0 0-2.333-2.335z" class="cls-2" data-name="Path 9782" transform="translate(17.553 16.683)"/>
        <path id="Path_9783" d="M902.861 383.05a2.334 2.334 0 1 0 2.333 2.333 2.335 2.335 0 0 0-2.333-2.333z" class="cls-2" data-name="Path 9783" transform="translate(17.553 13.274)"/>
        <path id="Path_9784" d="M902.861 425.421a2.334 2.334 0 1 0 2.333 2.335 2.335 2.335 0 0 0-2.333-2.335z" class="cls-2" data-name="Path 9784" transform="translate(17.553 20.092)"/>
        <path id="Path_9785" d="M902.861 510.163a2.334 2.334 0 1 0 2.333 2.335 2.335 2.335 0 0 0-2.333-2.335z" class="cls-2" data-name="Path 9785" transform="translate(17.553 33.73)"/>
        <path id="Path_9786" d="M902.861 488.977a2.335 2.335 0 1 0 2.333 2.335 2.336 2.336 0 0 0-2.333-2.335z" class="cls-2" data-name="Path 9786" transform="translate(17.553 30.32)"/>
        <path id="Path_9787" d="M902.861 467.792a2.334 2.334 0 1 0 2.333 2.335 2.335 2.335 0 0 0-2.333-2.335z" class="cls-2" data-name="Path 9787" transform="translate(17.553 26.911)"/>
        <path id="Path_9788" d="M902.861 446.607a2.334 2.334 0 1 0 2.333 2.333 2.335 2.335 0 0 0-2.333-2.333z" class="cls-2" data-name="Path 9788" transform="translate(17.553 23.502)"/>
        <path id="Path_9789" d="M902.861 361.864a2.335 2.335 0 1 0 2.333 2.335 2.335 2.335 0 0 0-2.333-2.335z" class="cls-2" data-name="Path 9789" transform="translate(17.553 9.865)"/>
        <path id="Path_9790" d="M902.861 340.678a2.335 2.335 0 1 0 2.333 2.335 2.336 2.336 0 0 0-2.333-2.335z" class="cls-2" data-name="Path 9790" transform="translate(17.553 6.455)"/>
        <path id="Path_9791" d="M930.13 531.349a2.334 2.334 0 1 0 2.333 2.333 2.335 2.335 0 0 0-2.333-2.333z" class="cls-2" data-name="Path 9791" transform="translate(21.941 37.139)"/>
        <path id="Path_9792" d="M930.13 510.163a2.334 2.334 0 1 0 2.333 2.335 2.335 2.335 0 0 0-2.333-2.335z" class="cls-2" data-name="Path 9792" transform="translate(21.941 33.73)"/>
        <path id="Path_9793" d="M930.13 552.535a2.334 2.334 0 1 0 2.333 2.333 2.335 2.335 0 0 0-2.333-2.333z" class="cls-2" data-name="Path 9793" transform="translate(21.941 40.548)"/>
        <path id="Path_9794" d="M930.13 467.792a2.334 2.334 0 1 0 2.333 2.335 2.335 2.335 0 0 0-2.333-2.335z" class="cls-2" data-name="Path 9794" transform="translate(21.941 26.911)"/>
        <path id="Path_9795" d="M930.13 488.977a2.335 2.335 0 1 0 2.333 2.335 2.336 2.336 0 0 0-2.333-2.335z" class="cls-2" data-name="Path 9795" transform="translate(21.941 30.32)"/>
        <path id="Path_9796" d="M930.13 446.607a2.334 2.334 0 1 0 2.333 2.333 2.335 2.335 0 0 0-2.333-2.333z" class="cls-2" data-name="Path 9796" transform="translate(21.941 23.502)"/>
        <path id="Path_9797" d="M930.13 361.864a2.335 2.335 0 1 0 2.333 2.335 2.335 2.335 0 0 0-2.333-2.335z" class="cls-2" data-name="Path 9797" transform="translate(21.941 9.865)"/>
        <path id="Path_9798" d="M930.13 319.493a2.334 2.334 0 1 0 2.333 2.335 2.335 2.335 0 0 0-2.333-2.335z" class="cls-2" data-name="Path 9798" transform="translate(21.941 3.046)"/>
        <path id="Path_9799" d="M930.13 340.678a2.335 2.335 0 1 0 2.333 2.335 2.336 2.336 0 0 0-2.333-2.335z" class="cls-2" data-name="Path 9799" transform="translate(21.941 6.455)"/>
        <path id="Path_9800" d="M930.13 425.421a2.334 2.334 0 1 0 2.333 2.335 2.335 2.335 0 0 0-2.333-2.335z" class="cls-2" data-name="Path 9800" transform="translate(21.941 20.092)"/>
        <path id="Path_9801" d="M930.13 383.05a2.334 2.334 0 1 0 2.333 2.333 2.335 2.335 0 0 0-2.333-2.333z" class="cls-2" data-name="Path 9801" transform="translate(21.941 13.274)"/>
        <path id="Path_9802" d="M930.13 404.235a2.335 2.335 0 1 0 2.333 2.335 2.335 2.335 0 0 0-2.333-2.335z" class="cls-2" data-name="Path 9802" transform="translate(21.941 16.683)"/>
        <path id="Path_9803" d="M957.4 467.792a2.334 2.334 0 1 0 2.335 2.335 2.334 2.334 0 0 0-2.335-2.335z" class="cls-2" data-name="Path 9803" transform="translate(26.329 26.911)"/>
        <path id="Path_9804" d="M957.4 446.607a2.334 2.334 0 1 0 2.335 2.333 2.334 2.334 0 0 0-2.335-2.333z" class="cls-2" data-name="Path 9804" transform="translate(26.329 23.502)"/>
        <path id="Path_9805" d="M957.4 319.493a2.334 2.334 0 1 0 2.335 2.335 2.334 2.334 0 0 0-2.335-2.335z" class="cls-2" data-name="Path 9805" transform="translate(26.329 3.046)"/>
        <path id="Path_9806" d="M957.4 425.421a2.334 2.334 0 1 0 2.335 2.335 2.334 2.334 0 0 0-2.335-2.335z" class="cls-2" data-name="Path 9806" transform="translate(26.329 20.092)"/>
        <path id="Path_9807" d="M957.4 510.163a2.334 2.334 0 1 0 2.335 2.335 2.334 2.334 0 0 0-2.335-2.335z" class="cls-2" data-name="Path 9807" transform="translate(26.329 33.73)"/>
        <path id="Path_9808" d="M957.4 383.05a2.334 2.334 0 1 0 2.335 2.333 2.334 2.334 0 0 0-2.335-2.333z" class="cls-2" data-name="Path 9808" transform="translate(26.329 13.274)"/>
        <path id="Path_9809" d="M957.4 361.864a2.335 2.335 0 1 0 2.335 2.335 2.334 2.334 0 0 0-2.335-2.335z" class="cls-2" data-name="Path 9809" transform="translate(26.329 9.865)"/>
        <path id="Path_9810" d="M957.4 404.235a2.335 2.335 0 1 0 2.335 2.335 2.334 2.334 0 0 0-2.335-2.335z" class="cls-2" data-name="Path 9810" transform="translate(26.329 16.683)"/>
        <path id="Path_9811" d="M957.4 531.349a2.334 2.334 0 1 0 2.335 2.333 2.334 2.334 0 0 0-2.335-2.333z" class="cls-2" data-name="Path 9811" transform="translate(26.329 37.139)"/>
        <path id="Path_9812" d="M957.4 488.977a2.335 2.335 0 1 0 2.335 2.335 2.335 2.335 0 0 0-2.335-2.335z" class="cls-2" data-name="Path 9812" transform="translate(26.329 30.32)"/>
        <path id="Path_9813" d="M957.4 552.535a2.334 2.334 0 1 0 2.335 2.333 2.334 2.334 0 0 0-2.335-2.333z" class="cls-2" data-name="Path 9813" transform="translate(26.329 40.548)"/>
        <path id="Path_9814" d="M957.4 340.678a2.335 2.335 0 1 0 2.335 2.335 2.335 2.335 0 0 0-2.335-2.335z" class="cls-2" data-name="Path 9814" transform="translate(26.329 6.455)"/>
        <path id="Path_9815" d="M984.646 302.585a2.325 2.325 0 0 0 2.279-1.845c-1.492.092-2.981.186-4.465.3a2.3 2.3 0 0 0 2.186 1.541z" class="cls-2" data-name="Path 9815" transform="translate(30.738 .028)"/>
        <path id="Path_9816" d="M984.667 510.163A2.334 2.334 0 1 0 987 512.5a2.335 2.335 0 0 0-2.333-2.337z" class="cls-2" data-name="Path 9816" transform="translate(30.717 33.73)"/>
        <path id="Path_9817" d="M984.667 488.977a2.335 2.335 0 1 0 2.333 2.335 2.336 2.336 0 0 0-2.333-2.335z" class="cls-2" data-name="Path 9817" transform="translate(30.717 30.32)"/>
        <path id="Path_9818" d="M984.667 467.792a2.334 2.334 0 1 0 2.333 2.335 2.335 2.335 0 0 0-2.333-2.335z" class="cls-2" data-name="Path 9818" transform="translate(30.717 26.911)"/>
        <path id="Path_9819" d="M984.667 531.349a2.334 2.334 0 1 0 2.333 2.333 2.335 2.335 0 0 0-2.333-2.333z" class="cls-2" data-name="Path 9819" transform="translate(30.717 37.139)"/>
        <path id="Path_9820" d="M984.667 552.535a2.334 2.334 0 1 0 2.333 2.333 2.335 2.335 0 0 0-2.333-2.333z" class="cls-2" data-name="Path 9820" transform="translate(30.717 40.548)"/>
        <path id="Path_9821" d="M984.667 319.493a2.334 2.334 0 1 0 2.333 2.335 2.335 2.335 0 0 0-2.333-2.335z" class="cls-2" data-name="Path 9821" transform="translate(30.717 3.046)"/>
        <path id="Path_9822" d="M984.667 340.678a2.335 2.335 0 1 0 2.333 2.335 2.336 2.336 0 0 0-2.333-2.335z" class="cls-2" data-name="Path 9822" transform="translate(30.717 6.455)"/>
        <path id="Path_9823" d="M984.667 383.05a2.334 2.334 0 1 0 2.333 2.333 2.335 2.335 0 0 0-2.333-2.333z" class="cls-2" data-name="Path 9823" transform="translate(30.717 13.274)"/>
        <path id="Path_9824" d="M984.667 404.235A2.335 2.335 0 1 0 987 406.57a2.335 2.335 0 0 0-2.333-2.335z" class="cls-2" data-name="Path 9824" transform="translate(30.717 16.683)"/>
        <path id="Path_9825" d="M984.667 425.421a2.334 2.334 0 1 0 2.333 2.335 2.335 2.335 0 0 0-2.333-2.335z" class="cls-2" data-name="Path 9825" transform="translate(30.717 20.092)"/>
        <path id="Path_9826" d="M984.667 446.607a2.334 2.334 0 1 0 2.333 2.334 2.335 2.335 0 0 0-2.333-2.334z" class="cls-2" data-name="Path 9826" transform="translate(30.717 23.502)"/>
        <path id="Path_9827" d="M984.667 361.864A2.335 2.335 0 1 0 987 364.2a2.335 2.335 0 0 0-2.333-2.336z" class="cls-2" data-name="Path 9827" transform="translate(30.717 9.865)"/>
        <path id="Path_9828" d="M1011.931 302.613a2.312 2.312 0 0 0 2.26-1.783c-1.518-.1-3.039-.2-4.566-.266a2.313 2.313 0 0 0 2.306 2.049z" class="cls-2" data-name="Path 9828" transform="translate(35.11)"/>
        <path id="Path_9829" d="M1011.935 488.977a2.335 2.335 0 1 0 2.335 2.335 2.335 2.335 0 0 0-2.335-2.335z" class="cls-2" data-name="Path 9829" transform="translate(35.106 30.32)"/>
        <path id="Path_9830" d="M1011.935 467.792a2.334 2.334 0 1 0 2.335 2.335 2.334 2.334 0 0 0-2.335-2.335z" class="cls-2" data-name="Path 9830" transform="translate(35.106 26.911)"/>
        <path id="Path_9831" d="M1011.935 425.421a2.334 2.334 0 1 0 2.335 2.335 2.334 2.334 0 0 0-2.335-2.335z" class="cls-2" data-name="Path 9831" transform="translate(35.106 20.092)"/>
        <path id="Path_9832" d="M1011.935 404.235a2.335 2.335 0 1 0 2.335 2.335 2.334 2.334 0 0 0-2.335-2.335z" class="cls-2" data-name="Path 9832" transform="translate(35.106 16.683)"/>
        <path id="Path_9833" d="M1011.935 383.05a2.334 2.334 0 1 0 2.335 2.333 2.334 2.334 0 0 0-2.335-2.333z" class="cls-2" data-name="Path 9833" transform="translate(35.106 13.274)"/>
        <path id="Path_9834" d="M1011.935 531.349a2.334 2.334 0 1 0 2.335 2.333 2.334 2.334 0 0 0-2.335-2.333z" class="cls-2" data-name="Path 9834" transform="translate(35.106 37.139)"/>
        <path id="Path_9835" d="M1011.935 510.163a2.334 2.334 0 1 0 2.335 2.335 2.334 2.334 0 0 0-2.335-2.335z" class="cls-2" data-name="Path 9835" transform="translate(35.106 33.73)"/>
        <path id="Path_9836" d="M1011.935 552.535a2.334 2.334 0 1 0 2.335 2.333 2.334 2.334 0 0 0-2.335-2.333z" class="cls-2" data-name="Path 9836" transform="translate(35.106 40.548)"/>
        <path id="Path_9837" d="M1011.935 361.864a2.335 2.335 0 1 0 2.335 2.335 2.334 2.334 0 0 0-2.335-2.335z" class="cls-2" data-name="Path 9837" transform="translate(35.106 9.865)"/>
        <path id="Path_9838" d="M1011.935 446.607a2.334 2.334 0 1 0 2.335 2.333 2.334 2.334 0 0 0-2.335-2.333z" class="cls-2" data-name="Path 9838" transform="translate(35.106 23.502)"/>
        <path id="Path_9839" d="M1011.935 340.678a2.335 2.335 0 1 0 2.335 2.335 2.335 2.335 0 0 0-2.335-2.335z" class="cls-2" data-name="Path 9839" transform="translate(35.106 6.455)"/>
        <path id="Path_9840" d="M1011.935 319.493a2.334 2.334 0 1 0 2.335 2.335 2.334 2.334 0 0 0-2.335-2.335z" class="cls-2" data-name="Path 9840" transform="translate(35.106 3.046)"/>
        <path id="Path_9841" d="M1039.2 552.535a2.334 2.334 0 1 0 2.333 2.333 2.334 2.334 0 0 0-2.333-2.333z" class="cls-2" data-name="Path 9841" transform="translate(39.494 40.548)"/>
        <path id="Path_9842" d="M1039.2 467.792a2.334 2.334 0 1 0 2.333 2.335 2.334 2.334 0 0 0-2.333-2.335z" class="cls-2" data-name="Path 9842" transform="translate(39.494 26.911)"/>
        <path id="Path_9843" d="M1039.2 531.349a2.334 2.334 0 1 0 2.333 2.333 2.334 2.334 0 0 0-2.333-2.333z" class="cls-2" data-name="Path 9843" transform="translate(39.494 37.139)"/>
        <path id="Path_9844" d="M1039.2 488.977a2.335 2.335 0 1 0 2.333 2.335 2.335 2.335 0 0 0-2.333-2.335z" class="cls-2" data-name="Path 9844" transform="translate(39.494 30.32)"/>
        <path id="Path_9845" d="M1039.2 446.607a2.334 2.334 0 1 0 2.333 2.333 2.334 2.334 0 0 0-2.333-2.333z" class="cls-2" data-name="Path 9845" transform="translate(39.494 23.502)"/>
        <path id="Path_9846" d="M1039.2 510.163a2.334 2.334 0 1 0 2.333 2.335 2.334 2.334 0 0 0-2.333-2.335z" class="cls-2" data-name="Path 9846" transform="translate(39.494 33.73)"/>
        <path id="Path_9847" d="M1039.2 361.864a2.335 2.335 0 1 0 2.333 2.335 2.334 2.334 0 0 0-2.333-2.335z" class="cls-2" data-name="Path 9847" transform="translate(39.494 9.865)"/>
        <path id="Path_9848" d="M1039.2 319.493a2.334 2.334 0 1 0 2.333 2.335 2.334 2.334 0 0 0-2.333-2.335z" class="cls-2" data-name="Path 9848" transform="translate(39.494 3.046)"/>
        <path id="Path_9849" d="M1039.2 425.421a2.334 2.334 0 1 0 2.333 2.335 2.334 2.334 0 0 0-2.333-2.335z" class="cls-2" data-name="Path 9849" transform="translate(39.494 20.092)"/>
        <path id="Path_9850" d="M1039.2 340.678a2.335 2.335 0 1 0 2.333 2.335 2.335 2.335 0 0 0-2.333-2.335z" class="cls-2" data-name="Path 9850" transform="translate(39.494 6.455)"/>
        <path id="Path_9851" d="M1039.2 383.05a2.334 2.334 0 1 0 2.333 2.333 2.334 2.334 0 0 0-2.333-2.333z" class="cls-2" data-name="Path 9851" transform="translate(39.494 13.274)"/>
        <path id="Path_9852" d="M1039.2 404.235a2.335 2.335 0 1 0 2.333 2.335 2.334 2.334 0 0 0-2.333-2.335z" class="cls-2" data-name="Path 9852" transform="translate(39.494 16.683)"/>
        <path id="Path_9853" d="M1066.473 319.493a2.334 2.334 0 1 0 2.335 2.335 2.335 2.335 0 0 0-2.335-2.335z" class="cls-2" data-name="Path 9853" transform="translate(43.882 3.046)"/>
        <path id="Path_9854" d="M1066.473 383.05a2.334 2.334 0 1 0 2.335 2.333 2.335 2.335 0 0 0-2.335-2.333z" class="cls-2" data-name="Path 9854" transform="translate(43.882 13.274)"/>
        <path id="Path_9855" d="M1066.473 361.864a2.335 2.335 0 1 0 2.335 2.335 2.335 2.335 0 0 0-2.335-2.335z" class="cls-2" data-name="Path 9855" transform="translate(43.882 9.865)"/>
        <path id="Path_9856" d="M1066.473 340.678a2.335 2.335 0 1 0 2.335 2.335 2.336 2.336 0 0 0-2.335-2.335z" class="cls-2" data-name="Path 9856" transform="translate(43.882 6.455)"/>
        <path id="Path_9857" d="M1066.473 446.607a2.334 2.334 0 1 0 2.335 2.333 2.335 2.335 0 0 0-2.335-2.333z" class="cls-2" data-name="Path 9857" transform="translate(43.882 23.502)"/>
        <path id="Path_9858" d="M1066.473 552.535a2.334 2.334 0 1 0 2.335 2.333 2.335 2.335 0 0 0-2.335-2.333z" class="cls-2" data-name="Path 9858" transform="translate(43.882 40.548)"/>
        <path id="Path_9859" d="M1066.473 425.421a2.334 2.334 0 1 0 2.335 2.335 2.335 2.335 0 0 0-2.335-2.335z" class="cls-2" data-name="Path 9859" transform="translate(43.882 20.092)"/>
        <path id="Path_9860" d="M1066.473 404.235a2.335 2.335 0 1 0 2.335 2.335 2.335 2.335 0 0 0-2.335-2.335z" class="cls-2" data-name="Path 9860" transform="translate(43.882 16.683)"/>
        <path id="Path_9861" d="M1066.473 531.349a2.334 2.334 0 1 0 2.335 2.333 2.335 2.335 0 0 0-2.335-2.333z" class="cls-2" data-name="Path 9861" transform="translate(43.882 37.139)"/>
        <path id="Path_9862" d="M1066.473 510.163a2.334 2.334 0 1 0 2.335 2.335 2.335 2.335 0 0 0-2.335-2.335z" class="cls-2" data-name="Path 9862" transform="translate(43.882 33.73)"/>
        <path id="Path_9863" d="M1066.473 488.977a2.335 2.335 0 1 0 2.335 2.335 2.336 2.336 0 0 0-2.335-2.335z" class="cls-2" data-name="Path 9863" transform="translate(43.882 30.32)"/>
        <path id="Path_9864" d="M1066.473 467.792a2.334 2.334 0 1 0 2.335 2.335 2.335 2.335 0 0 0-2.335-2.335z" class="cls-2" data-name="Path 9864" transform="translate(43.882 26.911)"/>
        <path id="Path_9865" d="M1093.742 488.977a2.335 2.335 0 1 0 2.335 2.335 2.335 2.335 0 0 0-2.335-2.335z" class="cls-2" data-name="Path 9865" transform="translate(48.27 30.32)"/>
        <path id="Path_9866" d="M1093.742 446.607a2.334 2.334 0 1 0 2.335 2.333 2.334 2.334 0 0 0-2.335-2.333z" class="cls-2" data-name="Path 9866" transform="translate(48.27 23.502)"/>
        <path id="Path_9867" d="M1093.742 467.792a2.334 2.334 0 1 0 2.335 2.335 2.334 2.334 0 0 0-2.335-2.335z" class="cls-2" data-name="Path 9867" transform="translate(48.27 26.911)"/>
        <path id="Path_9868" d="M1093.742 404.235a2.335 2.335 0 1 0 2.335 2.335 2.334 2.334 0 0 0-2.335-2.335z" class="cls-2" data-name="Path 9868" transform="translate(48.27 16.683)"/>
        <path id="Path_9869" d="M1093.742 425.421a2.334 2.334 0 1 0 2.335 2.335 2.334 2.334 0 0 0-2.335-2.335z" class="cls-2" data-name="Path 9869" transform="translate(48.27 20.092)"/>
        <path id="Path_9870" d="M1093.742 383.05a2.334 2.334 0 1 0 2.335 2.333 2.334 2.334 0 0 0-2.335-2.333z" class="cls-2" data-name="Path 9870" transform="translate(48.27 13.274)"/>
        <path id="Path_9871" d="M1093.742 340.678a2.335 2.335 0 1 0 2.335 2.335 2.335 2.335 0 0 0-2.335-2.335z" class="cls-2" data-name="Path 9871" transform="translate(48.27 6.455)"/>
        <path id="Path_9872" d="M1093.742 323.883a2.327 2.327 0 0 0 1.66-.7 247.33 247.33 0 0 0-3.962-1.968 2.378 2.378 0 0 0-.033.33 2.334 2.334 0 0 0 2.335 2.338z" class="cls-2" data-name="Path 9872" transform="translate(48.27 3.324)"/>
        <path id="Path_9873" d="M1093.742 361.864a2.335 2.335 0 1 0 2.335 2.335 2.334 2.334 0 0 0-2.335-2.335z" class="cls-2" data-name="Path 9873" transform="translate(48.27 9.865)"/>
        <path id="Path_9874" d="M1093.742 510.163a2.334 2.334 0 1 0 2.335 2.335 2.334 2.334 0 0 0-2.335-2.335z" class="cls-2" data-name="Path 9874" transform="translate(48.27 33.73)"/>
        <path id="Path_9875" d="M1093.742 531.349a2.334 2.334 0 1 0 2.335 2.333 2.334 2.334 0 0 0-2.335-2.333z" class="cls-2" data-name="Path 9875" transform="translate(48.27 37.139)"/>
        <path id="Path_9876" d="M1093.742 552.535a2.334 2.334 0 1 0 2.335 2.333 2.334 2.334 0 0 0-2.335-2.333z" class="cls-2" data-name="Path 9876" transform="translate(48.27 40.548)"/>
        <path id="Path_9877" d="M1121.011 383.05a2.334 2.334 0 1 0 2.335 2.333 2.334 2.334 0 0 0-2.335-2.333z" class="cls-2" data-name="Path 9877" transform="translate(52.658 13.274)"/>
        <path id="Path_9878" d="M1121.011 552.535a2.334 2.334 0 1 0 2.335 2.333 2.334 2.334 0 0 0-2.335-2.333z" class="cls-2" data-name="Path 9878" transform="translate(52.658 40.548)"/>
        <path id="Path_9879" d="M1121.011 531.349a2.334 2.334 0 1 0 2.335 2.333 2.334 2.334 0 0 0-2.335-2.333z" class="cls-2" data-name="Path 9879" transform="translate(52.658 37.139)"/>
        <path id="Path_9880" d="M1121.011 425.421a2.334 2.334 0 1 0 2.335 2.335 2.334 2.334 0 0 0-2.335-2.335z" class="cls-2" data-name="Path 9880" transform="translate(52.658 20.092)"/>
        <path id="Path_9881" d="M1121.011 361.864a2.335 2.335 0 1 0 2.335 2.335 2.334 2.334 0 0 0-2.335-2.335z" class="cls-2" data-name="Path 9881" transform="translate(52.658 9.865)"/>
        <path id="Path_9882" d="M1121.011 510.163a2.334 2.334 0 1 0 2.335 2.335 2.334 2.334 0 0 0-2.335-2.335z" class="cls-2" data-name="Path 9882" transform="translate(52.658 33.73)"/>
        <path id="Path_9883" d="M1121.011 340.678a2.335 2.335 0 1 0 2.335 2.335 2.335 2.335 0 0 0-2.335-2.335z" class="cls-2" data-name="Path 9883" transform="translate(52.658 6.455)"/>
        <path id="Path_9884" d="M1121.011 404.235a2.335 2.335 0 1 0 2.335 2.335 2.334 2.334 0 0 0-2.335-2.335z" class="cls-2" data-name="Path 9884" transform="translate(52.658 16.683)"/>
        <path id="Path_9885" d="M1121.011 467.792a2.334 2.334 0 1 0 2.335 2.335 2.334 2.334 0 0 0-2.335-2.335z" class="cls-2" data-name="Path 9885" transform="translate(52.658 26.911)"/>
        <path id="Path_9886" d="M1121.011 446.607a2.334 2.334 0 1 0 2.335 2.333 2.334 2.334 0 0 0-2.335-2.333z" class="cls-2" data-name="Path 9886" transform="translate(52.658 23.502)"/>
        <path id="Path_9887" d="M1121.011 488.977a2.335 2.335 0 1 0 2.335 2.335 2.335 2.335 0 0 0-2.335-2.335z" class="cls-2" data-name="Path 9887" transform="translate(52.658 30.32)"/>
        <path id="Path_9888" d="M1148.28 488.977a2.335 2.335 0 1 0 2.334 2.335 2.335 2.335 0 0 0-2.334-2.335z" class="cls-2" data-name="Path 9888" transform="translate(57.047 30.32)"/>
        <path id="Path_9889" d="M1148.28 467.792a2.334 2.334 0 1 0 2.334 2.335 2.334 2.334 0 0 0-2.334-2.335z" class="cls-2" data-name="Path 9889" transform="translate(57.047 26.911)"/>
        <path id="Path_9890" d="M1148.28 404.235a2.335 2.335 0 1 0 2.334 2.335 2.334 2.334 0 0 0-2.334-2.335z" class="cls-2" data-name="Path 9890" transform="translate(57.047 16.683)"/>
        <path id="Path_9891" d="M1148.28 361.864a2.335 2.335 0 1 0 2.334 2.335 2.334 2.334 0 0 0-2.334-2.335z" class="cls-2" data-name="Path 9891" transform="translate(57.047 9.865)"/>
        <path id="Path_9892" d="M1148.28 383.05a2.334 2.334 0 1 0 2.334 2.333 2.334 2.334 0 0 0-2.334-2.333z" class="cls-2" data-name="Path 9892" transform="translate(57.047 13.274)"/>
        <path id="Path_9893" d="M1148.28 446.607a2.334 2.334 0 1 0 2.334 2.333 2.334 2.334 0 0 0-2.334-2.333z" class="cls-2" data-name="Path 9893" transform="translate(57.047 23.502)"/>
        <path id="Path_9894" d="M1148.28 552.535a2.334 2.334 0 1 0 2.334 2.333 2.334 2.334 0 0 0-2.334-2.333z" class="cls-2" data-name="Path 9894" transform="translate(57.047 40.548)"/>
        <path id="Path_9895" d="M1148.28 425.421a2.334 2.334 0 1 0 2.334 2.335 2.334 2.334 0 0 0-2.334-2.335z" class="cls-2" data-name="Path 9895" transform="translate(57.047 20.092)"/>
        <path id="Path_9896" d="M1148.28 531.349a2.334 2.334 0 1 0 2.334 2.333 2.334 2.334 0 0 0-2.334-2.333z" class="cls-2" data-name="Path 9896" transform="translate(57.047 37.139)"/>
        <path id="Path_9897" d="M1148.28 510.163a2.334 2.334 0 1 0 2.334 2.335 2.334 2.334 0 0 0-2.334-2.335z" class="cls-2" data-name="Path 9897" transform="translate(57.047 33.73)"/>
        <path id="Path_9898" d="M1175.549 446.607a2.334 2.334 0 1 0 2.333 2.333 2.335 2.335 0 0 0-2.333-2.333z" class="cls-2" data-name="Path 9898" transform="translate(61.435 23.502)"/>
        <path id="Path_9899" d="M1175.549 488.977a2.335 2.335 0 1 0 2.333 2.335 2.336 2.336 0 0 0-2.333-2.335z" class="cls-2" data-name="Path 9899" transform="translate(61.435 30.32)"/>
        <path id="Path_9900" d="M1175.549 552.535a2.334 2.334 0 1 0 2.333 2.333 2.335 2.335 0 0 0-2.333-2.333z" class="cls-2" data-name="Path 9900" transform="translate(61.435 40.548)"/>
        <path id="Path_9901" d="M1175.549 510.163a2.334 2.334 0 1 0 2.333 2.335 2.335 2.335 0 0 0-2.333-2.335z" class="cls-2" data-name="Path 9901" transform="translate(61.435 33.73)"/>
        <path id="Path_9902" d="M1175.549 404.235a2.335 2.335 0 1 0 2.333 2.335 2.335 2.335 0 0 0-2.333-2.335z" class="cls-2" data-name="Path 9902" transform="translate(61.435 16.683)"/>
        <path id="Path_9903" d="M1175.549 425.421a2.334 2.334 0 1 0 2.333 2.335 2.335 2.335 0 0 0-2.333-2.335z" class="cls-2" data-name="Path 9903" transform="translate(61.435 20.092)"/>
        <path id="Path_9904" d="M1175.549 467.792a2.334 2.334 0 1 0 2.333 2.335 2.335 2.335 0 0 0-2.333-2.335z" class="cls-2" data-name="Path 9904" transform="translate(61.435 26.911)"/>
        <path id="Path_9905" d="M1175.549 531.349a2.334 2.334 0 1 0 2.333 2.333 2.335 2.335 0 0 0-2.333-2.333z" class="cls-2" data-name="Path 9905" transform="translate(61.435 37.139)"/>
        <path id="Path_9906" d="M1202.818 488.977a2.335 2.335 0 1 0 2.333 2.335 2.335 2.335 0 0 0-2.333-2.335z" class="cls-2" data-name="Path 9906" transform="translate(65.823 30.32)"/>
        <path id="Path_9907" d="M1202.818 472.46a2.334 2.334 0 1 0-2.335-2.333 2.334 2.334 0 0 0 2.335 2.333z" class="cls-2" data-name="Path 9907" transform="translate(65.823 26.911)"/>
        <path id="Path_9908" d="M1202.818 510.163a2.334 2.334 0 1 0 2.333 2.335 2.334 2.334 0 0 0-2.333-2.335z" class="cls-2" data-name="Path 9908" transform="translate(65.823 33.73)"/>
        <path id="Path_9909" d="M1202.818 552.535a2.334 2.334 0 1 0 2.333 2.333 2.334 2.334 0 0 0-2.333-2.333z" class="cls-2" data-name="Path 9909" transform="translate(65.823 40.548)"/>
        <path id="Path_9910" d="M1202.818 531.349a2.334 2.334 0 1 0 2.333 2.333 2.334 2.334 0 0 0-2.333-2.333z" class="cls-2" data-name="Path 9910" transform="translate(65.823 37.139)"/>
        <path id="Path_9911" d="M1202.771 451.208a239.228 239.228 0 0 0-1.327-4.21 2.326 2.326 0 0 0 1.327 4.21z" class="cls-2" data-name="Path 9911" transform="translate(65.823 23.565)"/>
        <path id="Path_9912" d="M793.765 573.72a2.327 2.327 0 0 0-2.194 1.565c.158.786.323 1.57.488 2.352a2.332 2.332 0 1 0 1.707-3.917z" class="cls-2" data-name="Path 9912" transform="translate(.019 43.957)"/>
        <path id="Path_9913" d="M821.054 616.091a2.334 2.334 0 1 0 2.335 2.335 2.334 2.334 0 0 0-2.335-2.335z" class="cls-2" data-name="Path 9913" transform="translate(4.388 50.776)"/>
        <path id="Path_9914" d="M821.054 594.905a2.335 2.335 0 1 0 2.335 2.335 2.335 2.335 0 0 0-2.335-2.335z" class="cls-2" data-name="Path 9914" transform="translate(4.388 47.367)"/>
        <path id="Path_9915" d="M821.054 637.277a2.334 2.334 0 1 0 2.335 2.335 2.334 2.334 0 0 0-2.335-2.335z" class="cls-2" data-name="Path 9915" transform="translate(4.388 54.185)"/>
        <path id="Path_9916" d="M821.054 573.72a2.334 2.334 0 1 0 2.335 2.333 2.334 2.334 0 0 0-2.335-2.333z" class="cls-2" data-name="Path 9916" transform="translate(4.388 43.957)"/>
        <path id="Path_9917" d="M848.323 573.72a2.334 2.334 0 1 0 2.333 2.333 2.334 2.334 0 0 0-2.333-2.333z" class="cls-2" data-name="Path 9917" transform="translate(8.776 43.957)"/>
        <path id="Path_9918" d="M848.323 637.277a2.334 2.334 0 1 0 2.333 2.335 2.334 2.334 0 0 0-2.333-2.335z" class="cls-2" data-name="Path 9918" transform="translate(8.776 54.185)"/>
        <path id="Path_9919" d="M848.323 594.905a2.335 2.335 0 1 0 2.333 2.335 2.335 2.335 0 0 0-2.333-2.335z" class="cls-2" data-name="Path 9919" transform="translate(8.776 47.367)"/>
        <path id="Path_9920" d="M848.323 616.091a2.334 2.334 0 1 0 2.333 2.335 2.334 2.334 0 0 0-2.333-2.335z" class="cls-2" data-name="Path 9920" transform="translate(8.776 50.776)"/>
        <path id="Path_9921" d="M848.213 679.648a2.317 2.317 0 0 0-1.542.593 248.361 248.361 0 0 0 3.247 3.326 2.329 2.329 0 0 0-1.705-3.919z" class="cls-2" data-name="Path 9921" transform="translate(8.886 61.004)"/>
        <path id="Path_9922" d="M848.323 658.462a2.335 2.335 0 1 0 2.333 2.335 2.334 2.334 0 0 0-2.333-2.335z" class="cls-2" data-name="Path 9922" transform="translate(8.776 57.594)"/>
        <path id="Path_9923" d="M875.591 573.72a2.334 2.334 0 1 0 2.335 2.333 2.335 2.335 0 0 0-2.335-2.333z" class="cls-2" data-name="Path 9923" transform="translate(13.165 43.957)"/>
        <path id="Path_9924" d="M875.591 616.091a2.334 2.334 0 1 0 2.335 2.335 2.335 2.335 0 0 0-2.335-2.335z" class="cls-2" data-name="Path 9924" transform="translate(13.165 50.776)"/>
        <path id="Path_9925" d="M875.591 679.648a2.334 2.334 0 1 0 2.335 2.335 2.335 2.335 0 0 0-2.335-2.335z" class="cls-2" data-name="Path 9925" transform="translate(13.165 61.004)"/>
        <path id="Path_9926" d="M875.591 658.462a2.335 2.335 0 1 0 2.335 2.335 2.335 2.335 0 0 0-2.335-2.335z" class="cls-2" data-name="Path 9926" transform="translate(13.165 57.594)"/>
        <path id="Path_9927" d="M875.591 637.277a2.334 2.334 0 1 0 2.335 2.335 2.335 2.335 0 0 0-2.335-2.335z" class="cls-2" data-name="Path 9927" transform="translate(13.165 54.185)"/>
        <path id="Path_9928" d="M875.591 594.905a2.335 2.335 0 1 0 2.335 2.335 2.336 2.336 0 0 0-2.335-2.335z" class="cls-2" data-name="Path 9928" transform="translate(13.165 47.367)"/>
        <path id="Path_9929" d="M875.591 700.833a2.336 2.336 0 0 0-2.335 2.335 2.3 2.3 0 0 0 .224.983c.6.445 1.207.882 1.811 1.321a2.329 2.329 0 1 0 .3-4.639z" class="cls-2" data-name="Path 9929" transform="translate(13.165 64.413)"/>
        <path id="Path_9930" d="M902.861 637.277a2.334 2.334 0 1 0 2.333 2.335 2.335 2.335 0 0 0-2.333-2.335z" class="cls-2" data-name="Path 9930" transform="translate(17.553 54.185)"/>
        <path id="Path_9931" d="M902.861 658.462a2.335 2.335 0 1 0 2.333 2.335 2.335 2.335 0 0 0-2.333-2.335z" class="cls-2" data-name="Path 9931" transform="translate(17.553 57.594)"/>
        <path id="Path_9932" d="M902.861 616.091a2.334 2.334 0 1 0 2.333 2.335 2.335 2.335 0 0 0-2.333-2.335z" class="cls-2" data-name="Path 9932" transform="translate(17.553 50.776)"/>
        <path id="Path_9933" d="M902.861 573.72a2.334 2.334 0 1 0 2.333 2.333 2.335 2.335 0 0 0-2.333-2.333z" class="cls-2" data-name="Path 9933" transform="translate(17.553 43.957)"/>
        <path id="Path_9934" d="M902.861 594.905a2.335 2.335 0 1 0 2.333 2.335 2.336 2.336 0 0 0-2.333-2.335z" class="cls-2" data-name="Path 9934" transform="translate(17.553 47.367)"/>
        <path id="Path_9935" d="M902.861 679.648a2.334 2.334 0 1 0 2.333 2.335 2.335 2.335 0 0 0-2.333-2.335z" class="cls-2" data-name="Path 9935" transform="translate(17.553 61.004)"/>
        <path id="Path_9936" d="M902.861 700.833a2.335 2.335 0 1 0 2.333 2.335 2.336 2.336 0 0 0-2.333-2.335z" class="cls-2" data-name="Path 9936" transform="translate(17.553 64.413)"/>
        <path id="Path_9937" d="M930.13 573.72a2.334 2.334 0 1 0 2.333 2.333 2.335 2.335 0 0 0-2.333-2.333z" class="cls-2" data-name="Path 9937" transform="translate(21.941 43.957)"/>
        <path id="Path_9938" d="M930.13 594.905a2.335 2.335 0 1 0 2.333 2.335 2.336 2.336 0 0 0-2.333-2.335z" class="cls-2" data-name="Path 9938" transform="translate(21.941 47.367)"/>
        <path id="Path_9939" d="M930.13 679.648a2.334 2.334 0 1 0 2.333 2.335 2.335 2.335 0 0 0-2.333-2.335z" class="cls-2" data-name="Path 9939" transform="translate(21.941 61.004)"/>
        <path id="Path_9940" d="M930.13 722.019a2.334 2.334 0 1 0 2.333 2.335 2.335 2.335 0 0 0-2.333-2.335z" class="cls-2" data-name="Path 9940" transform="translate(21.941 67.822)"/>
        <path id="Path_9941" d="M930.13 700.833a2.335 2.335 0 1 0 2.333 2.335 2.336 2.336 0 0 0-2.333-2.335z" class="cls-2" data-name="Path 9941" transform="translate(21.941 64.413)"/>
        <path id="Path_9942" d="M930.13 616.091a2.334 2.334 0 1 0 2.333 2.335 2.335 2.335 0 0 0-2.333-2.335z" class="cls-2" data-name="Path 9942" transform="translate(21.941 50.776)"/>
        <path id="Path_9943" d="M930.13 658.462a2.335 2.335 0 1 0 2.333 2.335 2.335 2.335 0 0 0-2.333-2.335z" class="cls-2" data-name="Path 9943" transform="translate(21.941 57.594)"/>
        <path id="Path_9944" d="M930.13 637.277a2.334 2.334 0 1 0 2.333 2.335 2.335 2.335 0 0 0-2.333-2.335z" class="cls-2" data-name="Path 9944" transform="translate(21.941 54.185)"/>
        <path id="Path_9945" d="M957.4 573.72a2.334 2.334 0 1 0 2.335 2.333 2.334 2.334 0 0 0-2.335-2.333z" class="cls-2" data-name="Path 9945" transform="translate(26.329 43.957)"/>
        <path id="Path_9946" d="M957.4 594.905a2.335 2.335 0 1 0 2.335 2.335 2.335 2.335 0 0 0-2.335-2.335z" class="cls-2" data-name="Path 9946" transform="translate(26.329 47.367)"/>
        <path id="Path_9947" d="M957.4 722.019a2.334 2.334 0 1 0 2.335 2.335 2.334 2.334 0 0 0-2.335-2.335z" class="cls-2" data-name="Path 9947" transform="translate(26.329 67.822)"/>
        <path id="Path_9948" d="M957.4 616.091a2.334 2.334 0 1 0 2.335 2.335 2.334 2.334 0 0 0-2.335-2.335z" class="cls-2" data-name="Path 9948" transform="translate(26.329 50.776)"/>
        <path id="Path_9949" d="M957.4 658.462a2.335 2.335 0 1 0 2.335 2.335 2.334 2.334 0 0 0-2.335-2.335z" class="cls-2" data-name="Path 9949" transform="translate(26.329 57.594)"/>
        <path id="Path_9950" d="M957.4 679.648a2.334 2.334 0 1 0 2.335 2.335 2.334 2.334 0 0 0-2.335-2.335z" class="cls-2" data-name="Path 9950" transform="translate(26.329 61.004)"/>
        <path id="Path_9951" d="M957.4 637.277a2.334 2.334 0 1 0 2.335 2.335 2.334 2.334 0 0 0-2.335-2.335z" class="cls-2" data-name="Path 9951" transform="translate(26.329 54.185)"/>
        <path id="Path_9952" d="M957.4 700.833a2.335 2.335 0 1 0 2.335 2.335 2.335 2.335 0 0 0-2.335-2.335z" class="cls-2" data-name="Path 9952" transform="translate(26.329 64.413)"/>
        <path id="Path_9953" d="M984.646 743.2a2.3 2.3 0 0 0-2.186 1.542c1.484.117 2.973.212 4.465.3a2.325 2.325 0 0 0-2.279-1.846z" class="cls-2" data-name="Path 9953" transform="translate(30.738 71.231)"/>
        <path id="Path_9954" d="M984.667 573.72a2.334 2.334 0 1 0 2.333 2.333 2.335 2.335 0 0 0-2.333-2.333z" class="cls-2" data-name="Path 9954" transform="translate(30.717 43.957)"/>
        <path id="Path_9955" d="M984.667 722.019a2.334 2.334 0 1 0 2.333 2.335 2.335 2.335 0 0 0-2.333-2.335z" class="cls-2" data-name="Path 9955" transform="translate(30.717 67.822)"/>
        <path id="Path_9956" d="M984.667 700.833a2.335 2.335 0 1 0 2.333 2.335 2.336 2.336 0 0 0-2.333-2.335z" class="cls-2" data-name="Path 9956" transform="translate(30.717 64.413)"/>
        <path id="Path_9957" d="M984.667 658.462A2.335 2.335 0 1 0 987 660.8a2.335 2.335 0 0 0-2.333-2.338z" class="cls-2" data-name="Path 9957" transform="translate(30.717 57.594)"/>
        <path id="Path_9958" d="M984.667 637.277a2.334 2.334 0 1 0 2.333 2.335 2.335 2.335 0 0 0-2.333-2.335z" class="cls-2" data-name="Path 9958" transform="translate(30.717 54.185)"/>
        <path id="Path_9959" d="M984.667 616.091a2.334 2.334 0 1 0 2.333 2.335 2.335 2.335 0 0 0-2.333-2.335z" class="cls-2" data-name="Path 9959" transform="translate(30.717 50.776)"/>
        <path id="Path_9960" d="M984.667 594.905A2.335 2.335 0 1 0 987 597.24a2.336 2.336 0 0 0-2.333-2.335z" class="cls-2" data-name="Path 9960" transform="translate(30.717 47.367)"/>
        <path id="Path_9961" d="M984.667 679.648a2.334 2.334 0 1 0 2.333 2.335 2.335 2.335 0 0 0-2.333-2.335z" class="cls-2" data-name="Path 9961" transform="translate(30.717 61.004)"/>
        <path id="Path_9962" d="M1011.931 743.2a2.313 2.313 0 0 0-2.306 2.05c1.527-.072 3.047-.167 4.566-.266a2.312 2.312 0 0 0-2.26-1.784z" class="cls-2" data-name="Path 9962" transform="translate(35.11 71.231)"/>
        <path id="Path_9963" d="M1011.935 573.72a2.334 2.334 0 1 0 2.335 2.333 2.334 2.334 0 0 0-2.335-2.333z" class="cls-2" data-name="Path 9963" transform="translate(35.106 43.957)"/>
        <path id="Path_9964" d="M1011.935 616.091a2.334 2.334 0 1 0 2.335 2.335 2.334 2.334 0 0 0-2.335-2.335z" class="cls-2" data-name="Path 9964" transform="translate(35.106 50.776)"/>
        <path id="Path_9965" d="M1011.935 637.277a2.334 2.334 0 1 0 2.335 2.335 2.334 2.334 0 0 0-2.335-2.335z" class="cls-2" data-name="Path 9965" transform="translate(35.106 54.185)"/>
        <path id="Path_9966" d="M1011.935 658.462a2.335 2.335 0 1 0 2.335 2.335 2.334 2.334 0 0 0-2.335-2.335z" class="cls-2" data-name="Path 9966" transform="translate(35.106 57.594)"/>
        <path id="Path_9967" d="M1011.935 679.648a2.334 2.334 0 1 0 2.335 2.335 2.334 2.334 0 0 0-2.335-2.335z" class="cls-2" data-name="Path 9967" transform="translate(35.106 61.004)"/>
        <path id="Path_9968" d="M1011.935 594.905a2.335 2.335 0 1 0 2.335 2.335 2.335 2.335 0 0 0-2.335-2.335z" class="cls-2" data-name="Path 9968" transform="translate(35.106 47.367)"/>
        <path id="Path_9969" d="M1011.935 700.833a2.335 2.335 0 1 0 2.335 2.335 2.335 2.335 0 0 0-2.335-2.335z" class="cls-2" data-name="Path 9969" transform="translate(35.106 64.413)"/>
        <path id="Path_9970" d="M1011.935 722.019a2.334 2.334 0 1 0 2.335 2.335 2.334 2.334 0 0 0-2.335-2.335z" class="cls-2" data-name="Path 9970" transform="translate(35.106 67.822)"/>
        <path id="Path_9971" d="M1039.2 573.72a2.334 2.334 0 1 0 2.333 2.333 2.334 2.334 0 0 0-2.333-2.333z" class="cls-2" data-name="Path 9971" transform="translate(39.494 43.957)"/>
        <path id="Path_9972" d="M1039.2 594.905a2.335 2.335 0 1 0 2.333 2.335 2.335 2.335 0 0 0-2.333-2.335z" class="cls-2" data-name="Path 9972" transform="translate(39.494 47.367)"/>
        <path id="Path_9973" d="M1039.2 679.648a2.334 2.334 0 1 0 2.333 2.335 2.334 2.334 0 0 0-2.333-2.335z" class="cls-2" data-name="Path 9973" transform="translate(39.494 61.004)"/>
        <path id="Path_9974" d="M1039.2 722.019a2.334 2.334 0 1 0 2.333 2.335 2.334 2.334 0 0 0-2.333-2.335z" class="cls-2" data-name="Path 9974" transform="translate(39.494 67.822)"/>
        <path id="Path_9975" d="M1039.2 616.091a2.334 2.334 0 1 0 2.333 2.335 2.334 2.334 0 0 0-2.333-2.335z" class="cls-2" data-name="Path 9975" transform="translate(39.494 50.776)"/>
        <path id="Path_9976" d="M1039.2 700.833a2.335 2.335 0 1 0 2.333 2.335 2.335 2.335 0 0 0-2.333-2.335z" class="cls-2" data-name="Path 9976" transform="translate(39.494 64.413)"/>
        <path id="Path_9977" d="M1039.2 658.462a2.335 2.335 0 1 0 2.333 2.335 2.334 2.334 0 0 0-2.333-2.335z" class="cls-2" data-name="Path 9977" transform="translate(39.494 57.594)"/>
        <path id="Path_9978" d="M1039.2 637.277a2.334 2.334 0 1 0 2.333 2.335 2.334 2.334 0 0 0-2.333-2.335z" class="cls-2" data-name="Path 9978" transform="translate(39.494 54.185)"/>
        <path id="Path_9979" d="M1066.473 722.019a2.334 2.334 0 1 0 2.335 2.335 2.335 2.335 0 0 0-2.335-2.335z" class="cls-2" data-name="Path 9979" transform="translate(43.882 67.822)"/>
        <path id="Path_9980" d="M1066.473 658.462a2.335 2.335 0 1 0 2.335 2.335 2.335 2.335 0 0 0-2.335-2.335z" class="cls-2" data-name="Path 9980" transform="translate(43.882 57.594)"/>
        <path id="Path_9981" d="M1066.473 679.648a2.334 2.334 0 1 0 2.335 2.335 2.335 2.335 0 0 0-2.335-2.335z" class="cls-2" data-name="Path 9981" transform="translate(43.882 61.004)"/>
        <path id="Path_9982" d="M1066.473 700.833a2.335 2.335 0 1 0 2.335 2.335 2.336 2.336 0 0 0-2.335-2.335z" class="cls-2" data-name="Path 9982" transform="translate(43.882 64.413)"/>
        <path id="Path_9983" d="M1066.473 594.905a2.335 2.335 0 1 0 2.335 2.335 2.336 2.336 0 0 0-2.335-2.335z" class="cls-2" data-name="Path 9983" transform="translate(43.882 47.367)"/>
        <path id="Path_9984" d="M1066.473 616.091a2.334 2.334 0 1 0 2.335 2.335 2.335 2.335 0 0 0-2.335-2.335z" class="cls-2" data-name="Path 9984" transform="translate(43.882 50.776)"/>
        <path id="Path_9985" d="M1066.473 637.277a2.334 2.334 0 1 0 2.335 2.335 2.335 2.335 0 0 0-2.335-2.335z" class="cls-2" data-name="Path 9985" transform="translate(43.882 54.185)"/>
        <path id="Path_9986" d="M1066.473 573.72a2.334 2.334 0 1 0 2.335 2.333 2.335 2.335 0 0 0-2.335-2.333z" class="cls-2" data-name="Path 9986" transform="translate(43.882 43.957)"/>
        <path id="Path_9987" d="M1093.742 594.905a2.335 2.335 0 1 0 2.335 2.335 2.335 2.335 0 0 0-2.335-2.335z" class="cls-2" data-name="Path 9987" transform="translate(48.27 47.367)"/>
        <path id="Path_9988" d="M1093.742 573.72a2.334 2.334 0 1 0 2.335 2.333 2.334 2.334 0 0 0-2.335-2.333z" class="cls-2" data-name="Path 9988" transform="translate(48.27 43.957)"/>
        <path id="Path_9989" d="M1093.742 637.277a2.334 2.334 0 1 0 2.335 2.335 2.334 2.334 0 0 0-2.335-2.335z" class="cls-2" data-name="Path 9989" transform="translate(48.27 54.185)"/>
        <path id="Path_9990" d="M1093.742 616.091a2.334 2.334 0 1 0 2.335 2.335 2.334 2.334 0 0 0-2.335-2.335z" class="cls-2" data-name="Path 9990" transform="translate(48.27 50.776)"/>
        <path id="Path_9991" d="M1093.742 658.462a2.335 2.335 0 1 0 2.335 2.335 2.334 2.334 0 0 0-2.335-2.335z" class="cls-2" data-name="Path 9991" transform="translate(48.27 57.594)"/>
        <path id="Path_9992" d="M1093.742 700.833a2.335 2.335 0 1 0 2.335 2.335 2.335 2.335 0 0 0-2.335-2.335z" class="cls-2" data-name="Path 9992" transform="translate(48.27 64.413)"/>
        <path id="Path_9993" d="M1091.407 724.354a2.345 2.345 0 0 0 .033.328c1.33-.641 2.647-1.3 3.962-1.968a2.333 2.333 0 0 0-3.995 1.639z" class="cls-2" data-name="Path 9993" transform="translate(48.27 67.822)"/>
        <path id="Path_9994" d="M1093.742 679.648a2.334 2.334 0 1 0 2.335 2.335 2.334 2.334 0 0 0-2.335-2.335z" class="cls-2" data-name="Path 9994" transform="translate(48.27 61.004)"/>
        <path id="Path_9995" d="M1121.011 658.462a2.335 2.335 0 1 0 2.335 2.335 2.334 2.334 0 0 0-2.335-2.335z" class="cls-2" data-name="Path 9995" transform="translate(52.658 57.594)"/>
        <path id="Path_9996" d="M1121.011 616.091a2.334 2.334 0 1 0 2.335 2.335 2.334 2.334 0 0 0-2.335-2.335z" class="cls-2" data-name="Path 9996" transform="translate(52.658 50.776)"/>
        <path id="Path_9997" d="M1121.011 679.648a2.334 2.334 0 1 0 2.335 2.335 2.334 2.334 0 0 0-2.335-2.335z" class="cls-2" data-name="Path 9997" transform="translate(52.658 61.004)"/>
        <path id="Path_9998" d="M1121.011 700.833a2.335 2.335 0 1 0 2.335 2.335 2.335 2.335 0 0 0-2.335-2.335z" class="cls-2" data-name="Path 9998" transform="translate(52.658 64.413)"/>
        <path id="Path_9999" d="M1121.011 637.277a2.334 2.334 0 1 0 2.335 2.335 2.334 2.334 0 0 0-2.335-2.335z" class="cls-2" data-name="Path 9999" transform="translate(52.658 54.185)"/>
        <path id="Path_10000" d="M1121.011 573.72a2.334 2.334 0 1 0 2.335 2.333 2.334 2.334 0 0 0-2.335-2.333z" class="cls-2" data-name="Path 10000" transform="translate(52.658 43.957)"/>
        <path id="Path_10001" d="M1121.011 594.905a2.335 2.335 0 1 0 2.335 2.335 2.335 2.335 0 0 0-2.335-2.335z" class="cls-2" data-name="Path 10001" transform="translate(52.658 47.367)"/>
        <path id="Path_10002" d="M1148.28 573.72a2.334 2.334 0 1 0 2.334 2.333 2.334 2.334 0 0 0-2.334-2.333z" class="cls-2" data-name="Path 10002" transform="translate(57.047 43.957)"/>
        <path id="Path_10003" d="M1148.28 637.277a2.334 2.334 0 1 0 2.334 2.335 2.334 2.334 0 0 0-2.334-2.335z" class="cls-2" data-name="Path 10003" transform="translate(57.047 54.185)"/>
        <path id="Path_10004" d="M1148.28 679.648a2.334 2.334 0 1 0 2.334 2.335 2.334 2.334 0 0 0-2.334-2.335z" class="cls-2" data-name="Path 10004" transform="translate(57.047 61.004)"/>
        <path id="Path_10005" d="M1148.28 658.462a2.335 2.335 0 1 0 2.334 2.335 2.334 2.334 0 0 0-2.334-2.335z" class="cls-2" data-name="Path 10005" transform="translate(57.047 57.594)"/>
        <path id="Path_10006" d="M1148.28 594.905a2.335 2.335 0 1 0 2.334 2.335 2.335 2.335 0 0 0-2.334-2.335z" class="cls-2" data-name="Path 10006" transform="translate(57.047 47.367)"/>
        <path id="Path_10007" d="M1148.28 616.091a2.334 2.334 0 1 0 2.334 2.335 2.334 2.334 0 0 0-2.334-2.335z" class="cls-2" data-name="Path 10007" transform="translate(57.047 50.776)"/>
        <path id="Path_10008" d="M1175.549 594.905a2.335 2.335 0 1 0 2.333 2.335 2.336 2.336 0 0 0-2.333-2.335z" class="cls-2" data-name="Path 10008" transform="translate(61.435 47.367)"/>
        <path id="Path_10009" d="M1175.549 637.277a2.334 2.334 0 1 0 2.333 2.335 2.335 2.335 0 0 0-2.333-2.335z" class="cls-2" data-name="Path 10009" transform="translate(61.435 54.185)"/>
        <path id="Path_10010" d="M1175.549 616.091a2.334 2.334 0 1 0 2.333 2.335 2.335 2.335 0 0 0-2.333-2.335z" class="cls-2" data-name="Path 10010" transform="translate(61.435 50.776)"/>
        <path id="Path_10011" d="M1175.549 573.72a2.334 2.334 0 1 0 2.333 2.333 2.335 2.335 0 0 0-2.333-2.333z" class="cls-2" data-name="Path 10011" transform="translate(61.435 43.957)"/>
        <path id="Path_10012" d="M1202.818 573.72a2.334 2.334 0 1 0 2.333 2.333 2.334 2.334 0 0 0-2.333-2.333z" class="cls-2" data-name="Path 10012" transform="translate(65.823 43.957)"/>
        <path id="Path_10013" d="M1200.483 597.239a2.326 2.326 0 0 0 .961 1.881c.453-1.4.9-2.8 1.327-4.211a2.332 2.332 0 0 0-2.288 2.33z" class="cls-2" data-name="Path 10013" transform="translate(65.823 47.367)"/>
    </g>
</svg>
