<svg xmlns="http://www.w3.org/2000/svg" width="566.414" height="609.406" viewBox="0 0 566.414 609.406">
    <defs>
        <style>
            .cls-1{opacity:.4}.cls-2{fill:#e5e5e5}
        </style>
    </defs>
    <g id="dots_shape" class="cls-1" data-name="dots shape" transform="translate(-791.45 -300.564)">
        <path id="Path_12604" d="M794.208 531.349a2.757 2.757 0 1 0 2.758 2.756 2.758 2.758 0 0 0-2.758-2.756z" class="cls-2" data-name="Path 12604" transform="translate(0 85.686)"/>
        <path id="Path_12605" d="M794.208 510.163a2.757 2.757 0 1 0 2.758 2.758 2.758 2.758 0 0 0-2.758-2.758z" class="cls-2" data-name="Path 12605" transform="translate(0 77.82)"/>
        <path id="Path_12606" d="M794.163 467.792a2.746 2.746 0 0 0-2.016.887c-.195.926-.39 1.85-.576 2.78a2.753 2.753 0 1 0 2.592-3.667z" class="cls-2" data-name="Path 12606" transform="translate(.045 62.089)"/>
        <path id="Path_12607" d="M794.208 488.977a2.719 2.719 0 0 0-.62.077c-.049.011-.1.03-.144.044a2.742 2.742 0 0 0-.44.167q-.062.031-.12.066a2.738 2.738 0 0 0-.418.282c-.021.018-.042.034-.063.054a2.722 2.722 0 0 0 .053 4.182l.084.067a2.7 2.7 0 0 0 .7.391c.043.016.085.026.126.04a2.743 2.743 0 0 0 .838.145 2.758 2.758 0 1 0 0-5.515z" class="cls-2" data-name="Path 12607" transform="translate(0 69.954)"/>
        <path id="Path_12608" d="M794.208 552.535a2.742 2.742 0 0 0-.838.144c-.041.014-.084.023-.126.038a2.742 2.742 0 0 0-.7.392c-.029.022-.055.045-.084.069a2.722 2.722 0 0 0-.053 4.182l.063.052a2.69 2.69 0 0 0 .417.282c.04.023.08.047.121.066a2.867 2.867 0 0 0 .439.167c.049.014.1.033.145.045a2.8 2.8 0 0 0 .62.076 2.757 2.757 0 1 0 0-5.514z" class="cls-2" data-name="Path 12608" transform="translate(0 93.552)"/>
        <path id="Path_12609" d="M821.477 425.421a2.757 2.757 0 1 0 2.758 2.758 2.757 2.757 0 0 0-2.758-2.758z" class="cls-2" data-name="Path 12609" transform="translate(10.124 46.357)"/>
        <path id="Path_12610" d="M821.477 446.607a2.757 2.757 0 1 0 2.758 2.756 2.757 2.757 0 0 0-2.758-2.756z" class="cls-2" data-name="Path 12610" transform="translate(10.124 54.223)"/>
        <path id="Path_12611" d="M821.477 404.235a2.758 2.758 0 1 0 2.758 2.758 2.757 2.757 0 0 0-2.758-2.758z" class="cls-2" data-name="Path 12611" transform="translate(10.124 38.491)"/>
        <path id="Path_12612" d="M821.477 531.349a2.757 2.757 0 1 0 2.758 2.756 2.757 2.757 0 0 0-2.758-2.756z" class="cls-2" data-name="Path 12612" transform="translate(10.124 85.686)"/>
        <path id="Path_12613" d="M821.477 552.535a2.757 2.757 0 1 0 2.758 2.756 2.757 2.757 0 0 0-2.758-2.756z" class="cls-2" data-name="Path 12613" transform="translate(10.124 93.552)"/>
        <path id="Path_12614" d="M821.477 467.792a2.757 2.757 0 1 0 2.758 2.758 2.757 2.757 0 0 0-2.758-2.758z" class="cls-2" data-name="Path 12614" transform="translate(10.124 62.089)"/>
        <path id="Path_12615" d="M821.477 510.163a2.757 2.757 0 1 0 2.758 2.758 2.757 2.757 0 0 0-2.758-2.758z" class="cls-2" data-name="Path 12615" transform="translate(10.124 77.82)"/>
        <path id="Path_12616" d="M821.477 488.977a2.758 2.758 0 1 0 2.758 2.758 2.758 2.758 0 0 0-2.758-2.758z" class="cls-2" data-name="Path 12616" transform="translate(10.124 69.954)"/>
        <path id="Path_12617" d="M848.746 467.792a2.757 2.757 0 1 0 2.756 2.758 2.757 2.757 0 0 0-2.756-2.758z" class="cls-2" data-name="Path 12617" transform="translate(20.249 62.089)"/>
        <path id="Path_12618" d="M848.746 510.163a2.757 2.757 0 1 0 2.756 2.758 2.757 2.757 0 0 0-2.756-2.758z" class="cls-2" data-name="Path 12618" transform="translate(20.249 77.82)"/>
        <path id="Path_12619" d="M848.746 488.977a2.758 2.758 0 1 0 2.756 2.758 2.758 2.758 0 0 0-2.756-2.758z" class="cls-2" data-name="Path 12619" transform="translate(20.249 69.954)"/>
        <path id="Path_12620" d="M848.746 404.235a2.758 2.758 0 1 0 2.756 2.758 2.757 2.757 0 0 0-2.756-2.758z" class="cls-2" data-name="Path 12620" transform="translate(20.249 38.491)"/>
        <path id="Path_12621" d="M848.746 446.607a2.757 2.757 0 1 0 2.756 2.756 2.757 2.757 0 0 0-2.756-2.756z" class="cls-2" data-name="Path 12621" transform="translate(20.249 54.223)"/>
        <path id="Path_12622" d="M848.746 531.349a2.757 2.757 0 1 0 2.756 2.756 2.757 2.757 0 0 0-2.756-2.756z" class="cls-2" data-name="Path 12622" transform="translate(20.249 85.686)"/>
        <path id="Path_12623" d="M848.746 425.421a2.757 2.757 0 1 0 2.756 2.758 2.757 2.757 0 0 0-2.756-2.758z" class="cls-2" data-name="Path 12623" transform="translate(20.249 46.357)"/>
        <path id="Path_12624" d="M846.671 366.437a2.748 2.748 0 0 0 3.836-3.927 273.348 273.348 0 0 0-3.836 3.927z" class="cls-2" data-name="Path 12624" transform="translate(20.503 22.999)"/>
        <path id="Path_12625" d="M848.746 383.05a2.757 2.757 0 1 0 2.756 2.756 2.757 2.757 0 0 0-2.756-2.756z" class="cls-2" data-name="Path 12625" transform="translate(20.249 30.626)"/>
        <path id="Path_12626" d="M848.746 552.535a2.757 2.757 0 1 0 2.756 2.756 2.757 2.757 0 0 0-2.756-2.756z" class="cls-2" data-name="Path 12626" transform="translate(20.249 93.552)"/>
        <path id="Path_12627" d="M876.014 467.792a2.757 2.757 0 1 0 2.758 2.758 2.758 2.758 0 0 0-2.758-2.758z" class="cls-2" data-name="Path 12627" transform="translate(30.373 62.089)"/>
        <path id="Path_12628" d="M876.014 510.163a2.757 2.757 0 1 0 2.758 2.758 2.758 2.758 0 0 0-2.758-2.758z" class="cls-2" data-name="Path 12628" transform="translate(30.373 77.82)"/>
        <path id="Path_12629" d="M876.014 488.977a2.758 2.758 0 1 0 2.758 2.758 2.759 2.759 0 0 0-2.758-2.758z" class="cls-2" data-name="Path 12629" transform="translate(30.373 69.954)"/>
        <path id="Path_12630" d="M876.014 425.421a2.757 2.757 0 1 0 2.758 2.758 2.758 2.758 0 0 0-2.758-2.758z" class="cls-2" data-name="Path 12630" transform="translate(30.373 46.357)"/>
        <path id="Path_12631" d="M876.014 361.864a2.758 2.758 0 1 0 2.758 2.758 2.758 2.758 0 0 0-2.758-2.758z" class="cls-2" data-name="Path 12631" transform="translate(30.373 22.76)"/>
        <path id="Path_12632" d="M876.014 383.05a2.757 2.757 0 1 0 2.758 2.756 2.758 2.758 0 0 0-2.758-2.756z" class="cls-2" data-name="Path 12632" transform="translate(30.373 30.626)"/>
        <path id="Path_12633" d="M876.014 404.235a2.758 2.758 0 1 0 2.758 2.758 2.758 2.758 0 0 0-2.758-2.758z" class="cls-2" data-name="Path 12633" transform="translate(30.373 38.491)"/>
        <path id="Path_12634" d="M876.014 446.607a2.757 2.757 0 1 0 2.758 2.756 2.758 2.758 0 0 0-2.758-2.756z" class="cls-2" data-name="Path 12634" transform="translate(30.373 54.223)"/>
        <path id="Path_12635" d="M876.014 552.535a2.757 2.757 0 1 0 2.758 2.756 2.758 2.758 0 0 0-2.758-2.756z" class="cls-2" data-name="Path 12635" transform="translate(30.373 93.552)"/>
        <path id="Path_12636" d="M876.014 531.349a2.757 2.757 0 1 0 2.758 2.756 2.758 2.758 0 0 0-2.758-2.756z" class="cls-2" data-name="Path 12636" transform="translate(30.373 85.686)"/>
        <path id="Path_12637" d="M876.014 340.678a2.753 2.753 0 0 0-.354.036c-.713.52-1.43 1.035-2.139 1.561a2.727 2.727 0 0 0-.265 1.161 2.758 2.758 0 1 0 2.758-2.758z" class="cls-2" data-name="Path 12637" transform="translate(30.373 14.894)"/>
        <path id="Path_12638" d="M903.284 552.535a2.757 2.757 0 1 0 2.756 2.756 2.758 2.758 0 0 0-2.756-2.756z" class="cls-2" data-name="Path 12638" transform="translate(40.497 93.552)"/>
        <path id="Path_12639" d="M903.284 531.349a2.757 2.757 0 1 0 2.756 2.756 2.758 2.758 0 0 0-2.756-2.756z" class="cls-2" data-name="Path 12639" transform="translate(40.497 85.686)"/>
        <path id="Path_12640" d="M903.284 404.235a2.758 2.758 0 1 0 2.756 2.758 2.758 2.758 0 0 0-2.756-2.758z" class="cls-2" data-name="Path 12640" transform="translate(40.497 38.491)"/>
        <path id="Path_12641" d="M903.284 383.05a2.757 2.757 0 1 0 2.756 2.756 2.758 2.758 0 0 0-2.756-2.756z" class="cls-2" data-name="Path 12641" transform="translate(40.497 30.626)"/>
        <path id="Path_12642" d="M903.284 425.421a2.757 2.757 0 1 0 2.756 2.758 2.758 2.758 0 0 0-2.756-2.758z" class="cls-2" data-name="Path 12642" transform="translate(40.497 46.357)"/>
        <path id="Path_12643" d="M903.284 510.163a2.757 2.757 0 1 0 2.756 2.758 2.758 2.758 0 0 0-2.756-2.758z" class="cls-2" data-name="Path 12643" transform="translate(40.497 77.82)"/>
        <path id="Path_12644" d="M903.284 488.977a2.758 2.758 0 1 0 2.756 2.758 2.759 2.759 0 0 0-2.756-2.758z" class="cls-2" data-name="Path 12644" transform="translate(40.497 69.954)"/>
        <path id="Path_12645" d="M903.284 467.792a2.757 2.757 0 1 0 2.756 2.758 2.758 2.758 0 0 0-2.756-2.758z" class="cls-2" data-name="Path 12645" transform="translate(40.497 62.089)"/>
        <path id="Path_12646" d="M903.284 446.607a2.757 2.757 0 1 0 2.756 2.756 2.758 2.758 0 0 0-2.756-2.756z" class="cls-2" data-name="Path 12646" transform="translate(40.497 54.223)"/>
        <path id="Path_12647" d="M903.284 361.864a2.758 2.758 0 1 0 2.756 2.758 2.758 2.758 0 0 0-2.756-2.758z" class="cls-2" data-name="Path 12647" transform="translate(40.497 22.76)"/>
        <path id="Path_12648" d="M903.284 340.678a2.758 2.758 0 1 0 2.756 2.758 2.759 2.759 0 0 0-2.756-2.758z" class="cls-2" data-name="Path 12648" transform="translate(40.497 14.894)"/>
        <path id="Path_12649" d="M930.553 531.349a2.757 2.757 0 1 0 2.756 2.756 2.758 2.758 0 0 0-2.756-2.756z" class="cls-2" data-name="Path 12649" transform="translate(50.622 85.686)"/>
        <path id="Path_12650" d="M930.553 510.163a2.757 2.757 0 1 0 2.756 2.758 2.758 2.758 0 0 0-2.756-2.758z" class="cls-2" data-name="Path 12650" transform="translate(50.622 77.82)"/>
        <path id="Path_12651" d="M930.553 552.535a2.757 2.757 0 1 0 2.756 2.756 2.758 2.758 0 0 0-2.756-2.756z" class="cls-2" data-name="Path 12651" transform="translate(50.622 93.552)"/>
        <path id="Path_12652" d="M930.553 467.792a2.757 2.757 0 1 0 2.756 2.758 2.758 2.758 0 0 0-2.756-2.758z" class="cls-2" data-name="Path 12652" transform="translate(50.622 62.089)"/>
        <path id="Path_12653" d="M930.553 488.977a2.758 2.758 0 1 0 2.756 2.758 2.759 2.759 0 0 0-2.756-2.758z" class="cls-2" data-name="Path 12653" transform="translate(50.622 69.954)"/>
        <path id="Path_12654" d="M930.553 446.607a2.757 2.757 0 1 0 2.756 2.756 2.758 2.758 0 0 0-2.756-2.756z" class="cls-2" data-name="Path 12654" transform="translate(50.622 54.223)"/>
        <path id="Path_12655" d="M930.553 361.864a2.758 2.758 0 1 0 2.756 2.758 2.758 2.758 0 0 0-2.756-2.758z" class="cls-2" data-name="Path 12655" transform="translate(50.622 22.76)"/>
        <path id="Path_12656" d="M930.553 319.493a2.757 2.757 0 1 0 2.756 2.758 2.758 2.758 0 0 0-2.756-2.758z" class="cls-2" data-name="Path 12656" transform="translate(50.622 7.028)"/>
        <path id="Path_12657" d="M930.553 340.678a2.758 2.758 0 1 0 2.756 2.758 2.759 2.759 0 0 0-2.756-2.758z" class="cls-2" data-name="Path 12657" transform="translate(50.622 14.894)"/>
        <path id="Path_12658" d="M930.553 425.421a2.757 2.757 0 1 0 2.756 2.758 2.758 2.758 0 0 0-2.756-2.758z" class="cls-2" data-name="Path 12658" transform="translate(50.622 46.357)"/>
        <path id="Path_12659" d="M930.553 383.05a2.757 2.757 0 1 0 2.756 2.756 2.758 2.758 0 0 0-2.756-2.756z" class="cls-2" data-name="Path 12659" transform="translate(50.622 30.626)"/>
        <path id="Path_12660" d="M930.553 404.235a2.758 2.758 0 1 0 2.756 2.758 2.758 2.758 0 0 0-2.756-2.758z" class="cls-2" data-name="Path 12660" transform="translate(50.622 38.491)"/>
        <path id="Path_12661" d="M957.821 467.792a2.757 2.757 0 1 0 2.758 2.758 2.757 2.757 0 0 0-2.758-2.758z" class="cls-2" data-name="Path 12661" transform="translate(60.747 62.089)"/>
        <path id="Path_12662" d="M957.821 446.607a2.757 2.757 0 1 0 2.758 2.756 2.757 2.757 0 0 0-2.758-2.756z" class="cls-2" data-name="Path 12662" transform="translate(60.747 54.223)"/>
        <path id="Path_12663" d="M957.821 319.493a2.757 2.757 0 1 0 2.758 2.758 2.757 2.757 0 0 0-2.758-2.758z" class="cls-2" data-name="Path 12663" transform="translate(60.747 7.028)"/>
        <path id="Path_12664" d="M957.821 425.421a2.757 2.757 0 1 0 2.758 2.758 2.757 2.757 0 0 0-2.758-2.758z" class="cls-2" data-name="Path 12664" transform="translate(60.747 46.357)"/>
        <path id="Path_12665" d="M957.821 510.163a2.757 2.757 0 1 0 2.758 2.758 2.757 2.757 0 0 0-2.758-2.758z" class="cls-2" data-name="Path 12665" transform="translate(60.747 77.82)"/>
        <path id="Path_12666" d="M957.821 383.05a2.757 2.757 0 1 0 2.758 2.756 2.757 2.757 0 0 0-2.758-2.756z" class="cls-2" data-name="Path 12666" transform="translate(60.747 30.626)"/>
        <path id="Path_12667" d="M957.821 361.864a2.758 2.758 0 1 0 2.758 2.758 2.757 2.757 0 0 0-2.758-2.758z" class="cls-2" data-name="Path 12667" transform="translate(60.747 22.76)"/>
        <path id="Path_12668" d="M957.821 404.235a2.758 2.758 0 1 0 2.758 2.758 2.757 2.757 0 0 0-2.758-2.758z" class="cls-2" data-name="Path 12668" transform="translate(60.747 38.491)"/>
        <path id="Path_12669" d="M957.821 531.349a2.757 2.757 0 1 0 2.758 2.756 2.757 2.757 0 0 0-2.758-2.756z" class="cls-2" data-name="Path 12669" transform="translate(60.747 85.686)"/>
        <path id="Path_12670" d="M957.821 488.977a2.758 2.758 0 1 0 2.758 2.758 2.758 2.758 0 0 0-2.758-2.758z" class="cls-2" data-name="Path 12670" transform="translate(60.747 69.954)"/>
        <path id="Path_12671" d="M957.821 552.535a2.757 2.757 0 1 0 2.758 2.756 2.757 2.757 0 0 0-2.758-2.756z" class="cls-2" data-name="Path 12671" transform="translate(60.747 93.552)"/>
        <path id="Path_12672" d="M957.821 340.678a2.758 2.758 0 1 0 2.758 2.758 2.758 2.758 0 0 0-2.758-2.758z" class="cls-2" data-name="Path 12672" transform="translate(60.747 14.894)"/>
        <path id="Path_12673" d="M985.042 302.919a2.747 2.747 0 0 0 2.692-2.179c-1.762.108-3.521.219-5.274.359a2.72 2.72 0 0 0 2.582 1.82z" class="cls-2" data-name="Path 12673" transform="translate(70.919 .065)"/>
        <path id="Path_12674" d="M985.09 510.163a2.757 2.757 0 1 0 2.758 2.758 2.758 2.758 0 0 0-2.758-2.758z" class="cls-2" data-name="Path 12674" transform="translate(70.871 77.82)"/>
        <path id="Path_12675" d="M985.09 488.977a2.758 2.758 0 1 0 2.758 2.758 2.759 2.759 0 0 0-2.758-2.758z" class="cls-2" data-name="Path 12675" transform="translate(70.871 69.954)"/>
        <path id="Path_12676" d="M985.09 467.792a2.757 2.757 0 1 0 2.758 2.758 2.758 2.758 0 0 0-2.758-2.758z" class="cls-2" data-name="Path 12676" transform="translate(70.871 62.089)"/>
        <path id="Path_12677" d="M985.09 531.349a2.757 2.757 0 1 0 2.758 2.756 2.758 2.758 0 0 0-2.758-2.756z" class="cls-2" data-name="Path 12677" transform="translate(70.871 85.686)"/>
        <path id="Path_12678" d="M985.09 552.535a2.757 2.757 0 1 0 2.758 2.756 2.758 2.758 0 0 0-2.758-2.756z" class="cls-2" data-name="Path 12678" transform="translate(70.871 93.552)"/>
        <path id="Path_12679" d="M985.09 319.493a2.757 2.757 0 1 0 2.758 2.758 2.758 2.758 0 0 0-2.758-2.758z" class="cls-2" data-name="Path 12679" transform="translate(70.871 7.028)"/>
        <path id="Path_12680" d="M985.09 340.678a2.758 2.758 0 1 0 2.758 2.758 2.759 2.759 0 0 0-2.758-2.758z" class="cls-2" data-name="Path 12680" transform="translate(70.871 14.894)"/>
        <path id="Path_12681" d="M985.09 383.05a2.757 2.757 0 1 0 2.758 2.756 2.758 2.758 0 0 0-2.758-2.756z" class="cls-2" data-name="Path 12681" transform="translate(70.871 30.626)"/>
        <path id="Path_12682" d="M985.09 404.235a2.758 2.758 0 1 0 2.758 2.758 2.758 2.758 0 0 0-2.758-2.758z" class="cls-2" data-name="Path 12682" transform="translate(70.871 38.491)"/>
        <path id="Path_12683" d="M985.09 425.421a2.757 2.757 0 1 0 2.758 2.758 2.758 2.758 0 0 0-2.758-2.758z" class="cls-2" data-name="Path 12683" transform="translate(70.871 46.357)"/>
        <path id="Path_12684" d="M985.09 446.607a2.757 2.757 0 1 0 2.758 2.756 2.758 2.758 0 0 0-2.758-2.756z" class="cls-2" data-name="Path 12684" transform="translate(70.871 54.223)"/>
        <path id="Path_12685" d="M985.09 361.864a2.758 2.758 0 1 0 2.758 2.758 2.758 2.758 0 0 0-2.758-2.758z" class="cls-2" data-name="Path 12685" transform="translate(70.871 22.76)"/>
        <path id="Path_12686" d="M1012.349 302.984a2.732 2.732 0 0 0 2.67-2.106 282.25 282.25 0 0 0-5.393-.314 2.732 2.732 0 0 0 2.723 2.42z" class="cls-2" data-name="Path 12686" transform="translate(81.004)"/>
        <path id="Path_12687" d="M1012.357 488.977a2.758 2.758 0 1 0 2.758 2.758 2.758 2.758 0 0 0-2.758-2.758z" class="cls-2" data-name="Path 12687" transform="translate(80.995 69.954)"/>
        <path id="Path_12688" d="M1012.357 467.792a2.757 2.757 0 1 0 2.758 2.758 2.757 2.757 0 0 0-2.758-2.758z" class="cls-2" data-name="Path 12688" transform="translate(80.995 62.089)"/>
        <path id="Path_12689" d="M1012.357 425.421a2.757 2.757 0 1 0 2.758 2.758 2.757 2.757 0 0 0-2.758-2.758z" class="cls-2" data-name="Path 12689" transform="translate(80.995 46.357)"/>
        <path id="Path_12690" d="M1012.357 404.235a2.758 2.758 0 1 0 2.758 2.758 2.757 2.757 0 0 0-2.758-2.758z" class="cls-2" data-name="Path 12690" transform="translate(80.995 38.491)"/>
        <path id="Path_12691" d="M1012.357 383.05a2.757 2.757 0 1 0 2.758 2.756 2.756 2.756 0 0 0-2.758-2.756z" class="cls-2" data-name="Path 12691" transform="translate(80.995 30.626)"/>
        <path id="Path_12692" d="M1012.357 531.349a2.757 2.757 0 1 0 2.758 2.756 2.756 2.756 0 0 0-2.758-2.756z" class="cls-2" data-name="Path 12692" transform="translate(80.995 85.686)"/>
        <path id="Path_12693" d="M1012.357 510.163a2.757 2.757 0 1 0 2.758 2.758 2.757 2.757 0 0 0-2.758-2.758z" class="cls-2" data-name="Path 12693" transform="translate(80.995 77.82)"/>
        <path id="Path_12694" d="M1012.357 552.535a2.757 2.757 0 1 0 2.758 2.756 2.756 2.756 0 0 0-2.758-2.756z" class="cls-2" data-name="Path 12694" transform="translate(80.995 93.552)"/>
        <path id="Path_12695" d="M1012.357 361.864a2.758 2.758 0 1 0 2.758 2.758 2.757 2.757 0 0 0-2.758-2.758z" class="cls-2" data-name="Path 12695" transform="translate(80.995 22.76)"/>
        <path id="Path_12696" d="M1012.357 446.607a2.757 2.757 0 1 0 2.758 2.756 2.756 2.756 0 0 0-2.758-2.756z" class="cls-2" data-name="Path 12696" transform="translate(80.995 54.223)"/>
        <path id="Path_12697" d="M1012.357 340.678a2.758 2.758 0 1 0 2.758 2.758 2.758 2.758 0 0 0-2.758-2.758z" class="cls-2" data-name="Path 12697" transform="translate(80.995 14.894)"/>
        <path id="Path_12698" d="M1012.357 319.493a2.757 2.757 0 1 0 2.758 2.758 2.757 2.757 0 0 0-2.758-2.758z" class="cls-2" data-name="Path 12698" transform="translate(80.995 7.028)"/>
        <path id="Path_12699" d="M1039.628 552.535a2.757 2.757 0 1 0 2.756 2.756 2.757 2.757 0 0 0-2.756-2.756z" class="cls-2" data-name="Path 12699" transform="translate(91.12 93.552)"/>
        <path id="Path_12700" d="M1039.628 467.792a2.757 2.757 0 1 0 2.756 2.758 2.757 2.757 0 0 0-2.756-2.758z" class="cls-2" data-name="Path 12700" transform="translate(91.12 62.089)"/>
        <path id="Path_12701" d="M1039.628 531.349a2.757 2.757 0 1 0 2.756 2.756 2.757 2.757 0 0 0-2.756-2.756z" class="cls-2" data-name="Path 12701" transform="translate(91.12 85.686)"/>
        <path id="Path_12702" d="M1039.628 488.977a2.758 2.758 0 1 0 2.756 2.758 2.758 2.758 0 0 0-2.756-2.758z" class="cls-2" data-name="Path 12702" transform="translate(91.12 69.954)"/>
        <path id="Path_12703" d="M1039.628 446.607a2.757 2.757 0 1 0 2.756 2.756 2.757 2.757 0 0 0-2.756-2.756z" class="cls-2" data-name="Path 12703" transform="translate(91.12 54.223)"/>
        <path id="Path_12704" d="M1039.628 510.163a2.757 2.757 0 1 0 2.756 2.758 2.757 2.757 0 0 0-2.756-2.758z" class="cls-2" data-name="Path 12704" transform="translate(91.12 77.82)"/>
        <path id="Path_12705" d="M1039.628 361.864a2.758 2.758 0 1 0 2.756 2.758 2.757 2.757 0 0 0-2.756-2.758z" class="cls-2" data-name="Path 12705" transform="translate(91.12 22.76)"/>
        <path id="Path_12706" d="M1039.628 319.493a2.757 2.757 0 1 0 2.756 2.758 2.757 2.757 0 0 0-2.756-2.758z" class="cls-2" data-name="Path 12706" transform="translate(91.12 7.028)"/>
        <path id="Path_12707" d="M1039.628 425.421a2.757 2.757 0 1 0 2.756 2.758 2.757 2.757 0 0 0-2.756-2.758z" class="cls-2" data-name="Path 12707" transform="translate(91.12 46.357)"/>
        <path id="Path_12708" d="M1039.628 340.678a2.758 2.758 0 1 0 2.756 2.758 2.758 2.758 0 0 0-2.756-2.758z" class="cls-2" data-name="Path 12708" transform="translate(91.12 14.894)"/>
        <path id="Path_12709" d="M1039.628 383.05a2.757 2.757 0 1 0 2.756 2.756 2.757 2.757 0 0 0-2.756-2.756z" class="cls-2" data-name="Path 12709" transform="translate(91.12 30.626)"/>
        <path id="Path_12710" d="M1039.628 404.235a2.758 2.758 0 1 0 2.756 2.758 2.757 2.757 0 0 0-2.756-2.758z" class="cls-2" data-name="Path 12710" transform="translate(91.12 38.491)"/>
        <path id="Path_12711" d="M1066.9 319.493a2.757 2.757 0 1 0 2.758 2.758 2.758 2.758 0 0 0-2.758-2.758z" class="cls-2" data-name="Path 12711" transform="translate(101.244 7.028)"/>
        <path id="Path_12712" d="M1066.9 383.05a2.757 2.757 0 1 0 2.758 2.756 2.758 2.758 0 0 0-2.758-2.756z" class="cls-2" data-name="Path 12712" transform="translate(101.244 30.626)"/>
        <path id="Path_12713" d="M1066.9 361.864a2.758 2.758 0 1 0 2.758 2.758 2.758 2.758 0 0 0-2.758-2.758z" class="cls-2" data-name="Path 12713" transform="translate(101.244 22.76)"/>
        <path id="Path_12714" d="M1066.9 340.678a2.758 2.758 0 1 0 2.758 2.758 2.759 2.759 0 0 0-2.758-2.758z" class="cls-2" data-name="Path 12714" transform="translate(101.244 14.894)"/>
        <path id="Path_12715" d="M1066.9 446.607a2.757 2.757 0 1 0 2.758 2.756 2.758 2.758 0 0 0-2.758-2.756z" class="cls-2" data-name="Path 12715" transform="translate(101.244 54.223)"/>
        <path id="Path_12716" d="M1066.9 552.535a2.757 2.757 0 1 0 2.758 2.756 2.758 2.758 0 0 0-2.758-2.756z" class="cls-2" data-name="Path 12716" transform="translate(101.244 93.552)"/>
        <path id="Path_12717" d="M1066.9 425.421a2.757 2.757 0 1 0 2.758 2.758 2.758 2.758 0 0 0-2.758-2.758z" class="cls-2" data-name="Path 12717" transform="translate(101.244 46.357)"/>
        <path id="Path_12718" d="M1066.9 404.235a2.758 2.758 0 1 0 2.758 2.758 2.758 2.758 0 0 0-2.758-2.758z" class="cls-2" data-name="Path 12718" transform="translate(101.244 38.491)"/>
        <path id="Path_12719" d="M1066.9 531.349a2.757 2.757 0 1 0 2.758 2.756 2.758 2.758 0 0 0-2.758-2.756z" class="cls-2" data-name="Path 12719" transform="translate(101.244 85.686)"/>
        <path id="Path_12720" d="M1066.9 510.163a2.757 2.757 0 1 0 2.758 2.758 2.758 2.758 0 0 0-2.758-2.758z" class="cls-2" data-name="Path 12720" transform="translate(101.244 77.82)"/>
        <path id="Path_12721" d="M1066.9 488.977a2.758 2.758 0 1 0 2.758 2.758 2.759 2.759 0 0 0-2.758-2.758z" class="cls-2" data-name="Path 12721" transform="translate(101.244 69.954)"/>
        <path id="Path_12722" d="M1066.9 467.792a2.757 2.757 0 1 0 2.758 2.758 2.758 2.758 0 0 0-2.758-2.758z" class="cls-2" data-name="Path 12722" transform="translate(101.244 62.089)"/>
        <path id="Path_12723" d="M1094.165 488.977a2.758 2.758 0 1 0 2.758 2.758 2.758 2.758 0 0 0-2.758-2.758z" class="cls-2" data-name="Path 12723" transform="translate(111.369 69.954)"/>
        <path id="Path_12724" d="M1094.165 446.607a2.757 2.757 0 1 0 2.758 2.756 2.757 2.757 0 0 0-2.758-2.756z" class="cls-2" data-name="Path 12724" transform="translate(111.369 54.223)"/>
        <path id="Path_12725" d="M1094.165 467.792a2.757 2.757 0 1 0 2.758 2.758 2.757 2.757 0 0 0-2.758-2.758z" class="cls-2" data-name="Path 12725" transform="translate(111.369 62.089)"/>
        <path id="Path_12726" d="M1094.165 404.235a2.758 2.758 0 1 0 2.758 2.758 2.757 2.757 0 0 0-2.758-2.758z" class="cls-2" data-name="Path 12726" transform="translate(111.369 38.491)"/>
        <path id="Path_12727" d="M1094.165 425.421a2.757 2.757 0 1 0 2.758 2.758 2.757 2.757 0 0 0-2.758-2.758z" class="cls-2" data-name="Path 12727" transform="translate(111.369 46.357)"/>
        <path id="Path_12728" d="M1094.165 383.05a2.757 2.757 0 1 0 2.758 2.756 2.757 2.757 0 0 0-2.758-2.756z" class="cls-2" data-name="Path 12728" transform="translate(111.369 30.626)"/>
        <path id="Path_12729" d="M1094.165 340.678a2.758 2.758 0 1 0 2.758 2.758 2.758 2.758 0 0 0-2.758-2.758z" class="cls-2" data-name="Path 12729" transform="translate(111.369 14.894)"/>
        <path id="Path_12730" d="M1094.165 324.366a2.749 2.749 0 0 0 1.961-.821c-1.554-.783-3.109-1.567-4.68-2.324a2.8 2.8 0 0 0-.039.389 2.757 2.757 0 0 0 2.758 2.756z" class="cls-2" data-name="Path 12730" transform="translate(111.369 7.669)"/>
        <path id="Path_12731" d="M1094.165 361.864a2.758 2.758 0 1 0 2.758 2.758 2.757 2.757 0 0 0-2.758-2.758z" class="cls-2" data-name="Path 12731" transform="translate(111.369 22.76)"/>
        <path id="Path_12732" d="M1094.165 510.163a2.757 2.757 0 1 0 2.758 2.758 2.757 2.757 0 0 0-2.758-2.758z" class="cls-2" data-name="Path 12732" transform="translate(111.369 77.82)"/>
        <path id="Path_12733" d="M1094.165 531.349a2.757 2.757 0 1 0 2.758 2.756 2.757 2.757 0 0 0-2.758-2.756z" class="cls-2" data-name="Path 12733" transform="translate(111.369 85.686)"/>
        <path id="Path_12734" d="M1094.165 552.535a2.757 2.757 0 1 0 2.758 2.756 2.757 2.757 0 0 0-2.758-2.756z" class="cls-2" data-name="Path 12734" transform="translate(111.369 93.552)"/>
        <path id="Path_12735" d="M1121.434 383.05a2.757 2.757 0 1 0 2.758 2.756 2.757 2.757 0 0 0-2.758-2.756z" class="cls-2" data-name="Path 12735" transform="translate(121.493 30.626)"/>
        <path id="Path_12736" d="M1121.434 552.535a2.757 2.757 0 1 0 2.758 2.756 2.757 2.757 0 0 0-2.758-2.756z" class="cls-2" data-name="Path 12736" transform="translate(121.493 93.552)"/>
        <path id="Path_12737" d="M1121.434 531.349a2.757 2.757 0 1 0 2.758 2.756 2.757 2.757 0 0 0-2.758-2.756z" class="cls-2" data-name="Path 12737" transform="translate(121.493 85.686)"/>
        <path id="Path_12738" d="M1121.434 425.421a2.757 2.757 0 1 0 2.758 2.758 2.757 2.757 0 0 0-2.758-2.758z" class="cls-2" data-name="Path 12738" transform="translate(121.493 46.357)"/>
        <path id="Path_12739" d="M1121.434 361.864a2.758 2.758 0 1 0 2.758 2.758 2.757 2.757 0 0 0-2.758-2.758z" class="cls-2" data-name="Path 12739" transform="translate(121.493 22.76)"/>
        <path id="Path_12740" d="M1121.434 510.163a2.757 2.757 0 1 0 2.758 2.758 2.757 2.757 0 0 0-2.758-2.758z" class="cls-2" data-name="Path 12740" transform="translate(121.493 77.82)"/>
        <path id="Path_12741" d="M1121.434 340.678a2.758 2.758 0 1 0 2.758 2.758 2.758 2.758 0 0 0-2.758-2.758z" class="cls-2" data-name="Path 12741" transform="translate(121.493 14.894)"/>
        <path id="Path_12742" d="M1121.434 404.235a2.758 2.758 0 1 0 2.758 2.758 2.757 2.757 0 0 0-2.758-2.758z" class="cls-2" data-name="Path 12742" transform="translate(121.493 38.491)"/>
        <path id="Path_12743" d="M1121.434 467.792a2.757 2.757 0 1 0 2.758 2.758 2.757 2.757 0 0 0-2.758-2.758z" class="cls-2" data-name="Path 12743" transform="translate(121.493 62.089)"/>
        <path id="Path_12744" d="M1121.434 446.607a2.757 2.757 0 1 0 2.758 2.756 2.757 2.757 0 0 0-2.758-2.756z" class="cls-2" data-name="Path 12744" transform="translate(121.493 54.223)"/>
        <path id="Path_12745" d="M1121.434 488.977a2.758 2.758 0 1 0 2.758 2.758 2.758 2.758 0 0 0-2.758-2.758z" class="cls-2" data-name="Path 12745" transform="translate(121.493 69.954)"/>
        <path id="Path_12746" d="M1148.7 488.977a2.758 2.758 0 1 0 2.758 2.758 2.758 2.758 0 0 0-2.758-2.758z" class="cls-2" data-name="Path 12746" transform="translate(131.617 69.954)"/>
        <path id="Path_12747" d="M1148.7 467.792a2.757 2.757 0 1 0 2.758 2.758 2.757 2.757 0 0 0-2.758-2.758z" class="cls-2" data-name="Path 12747" transform="translate(131.617 62.089)"/>
        <path id="Path_12748" d="M1148.7 404.235a2.758 2.758 0 1 0 2.758 2.758 2.757 2.757 0 0 0-2.758-2.758z" class="cls-2" data-name="Path 12748" transform="translate(131.617 38.491)"/>
        <path id="Path_12749" d="M1148.7 361.864a2.758 2.758 0 1 0 2.758 2.758 2.757 2.757 0 0 0-2.758-2.758z" class="cls-2" data-name="Path 12749" transform="translate(131.617 22.76)"/>
        <path id="Path_12750" d="M1148.7 383.05a2.757 2.757 0 1 0 2.758 2.756 2.757 2.757 0 0 0-2.758-2.756z" class="cls-2" data-name="Path 12750" transform="translate(131.617 30.626)"/>
        <path id="Path_12751" d="M1148.7 446.607a2.757 2.757 0 1 0 2.758 2.756 2.757 2.757 0 0 0-2.758-2.756z" class="cls-2" data-name="Path 12751" transform="translate(131.617 54.223)"/>
        <path id="Path_12752" d="M1148.7 552.535a2.757 2.757 0 1 0 2.758 2.756 2.757 2.757 0 0 0-2.758-2.756z" class="cls-2" data-name="Path 12752" transform="translate(131.617 93.552)"/>
        <path id="Path_12753" d="M1148.7 425.421a2.757 2.757 0 1 0 2.758 2.758 2.757 2.757 0 0 0-2.758-2.758z" class="cls-2" data-name="Path 12753" transform="translate(131.617 46.357)"/>
        <path id="Path_12754" d="M1148.7 531.349a2.757 2.757 0 1 0 2.758 2.756 2.757 2.757 0 0 0-2.758-2.756z" class="cls-2" data-name="Path 12754" transform="translate(131.617 85.686)"/>
        <path id="Path_12755" d="M1148.7 510.163a2.757 2.757 0 1 0 2.758 2.758 2.757 2.757 0 0 0-2.758-2.758z" class="cls-2" data-name="Path 12755" transform="translate(131.617 77.82)"/>
        <path id="Path_12756" d="M1175.972 446.607a2.757 2.757 0 1 0 2.756 2.756 2.758 2.758 0 0 0-2.756-2.756z" class="cls-2" data-name="Path 12756" transform="translate(141.742 54.223)"/>
        <path id="Path_12757" d="M1175.972 488.977a2.758 2.758 0 1 0 2.756 2.758 2.759 2.759 0 0 0-2.756-2.758z" class="cls-2" data-name="Path 12757" transform="translate(141.742 69.954)"/>
        <path id="Path_12758" d="M1175.972 552.535a2.757 2.757 0 1 0 2.756 2.756 2.758 2.758 0 0 0-2.756-2.756z" class="cls-2" data-name="Path 12758" transform="translate(141.742 93.552)"/>
        <path id="Path_12759" d="M1175.972 510.163a2.757 2.757 0 1 0 2.756 2.758 2.758 2.758 0 0 0-2.756-2.758z" class="cls-2" data-name="Path 12759" transform="translate(141.742 77.82)"/>
        <path id="Path_12760" d="M1175.972 404.235a2.758 2.758 0 1 0 2.756 2.758 2.758 2.758 0 0 0-2.756-2.758z" class="cls-2" data-name="Path 12760" transform="translate(141.742 38.491)"/>
        <path id="Path_12761" d="M1175.972 425.421a2.757 2.757 0 1 0 2.756 2.758 2.758 2.758 0 0 0-2.756-2.758z" class="cls-2" data-name="Path 12761" transform="translate(141.742 46.357)"/>
        <path id="Path_12762" d="M1175.972 467.792a2.757 2.757 0 1 0 2.756 2.758 2.758 2.758 0 0 0-2.756-2.758z" class="cls-2" data-name="Path 12762" transform="translate(141.742 62.089)"/>
        <path id="Path_12763" d="M1175.972 531.349a2.757 2.757 0 1 0 2.756 2.756 2.758 2.758 0 0 0-2.756-2.756z" class="cls-2" data-name="Path 12763" transform="translate(141.742 85.686)"/>
        <path id="Path_12764" d="M1203.241 488.977a2.758 2.758 0 1 0 2.756 2.758 2.758 2.758 0 0 0-2.756-2.758z" class="cls-2" data-name="Path 12764" transform="translate(151.867 69.954)"/>
        <path id="Path_12765" d="M1203.241 473.306a2.757 2.757 0 1 0-2.758-2.756 2.756 2.756 0 0 0 2.758 2.756z" class="cls-2" data-name="Path 12765" transform="translate(151.867 62.089)"/>
        <path id="Path_12766" d="M1203.241 510.163a2.757 2.757 0 1 0 2.756 2.758 2.757 2.757 0 0 0-2.756-2.758z" class="cls-2" data-name="Path 12766" transform="translate(151.867 77.82)"/>
        <path id="Path_12767" d="M1203.241 552.535a2.757 2.757 0 1 0 2.756 2.756 2.757 2.757 0 0 0-2.756-2.756z" class="cls-2" data-name="Path 12767" transform="translate(151.867 93.552)"/>
        <path id="Path_12768" d="M1203.241 531.349a2.757 2.757 0 1 0 2.756 2.756 2.757 2.757 0 0 0-2.756-2.756z" class="cls-2" data-name="Path 12768" transform="translate(151.867 85.686)"/>
        <path id="Path_12769" d="M1203.186 451.97a284.273 284.273 0 0 0-1.567-4.972 2.748 2.748 0 0 0 1.567 4.972z" class="cls-2" data-name="Path 12769" transform="translate(151.867 54.368)"/>
        <path id="Path_12770" d="M794.163 573.72a2.749 2.749 0 0 0-2.592 1.849c.187.928.381 1.854.576 2.778a2.754 2.754 0 1 0 2.016-4.627z" class="cls-2" data-name="Path 12770" transform="translate(.045 101.418)"/>
        <path id="Path_12771" d="M821.477 616.091a2.757 2.757 0 1 0 2.758 2.758 2.757 2.757 0 0 0-2.758-2.758z" class="cls-2" data-name="Path 12771" transform="translate(10.124 117.15)"/>
        <path id="Path_12772" d="M821.477 594.905a2.758 2.758 0 1 0 2.758 2.758 2.758 2.758 0 0 0-2.758-2.758z" class="cls-2" data-name="Path 12772" transform="translate(10.124 109.284)"/>
        <path id="Path_12773" d="M821.477 637.277a2.757 2.757 0 1 0 2.758 2.758 2.757 2.757 0 0 0-2.758-2.758z" class="cls-2" data-name="Path 12773" transform="translate(10.124 125.016)"/>
        <path id="Path_12774" d="M821.477 573.72a2.757 2.757 0 1 0 2.758 2.756 2.757 2.757 0 0 0-2.758-2.756z" class="cls-2" data-name="Path 12774" transform="translate(10.124 101.418)"/>
        <path id="Path_12775" d="M848.746 573.72a2.757 2.757 0 1 0 2.756 2.756 2.757 2.757 0 0 0-2.756-2.756z" class="cls-2" data-name="Path 12775" transform="translate(20.249 101.418)"/>
        <path id="Path_12776" d="M848.746 637.277a2.757 2.757 0 1 0 2.756 2.758 2.757 2.757 0 0 0-2.756-2.758z" class="cls-2" data-name="Path 12776" transform="translate(20.249 125.016)"/>
        <path id="Path_12777" d="M848.746 594.905a2.758 2.758 0 1 0 2.756 2.758 2.758 2.758 0 0 0-2.756-2.758z" class="cls-2" data-name="Path 12777" transform="translate(20.249 109.284)"/>
        <path id="Path_12778" d="M848.746 616.091a2.757 2.757 0 1 0 2.756 2.758 2.757 2.757 0 0 0-2.756-2.758z" class="cls-2" data-name="Path 12778" transform="translate(20.249 117.15)"/>
        <path id="Path_12779" d="M848.492 679.648a2.737 2.737 0 0 0-1.821.7 289.891 289.891 0 0 0 3.836 3.929 2.751 2.751 0 0 0-2.015-4.629z" class="cls-2" data-name="Path 12779" transform="translate(20.503 140.747)"/>
        <path id="Path_12780" d="M848.746 658.462a2.758 2.758 0 1 0 2.756 2.758 2.757 2.757 0 0 0-2.756-2.758z" class="cls-2" data-name="Path 12780" transform="translate(20.249 132.881)"/>
        <path id="Path_12781" d="M876.014 573.72a2.757 2.757 0 1 0 2.758 2.756 2.758 2.758 0 0 0-2.758-2.756z" class="cls-2" data-name="Path 12781" transform="translate(30.373 101.418)"/>
        <path id="Path_12782" d="M876.014 616.091a2.757 2.757 0 1 0 2.758 2.758 2.758 2.758 0 0 0-2.758-2.758z" class="cls-2" data-name="Path 12782" transform="translate(30.373 117.15)"/>
        <path id="Path_12783" d="M876.014 679.648a2.757 2.757 0 1 0 2.758 2.758 2.758 2.758 0 0 0-2.758-2.758z" class="cls-2" data-name="Path 12783" transform="translate(30.373 140.747)"/>
        <path id="Path_12784" d="M876.014 658.462a2.758 2.758 0 1 0 2.758 2.758 2.758 2.758 0 0 0-2.758-2.758z" class="cls-2" data-name="Path 12784" transform="translate(30.373 132.881)"/>
        <path id="Path_12785" d="M876.014 637.277a2.757 2.757 0 1 0 2.758 2.758 2.758 2.758 0 0 0-2.758-2.758z" class="cls-2" data-name="Path 12785" transform="translate(30.373 125.016)"/>
        <path id="Path_12786" d="M876.014 594.905a2.758 2.758 0 1 0 2.758 2.758 2.759 2.759 0 0 0-2.758-2.758z" class="cls-2" data-name="Path 12786" transform="translate(30.373 109.284)"/>
        <path id="Path_12787" d="M876.014 700.833a2.759 2.759 0 0 0-2.758 2.758 2.723 2.723 0 0 0 .265 1.161c.709.525 1.426 1.042 2.139 1.561a2.752 2.752 0 1 0 .354-5.48z" class="cls-2" data-name="Path 12787" transform="translate(30.373 148.613)"/>
        <path id="Path_12788" d="M903.284 637.277a2.757 2.757 0 1 0 2.756 2.758 2.758 2.758 0 0 0-2.756-2.758z" class="cls-2" data-name="Path 12788" transform="translate(40.497 125.016)"/>
        <path id="Path_12789" d="M903.284 658.462a2.758 2.758 0 1 0 2.756 2.758 2.758 2.758 0 0 0-2.756-2.758z" class="cls-2" data-name="Path 12789" transform="translate(40.497 132.881)"/>
        <path id="Path_12790" d="M903.284 616.091a2.757 2.757 0 1 0 2.756 2.758 2.758 2.758 0 0 0-2.756-2.758z" class="cls-2" data-name="Path 12790" transform="translate(40.497 117.15)"/>
        <path id="Path_12791" d="M903.284 573.72a2.757 2.757 0 1 0 2.756 2.756 2.758 2.758 0 0 0-2.756-2.756z" class="cls-2" data-name="Path 12791" transform="translate(40.497 101.418)"/>
        <path id="Path_12792" d="M903.284 594.905a2.758 2.758 0 1 0 2.756 2.758 2.759 2.759 0 0 0-2.756-2.758z" class="cls-2" data-name="Path 12792" transform="translate(40.497 109.284)"/>
        <path id="Path_12793" d="M903.284 679.648a2.757 2.757 0 1 0 2.756 2.758 2.758 2.758 0 0 0-2.756-2.758z" class="cls-2" data-name="Path 12793" transform="translate(40.497 140.747)"/>
        <path id="Path_12794" d="M903.284 700.833a2.758 2.758 0 1 0 2.756 2.758 2.759 2.759 0 0 0-2.756-2.758z" class="cls-2" data-name="Path 12794" transform="translate(40.497 148.613)"/>
        <path id="Path_12795" d="M930.553 573.72a2.757 2.757 0 1 0 2.756 2.756 2.758 2.758 0 0 0-2.756-2.756z" class="cls-2" data-name="Path 12795" transform="translate(50.622 101.418)"/>
        <path id="Path_12796" d="M930.553 594.905a2.758 2.758 0 1 0 2.756 2.758 2.759 2.759 0 0 0-2.756-2.758z" class="cls-2" data-name="Path 12796" transform="translate(50.622 109.284)"/>
        <path id="Path_12797" d="M930.553 679.648a2.757 2.757 0 1 0 2.756 2.758 2.758 2.758 0 0 0-2.756-2.758z" class="cls-2" data-name="Path 12797" transform="translate(50.622 140.747)"/>
        <path id="Path_12798" d="M930.553 722.019a2.757 2.757 0 1 0 2.756 2.758 2.758 2.758 0 0 0-2.756-2.758z" class="cls-2" data-name="Path 12798" transform="translate(50.622 156.479)"/>
        <path id="Path_12799" d="M930.553 700.833a2.758 2.758 0 1 0 2.756 2.758 2.759 2.759 0 0 0-2.756-2.758z" class="cls-2" data-name="Path 12799" transform="translate(50.622 148.613)"/>
        <path id="Path_12800" d="M930.553 616.091a2.757 2.757 0 1 0 2.756 2.758 2.758 2.758 0 0 0-2.756-2.758z" class="cls-2" data-name="Path 12800" transform="translate(50.622 117.15)"/>
        <path id="Path_12801" d="M930.553 658.462a2.758 2.758 0 1 0 2.756 2.758 2.758 2.758 0 0 0-2.756-2.758z" class="cls-2" data-name="Path 12801" transform="translate(50.622 132.881)"/>
        <path id="Path_12802" d="M930.553 637.277a2.757 2.757 0 1 0 2.756 2.758 2.758 2.758 0 0 0-2.756-2.758z" class="cls-2" data-name="Path 12802" transform="translate(50.622 125.016)"/>
        <path id="Path_12803" d="M957.821 573.72a2.757 2.757 0 1 0 2.758 2.756 2.757 2.757 0 0 0-2.758-2.756z" class="cls-2" data-name="Path 12803" transform="translate(60.747 101.418)"/>
        <path id="Path_12804" d="M957.821 594.905a2.758 2.758 0 1 0 2.758 2.758 2.758 2.758 0 0 0-2.758-2.758z" class="cls-2" data-name="Path 12804" transform="translate(60.747 109.284)"/>
        <path id="Path_12805" d="M957.821 722.019a2.757 2.757 0 1 0 2.758 2.758 2.757 2.757 0 0 0-2.758-2.758z" class="cls-2" data-name="Path 12805" transform="translate(60.747 156.479)"/>
        <path id="Path_12806" d="M957.821 616.091a2.757 2.757 0 1 0 2.758 2.758 2.757 2.757 0 0 0-2.758-2.758z" class="cls-2" data-name="Path 12806" transform="translate(60.747 117.15)"/>
        <path id="Path_12807" d="M957.821 658.462a2.758 2.758 0 1 0 2.758 2.758 2.757 2.757 0 0 0-2.758-2.758z" class="cls-2" data-name="Path 12807" transform="translate(60.747 132.881)"/>
        <path id="Path_12808" d="M957.821 679.648a2.757 2.757 0 1 0 2.758 2.758 2.757 2.757 0 0 0-2.758-2.758z" class="cls-2" data-name="Path 12808" transform="translate(60.747 140.747)"/>
        <path id="Path_12809" d="M957.821 637.277a2.757 2.757 0 1 0 2.758 2.758 2.757 2.757 0 0 0-2.758-2.758z" class="cls-2" data-name="Path 12809" transform="translate(60.747 125.016)"/>
        <path id="Path_12810" d="M957.821 700.833a2.758 2.758 0 1 0 2.758 2.758 2.758 2.758 0 0 0-2.758-2.758z" class="cls-2" data-name="Path 12810" transform="translate(60.747 148.613)"/>
        <path id="Path_12811" d="M985.042 743.2a2.718 2.718 0 0 0-2.582 1.821c1.753.139 3.512.251 5.274.359a2.746 2.746 0 0 0-2.692-2.18z" class="cls-2" data-name="Path 12811" transform="translate(70.919 164.344)"/>
        <path id="Path_12812" d="M985.09 573.72a2.757 2.757 0 1 0 2.758 2.756 2.758 2.758 0 0 0-2.758-2.756z" class="cls-2" data-name="Path 12812" transform="translate(70.871 101.418)"/>
        <path id="Path_12813" d="M985.09 722.019a2.757 2.757 0 1 0 2.758 2.758 2.758 2.758 0 0 0-2.758-2.758z" class="cls-2" data-name="Path 12813" transform="translate(70.871 156.479)"/>
        <path id="Path_12814" d="M985.09 700.833a2.758 2.758 0 1 0 2.758 2.758 2.759 2.759 0 0 0-2.758-2.758z" class="cls-2" data-name="Path 12814" transform="translate(70.871 148.613)"/>
        <path id="Path_12815" d="M985.09 658.462a2.758 2.758 0 1 0 2.758 2.758 2.758 2.758 0 0 0-2.758-2.758z" class="cls-2" data-name="Path 12815" transform="translate(70.871 132.881)"/>
        <path id="Path_12816" d="M985.09 637.277a2.757 2.757 0 1 0 2.758 2.758 2.758 2.758 0 0 0-2.758-2.758z" class="cls-2" data-name="Path 12816" transform="translate(70.871 125.016)"/>
        <path id="Path_12817" d="M985.09 616.091a2.757 2.757 0 1 0 2.758 2.758 2.758 2.758 0 0 0-2.758-2.758z" class="cls-2" data-name="Path 12817" transform="translate(70.871 117.15)"/>
        <path id="Path_12818" d="M985.09 594.905a2.758 2.758 0 1 0 2.758 2.758 2.759 2.759 0 0 0-2.758-2.758z" class="cls-2" data-name="Path 12818" transform="translate(70.871 109.284)"/>
        <path id="Path_12819" d="M985.09 679.648a2.757 2.757 0 1 0 2.758 2.758 2.758 2.758 0 0 0-2.758-2.758z" class="cls-2" data-name="Path 12819" transform="translate(70.871 140.747)"/>
        <path id="Path_12820" d="M1012.349 743.2a2.732 2.732 0 0 0-2.723 2.422c1.8-.085 3.6-.2 5.393-.314a2.731 2.731 0 0 0-2.67-2.108z" class="cls-2" data-name="Path 12820" transform="translate(81.004 164.344)"/>
        <path id="Path_12821" d="M1012.357 573.72a2.757 2.757 0 1 0 2.758 2.756 2.757 2.757 0 0 0-2.758-2.756z" class="cls-2" data-name="Path 12821" transform="translate(80.995 101.418)"/>
        <path id="Path_12822" d="M1012.357 616.091a2.757 2.757 0 1 0 2.758 2.758 2.757 2.757 0 0 0-2.758-2.758z" class="cls-2" data-name="Path 12822" transform="translate(80.995 117.15)"/>
        <path id="Path_12823" d="M1012.357 637.277a2.757 2.757 0 1 0 2.758 2.758 2.757 2.757 0 0 0-2.758-2.758z" class="cls-2" data-name="Path 12823" transform="translate(80.995 125.016)"/>
        <path id="Path_12824" d="M1012.357 658.462a2.758 2.758 0 1 0 2.758 2.758 2.757 2.757 0 0 0-2.758-2.758z" class="cls-2" data-name="Path 12824" transform="translate(80.995 132.881)"/>
        <path id="Path_12825" d="M1012.357 679.648a2.757 2.757 0 1 0 2.758 2.758 2.757 2.757 0 0 0-2.758-2.758z" class="cls-2" data-name="Path 12825" transform="translate(80.995 140.747)"/>
        <path id="Path_12826" d="M1012.357 594.905a2.758 2.758 0 1 0 2.758 2.758 2.758 2.758 0 0 0-2.758-2.758z" class="cls-2" data-name="Path 12826" transform="translate(80.995 109.284)"/>
        <path id="Path_12827" d="M1012.357 700.833a2.758 2.758 0 1 0 2.758 2.758 2.758 2.758 0 0 0-2.758-2.758z" class="cls-2" data-name="Path 12827" transform="translate(80.995 148.613)"/>
        <path id="Path_12828" d="M1012.357 722.019a2.757 2.757 0 1 0 2.758 2.758 2.757 2.757 0 0 0-2.758-2.758z" class="cls-2" data-name="Path 12828" transform="translate(80.995 156.479)"/>
        <path id="Path_12829" d="M1039.628 573.72a2.757 2.757 0 1 0 2.756 2.756 2.757 2.757 0 0 0-2.756-2.756z" class="cls-2" data-name="Path 12829" transform="translate(91.12 101.418)"/>
        <path id="Path_12830" d="M1039.628 594.905a2.758 2.758 0 1 0 2.756 2.758 2.758 2.758 0 0 0-2.756-2.758z" class="cls-2" data-name="Path 12830" transform="translate(91.12 109.284)"/>
        <path id="Path_12831" d="M1039.628 679.648a2.757 2.757 0 1 0 2.756 2.758 2.757 2.757 0 0 0-2.756-2.758z" class="cls-2" data-name="Path 12831" transform="translate(91.12 140.747)"/>
        <path id="Path_12832" d="M1039.628 722.019a2.757 2.757 0 1 0 2.756 2.758 2.757 2.757 0 0 0-2.756-2.758z" class="cls-2" data-name="Path 12832" transform="translate(91.12 156.479)"/>
        <path id="Path_12833" d="M1039.628 616.091a2.757 2.757 0 1 0 2.756 2.758 2.757 2.757 0 0 0-2.756-2.758z" class="cls-2" data-name="Path 12833" transform="translate(91.12 117.15)"/>
        <path id="Path_12834" d="M1039.628 700.833a2.758 2.758 0 1 0 2.756 2.758 2.758 2.758 0 0 0-2.756-2.758z" class="cls-2" data-name="Path 12834" transform="translate(91.12 148.613)"/>
        <path id="Path_12835" d="M1039.628 658.462a2.758 2.758 0 1 0 2.756 2.758 2.757 2.757 0 0 0-2.756-2.758z" class="cls-2" data-name="Path 12835" transform="translate(91.12 132.881)"/>
        <path id="Path_12836" d="M1039.628 637.277a2.757 2.757 0 1 0 2.756 2.758 2.757 2.757 0 0 0-2.756-2.758z" class="cls-2" data-name="Path 12836" transform="translate(91.12 125.016)"/>
        <path id="Path_12837" d="M1066.9 722.019a2.757 2.757 0 1 0 2.758 2.758 2.758 2.758 0 0 0-2.758-2.758z" class="cls-2" data-name="Path 12837" transform="translate(101.244 156.479)"/>
        <path id="Path_12838" d="M1066.9 658.462a2.758 2.758 0 1 0 2.758 2.758 2.758 2.758 0 0 0-2.758-2.758z" class="cls-2" data-name="Path 12838" transform="translate(101.244 132.881)"/>
        <path id="Path_12839" d="M1066.9 679.648a2.757 2.757 0 1 0 2.758 2.758 2.758 2.758 0 0 0-2.758-2.758z" class="cls-2" data-name="Path 12839" transform="translate(101.244 140.747)"/>
        <path id="Path_12840" d="M1066.9 700.833a2.758 2.758 0 1 0 2.758 2.758 2.759 2.759 0 0 0-2.758-2.758z" class="cls-2" data-name="Path 12840" transform="translate(101.244 148.613)"/>
        <path id="Path_12841" d="M1066.9 594.905a2.758 2.758 0 1 0 2.758 2.758 2.759 2.759 0 0 0-2.758-2.758z" class="cls-2" data-name="Path 12841" transform="translate(101.244 109.284)"/>
        <path id="Path_12842" d="M1066.9 616.091a2.757 2.757 0 1 0 2.758 2.758 2.758 2.758 0 0 0-2.758-2.758z" class="cls-2" data-name="Path 12842" transform="translate(101.244 117.15)"/>
        <path id="Path_12843" d="M1066.9 637.277a2.757 2.757 0 1 0 2.758 2.758 2.758 2.758 0 0 0-2.758-2.758z" class="cls-2" data-name="Path 12843" transform="translate(101.244 125.016)"/>
        <path id="Path_12844" d="M1066.9 573.72a2.757 2.757 0 1 0 2.758 2.756 2.758 2.758 0 0 0-2.758-2.756z" class="cls-2" data-name="Path 12844" transform="translate(101.244 101.418)"/>
        <path id="Path_12845" d="M1094.165 594.905a2.758 2.758 0 1 0 2.758 2.758 2.758 2.758 0 0 0-2.758-2.758z" class="cls-2" data-name="Path 12845" transform="translate(111.369 109.284)"/>
        <path id="Path_12846" d="M1094.165 573.72a2.757 2.757 0 1 0 2.758 2.756 2.757 2.757 0 0 0-2.758-2.756z" class="cls-2" data-name="Path 12846" transform="translate(111.369 101.418)"/>
        <path id="Path_12847" d="M1094.165 637.277a2.757 2.757 0 1 0 2.758 2.758 2.757 2.757 0 0 0-2.758-2.758z" class="cls-2" data-name="Path 12847" transform="translate(111.369 125.016)"/>
        <path id="Path_12848" d="M1094.165 616.091a2.757 2.757 0 1 0 2.758 2.758 2.757 2.757 0 0 0-2.758-2.758z" class="cls-2" data-name="Path 12848" transform="translate(111.369 117.15)"/>
        <path id="Path_12849" d="M1094.165 658.462a2.758 2.758 0 1 0 2.758 2.758 2.757 2.757 0 0 0-2.758-2.758z" class="cls-2" data-name="Path 12849" transform="translate(111.369 132.881)"/>
        <path id="Path_12850" d="M1094.165 700.833a2.758 2.758 0 1 0 2.758 2.758 2.758 2.758 0 0 0-2.758-2.758z" class="cls-2" data-name="Path 12850" transform="translate(111.369 148.613)"/>
        <path id="Path_12851" d="M1091.407 724.777a2.757 2.757 0 0 0 .039.388c1.572-.757 3.126-1.54 4.68-2.324a2.756 2.756 0 0 0-4.719 1.936z" class="cls-2" data-name="Path 12851" transform="translate(111.369 156.479)"/>
        <path id="Path_12852" d="M1094.165 679.648a2.757 2.757 0 1 0 2.758 2.758 2.757 2.757 0 0 0-2.758-2.758z" class="cls-2" data-name="Path 12852" transform="translate(111.369 140.747)"/>
        <path id="Path_12853" d="M1121.434 658.462a2.758 2.758 0 1 0 2.758 2.758 2.757 2.757 0 0 0-2.758-2.758z" class="cls-2" data-name="Path 12853" transform="translate(121.493 132.881)"/>
        <path id="Path_12854" d="M1121.434 616.091a2.757 2.757 0 1 0 2.758 2.758 2.757 2.757 0 0 0-2.758-2.758z" class="cls-2" data-name="Path 12854" transform="translate(121.493 117.15)"/>
        <path id="Path_12855" d="M1121.434 679.648a2.757 2.757 0 1 0 2.758 2.758 2.757 2.757 0 0 0-2.758-2.758z" class="cls-2" data-name="Path 12855" transform="translate(121.493 140.747)"/>
        <path id="Path_12856" d="M1121.434 700.833a2.758 2.758 0 1 0 2.758 2.758 2.758 2.758 0 0 0-2.758-2.758z" class="cls-2" data-name="Path 12856" transform="translate(121.493 148.613)"/>
        <path id="Path_12857" d="M1121.434 637.277a2.757 2.757 0 1 0 2.758 2.758 2.757 2.757 0 0 0-2.758-2.758z" class="cls-2" data-name="Path 12857" transform="translate(121.493 125.016)"/>
        <path id="Path_12858" d="M1121.434 573.72a2.757 2.757 0 1 0 2.758 2.756 2.757 2.757 0 0 0-2.758-2.756z" class="cls-2" data-name="Path 12858" transform="translate(121.493 101.418)"/>
        <path id="Path_12859" d="M1121.434 594.905a2.758 2.758 0 1 0 2.758 2.758 2.758 2.758 0 0 0-2.758-2.758z" class="cls-2" data-name="Path 12859" transform="translate(121.493 109.284)"/>
        <path id="Path_12860" d="M1148.7 573.72a2.757 2.757 0 1 0 2.758 2.756 2.757 2.757 0 0 0-2.758-2.756z" class="cls-2" data-name="Path 12860" transform="translate(131.617 101.418)"/>
        <path id="Path_12861" d="M1148.7 637.277a2.757 2.757 0 1 0 2.758 2.758 2.757 2.757 0 0 0-2.758-2.758z" class="cls-2" data-name="Path 12861" transform="translate(131.617 125.016)"/>
        <path id="Path_12862" d="M1148.7 679.648a2.757 2.757 0 1 0 2.758 2.758 2.757 2.757 0 0 0-2.758-2.758z" class="cls-2" data-name="Path 12862" transform="translate(131.617 140.747)"/>
        <path id="Path_12863" d="M1148.7 658.462a2.758 2.758 0 1 0 2.758 2.758 2.757 2.757 0 0 0-2.758-2.758z" class="cls-2" data-name="Path 12863" transform="translate(131.617 132.881)"/>
        <path id="Path_12864" d="M1148.7 594.905a2.758 2.758 0 1 0 2.758 2.758 2.758 2.758 0 0 0-2.758-2.758z" class="cls-2" data-name="Path 12864" transform="translate(131.617 109.284)"/>
        <path id="Path_12865" d="M1148.7 616.091a2.757 2.757 0 1 0 2.758 2.758 2.757 2.757 0 0 0-2.758-2.758z" class="cls-2" data-name="Path 12865" transform="translate(131.617 117.15)"/>
        <path id="Path_12866" d="M1175.972 594.905a2.758 2.758 0 1 0 2.756 2.758 2.759 2.759 0 0 0-2.756-2.758z" class="cls-2" data-name="Path 12866" transform="translate(141.742 109.284)"/>
        <path id="Path_12867" d="M1175.972 637.277a2.757 2.757 0 1 0 2.756 2.758 2.758 2.758 0 0 0-2.756-2.758z" class="cls-2" data-name="Path 12867" transform="translate(141.742 125.016)"/>
        <path id="Path_12868" d="M1175.972 616.091a2.757 2.757 0 1 0 2.756 2.758 2.758 2.758 0 0 0-2.756-2.758z" class="cls-2" data-name="Path 12868" transform="translate(141.742 117.15)"/>
        <path id="Path_12869" d="M1175.972 573.72a2.757 2.757 0 1 0 2.756 2.756 2.758 2.758 0 0 0-2.756-2.756z" class="cls-2" data-name="Path 12869" transform="translate(141.742 101.418)"/>
        <path id="Path_12870" d="M1203.241 573.72a2.757 2.757 0 1 0 2.756 2.756 2.757 2.757 0 0 0-2.756-2.756z" class="cls-2" data-name="Path 12870" transform="translate(151.867 101.418)"/>
        <path id="Path_12871" d="M1200.483 597.661a2.748 2.748 0 0 0 1.135 2.221 281.828 281.828 0 0 0 1.567-4.974 2.754 2.754 0 0 0-2.702 2.753z" class="cls-2" data-name="Path 12871" transform="translate(151.867 109.285)"/>
    </g>
</svg>
