<svg xmlns="http://www.w3.org/2000/svg" width="193.028" height="50" viewBox="0 0 193.028 50">
    <defs>
        <style>
            .cls-1{fill:#bbbdbf}.cls-2{fill:#034da1}.cls-3{fill:#fff100}.cls-4{fill:#626366}
        </style>
    </defs>
    <g id="img">
        <g id="Page-1">
            <g id="Version-2-menu">
                <g id="Site-header">
                    <g id="logo-copy">
                        <g id="Group-20">
                            <g id="Group-18-Copy">
                                <path id="Fill-40" d="M0 18.411s29.908-3.911 30.81-4.058a36.051 36.051 0 0 0 3.532-.751 22.069 22.069 0 0 0 6.612-3.002 29.026 29.026 0 0 0 5.41-5.185A50.018 50.018 0 0 0 49.746.751V0a41.844 41.844 0 0 1-3.832 5.035A26.011 26.011 0 0 1 40.5 9.769a22.254 22.254 0 0 1-6.387 2.78c-1.052.3-2.179.451-3.457.676-.827.15-1.653.225-2.48.3C27.8 13.526 0 16.457 0 16.457z" class="cls-1"/>
                                <path id="Fill-41" d="M40.128 14.668A21.263 21.263 0 0 1 33.665 17c-1.052.225-2.1.376-3.382.526l-2.254.225c-.376 0-.827.075-1.2.075-9.168.9-18.26 1.728-26.827 2.555v1.954c8.567-1.052 17.809-2.179 26.977-3.231.376-.075.827-.075 1.2-.15.751-.075 1.5-.15 2.254-.3a32.591 32.591 0 0 0 3.457-.6 21.087 21.087 0 0 0 6.688-2.63 26.5 26.5 0 0 0 5.486-4.809c1.127-1.277 2.4-3.006 3.607-4.659V5.2a48.206 48.206 0 0 1-4.058 4.884 21.426 21.426 0 0 1-5.486 4.584" class="cls-1" transform="translate(0 -1.292)"/>
                                <path id="Fill-42" d="M45.388 15.634a26.728 26.728 0 0 1-5.636 3.983 22.5 22.5 0 0 1-6.462 1.954c-1.052.15-2.1.3-3.382.451L0 24.426v1.954l26.526-2.856 3.457-.376c1.277-.15 2.4-.3 3.457-.526a24.112 24.112 0 0 0 6.688-2.179 26.621 26.621 0 0 0 5.861-4.509 44.734 44.734 0 0 0 3.682-4.358V10.9a45.65 45.65 0 0 1-4.283 4.734" class="cls-1" transform="translate(0 -2.738)"/>
                                <path id="Fill-43" d="M38.174 28.388a11.851 11.851 0 0 1-5.486 1.8c-1.5.15-3.006.225-4.509.3a21.23 21.23 0 0 0-2.179.15c-4.509.225-8.942.526-13.451.827L0 32.371v1.954l12.624-1.2c4.058-.376 8.792-.827 13.451-1.2l3.382-.225c1.277-.075 2.4-.225 3.382-.376a27.317 27.317 0 0 0 6.688-1.578 24.354 24.354 0 0 0 6.012-3.457 29.354 29.354 0 0 0 4.208-3.908V21.7a23.734 23.734 0 0 1-4.283 3.607c-2.179 1.5-5.711 2.254-7.289 3.081" class="cls-1" transform="translate(0 -5.447)"/>
                                <path id="Fill-44" d="M38.8 33.81a35.853 35.853 0 0 1-6.462 1.127c-.977.075-2.1.15-3.306.225l-3.306.15c-8.267.377-16.533.828-25.626 1.279v1.954c8.717-.676 17.208-1.353 25.775-1.954l3.306-.225c1.277-.075 2.33-.15 3.382-.3a35.239 35.239 0 0 0 6.613-1.353 25.658 25.658 0 0 0 6.162-2.931 33.112 33.112 0 0 0 4.433-3.382c-1.653 1.428-3.231 1.728-4.809 2.705A26.1 26.1 0 0 1 38.8 33.81" class="cls-1" transform="translate(-.025 -7.124)"/>
                                <path id="Fill-45" d="M38.474 38.11a37.194 37.194 0 0 1-6.462.9c-.977.075-2.029.15-3.306.15l-3.306.15c-8.341.3-16.757.676-25.4 1.052v1.954c8.567-.6 16.983-1.127 25.474-1.728l3.306-.225c1.277-.075 2.33-.15 3.306-.225a37.689 37.689 0 0 0 6.614-1.126 31.081 31.081 0 0 0 10.971-5.486V32.7a33.644 33.644 0 0 1-5.035 3.081 26.634 26.634 0 0 1-6.162 2.329" class="cls-1" transform="translate(0 -8.202)"/>
                                <path id="Fill-46" d="M38.174 42.634a38.832 38.832 0 0 1-6.462.676c-.977.075-1.954.075-3.231.15L0 44.212v1.954l25.249-1.353 3.306-.15c1.277-.075 2.33-.15 3.306-.225a47.39 47.39 0 0 0 6.538-.9 31.594 31.594 0 0 0 6.387-2.029 34.651 34.651 0 0 0 4.96-2.555V38.2a37.381 37.381 0 0 1-5.26 2.555 26.532 26.532 0 0 1-6.312 1.879" class="cls-1" transform="translate(0 -9.578)"/>
                                <path id="Fill-47" d="M37.948 47.182a100.149 100.149 0 0 1-10.6.6c-.827 0-1.578 0-2.4.075L0 48.309v1.954l25.023-1.053c.827 0 1.578-.075 2.4-.075a102 102 0 0 0 10.677-.826 39.7 39.7 0 0 0 6.387-1.578 32.57 32.57 0 0 0 5.11-2.179V43.8a44.441 44.441 0 0 1-5.41 2.1 36.551 36.551 0 0 1-6.237 1.277" class="cls-1" transform="translate(0 -10.979)"/>
                                <path id="Fill-48" d="M37.8 51.755c-3.306.3-6.613.3-9.919.3h-3.008c-8.266 0-16.532.075-24.873.15v1.955c7.965-.3 16.457-.526 24.948-.827.977 0 2.029-.075 3.006-.075 3.231-.075 6.613-.15 9.919-.526a41.282 41.282 0 0 0 6.463-1.132c1.728-.451 3.532-1.052 5.41-1.728V49.2a57.644 57.644 0 0 1-5.561 1.653 42.184 42.184 0 0 1-6.387.9" class="cls-1" transform="translate(0 -12.329)"/>
                                <path id="Fill-49" d="M37.648 56.328c-1.353.075-2.856.075-4.509.075H31.26l-6.46-.075c-4.434 0-8.792-.075-12.925-.075L0 56.328v1.954l11.948-.3c4.133-.075 8.491-.225 12.85-.3l6.462-.075c1.8 0 4.133-.075 6.462-.225s4.434-.382 6.463-.682c1.8-.3 3.682-.676 5.561-1.127V54.9a52.75 52.75 0 0 1-5.636 1.052c-2.1.15-4.133.3-6.462.376" class="cls-1" transform="translate(0 -13.767)"/>
                                <path id="Fill-50" d="M31.185 60.676l-6.462-.076c-8.191-.149-16.382-.3-24.723-.45v1.95c7.965-.075 16.382-.15 24.723-.225l6.462-.075c2.179 0 4.283-.075 6.462-.15a114.388 114.388 0 0 0 12.1-.977V60c-3.682.376-7.665.6-12.1.676h-6.462" class="cls-1" transform="translate(0 -15.035)"/>
                                <path id="Fill-51" d="M49.671 65.077L0 63.8v1.954h49.671z" class="cls-1" transform="translate(0 -15.979)"/>
                                <path id="Fill-52" d="M45.237 20.608A20.933 20.933 0 0 1 39.6 24.14a29.387 29.387 0 0 1-6.613 1.5c-1.578.225-3.231.526-4.809.676-.676.075-1.277.075-1.954.15L0 28.348V30.3l26.226-2.555 3.382-.3c1.277-.15 2.4-.225 3.457-.451a24.1 24.1 0 0 0 6.688-1.954 26.9 26.9 0 0 0 6.012-3.983 49.479 49.479 0 0 0 3.908-3.983V16.4a54.844 54.844 0 0 1-4.434 4.208" class="cls-1" transform="translate(0 -4.118)"/>
                                <path id="Fill-53" d="M94.2 0l10.6 16.833c1.658 2.633 3.532 4.659 10.145 6.087s9.468 2.029 9.468 2.029v.526s-4.208-.9-9.619-2.1-7.59-1.578-10.069-5.035C102.691 15.48 94.2 3.382 94.2 3.382V0z" class="cls-1" transform="translate(-23.413)"/>
                                <path id="Fill-54" d="M94.2 21.6s8.116 8.491 10.52 10.971c2.48 2.63 5.711 3.532 10.145 4.358 4.208.751 9.543 1.653 9.543 1.653v.451s-5.035-.827-9.543-1.578c-4.434-.751-7.59-1.2-10.145-3.532-2.254-2.1-10.445-9.769-10.445-9.769z" class="cls-1" transform="translate(-23.413 -5.43)"/>
                                <path id="Fill-55" d="M94.2 26.8s7.74 7.214 10.52 9.619c2.555 2.254 4.584 2.931 10.145 3.983 5.561.977 9.543 1.578 9.543 1.578v.526s-5.035-.827-9.543-1.578-7.439-.977-10.145-3.231c-3.156-2.556-10.52-8.567-10.52-8.567z" class="cls-1" transform="translate(-23.413 -6.733)"/>
                                <path id="Fill-56" d="M94.2 32.2s8.867 6.989 10.52 8.266c1.653 1.2 3.832 2.63 10.145 3.607 6.312.9 9.543 1.353 9.543 1.353v.526s-5.711-.827-9.543-1.277S108.1 44 104.72 41.743c-3.306-2.179-10.52-7.289-10.52-7.289V32.2z" class="cls-1" transform="translate(-23.413 -8.085)"/>
                                <path id="Fill-57" d="M94.2 37.4s8.867 5.936 10.52 6.838 3.682 2.48 10.145 3.306 9.543 1.2 9.543 1.2v.526s-5.335-.6-9.543-1.052-7.064-1.052-10.145-2.78-10.52-6.009-10.52-6.009V37.4z" class="cls-1" transform="translate(-23.413 -9.386)"/>
                                <path id="Fill-58" d="M94.2 42.7s7.815 4.283 10.52 5.561c2.931 1.5 5.486 2.179 10.145 2.78 4.584.526 9.543 1.052 9.543 1.052v.451s-4.584-.526-9.543-.977c-4.884-.451-6.613-.676-10.145-2.254A2929.872 2929.872 0 0 1 94.2 44.5z" class="cls-1" transform="translate(-23.413 -10.711)"/>
                                <path id="Fill-59" d="M94.175 48s6.162 2.63 10.52 4.358a31.111 31.111 0 0 0 10.145 2.1c1.127.15 9.468.977 9.468.977v.451s-4.96-.376-9.543-.827a37.013 37.013 0 0 1-10.145-1.8c-3.682-1.2-10.52-3.607-10.52-3.607L94.175 48z" class="cls-1" transform="translate(-23.388 -12.052)"/>
                                <path id="Fill-60" d="M94.2 53.4s6.237 1.954 10.52 3.081a59.867 59.867 0 0 0 10.145 1.728c1.954.15 9.543.751 9.543.751v.451s-4.283-.3-9.543-.676a67.076 67.076 0 0 1-10.145-1.2c-2.78-.6-10.52-2.48-10.52-2.48V53.4z" class="cls-1" transform="translate(-23.413 -13.394)"/>
                                <path id="Fill-61" d="M94.2 58.7s5.11.9 10.52 1.8c4.058.676 9.543 1.127 10.145 1.127s9.543.676 9.543.676v.451s-5.711-.3-9.543-.526c-3.983-.225-7.89-.451-10.145-.676-5.035-.526-10.52-1.2-10.52-1.2V58.7z" class="cls-1" transform="translate(-23.413 -14.712)"/>
                                <path id="Fill-62" d="M94.2 64.3s8.041.3 10.52.376 19.688.751 19.688.751v.451H94.2z" class="cls-1" transform="translate(-23.413 -16.103)"/>
                                <path id="Fill-63" d="M114.89 26.441c-7.289-1.578-8.942-4.208-10.145-5.861S94.3 5.4 94.3 5.4v3.081c.376.451 8.266 10.821 10.52 13.676 2.48 3.231 6.387 3.983 10.145 4.734 3.757.827 9.543 1.954 9.543 1.954v-.451c-.075 0-7.74-1.5-9.619-1.954" class="cls-1" transform="translate(-23.438 -1.342)"/>
                                <path id="Fill-64" d="M114.89 29.987c-6.012-1.2-8.416-3.081-10.145-5.335C103.017 22.322 94.3 10.9 94.3 10.9v2.856c.376.451 8.341 9.844 10.445 12.324 2.48 2.856 5.936 3.607 10.145 4.358s9.543 1.8 9.543 1.8v-.448s-6.087-1.127-9.543-1.8" class="cls-1" transform="translate(-23.438 -2.744)"/>
                                <path id="Fill-65" d="M114.865 33.459c-6.237-1.2-7.515-2.179-10.145-5.11-1.653-1.8-10.145-11.8-10.52-12.249v2.63s7.89 8.416 10.445 10.971c3.306 3.306 6.462 3.532 10.145 4.208s9.543 1.728 9.543 1.728v-.451c.075 0-6.989-1.2-9.468-1.728" class="cls-1" transform="translate(-23.413 -4.05)"/>
                                <path id="Fill-66" d="M71.009 27.6H27.5v29.081h43.509z" class="cls-2" transform="translate(-6.835 -6.982)"/>
                                <path id="Fill-67" d="M56.3 32.6h1.5l-1.2.977.451 1.5-1.2-.9-1.2.9.451-1.5L53.9 32.6h1.5l.451-1.5z" class="cls-3" transform="translate(-13.397 -7.792)"/>
                                <path id="Fill-68" d="M56.3 58.428h1.5l-1.2.9.451 1.428-1.2-.9-1.2.9.449-1.426-1.2-.9h1.5l.454-1.43z" class="cls-3" transform="translate(-13.397 -14.289)"/>
                                <path id="Fill-69" d="M62.7 56.728h1.5l-1.2.9.451 1.428-1.2-.9-1.2.9.449-1.426-1.2-.9h1.5l.451-1.428z" class="cls-3" transform="translate(-14.987 -13.867)"/>
                                <path id="Fill-70" d="M62.73 34.328h1.5l-1.2.9.451 1.428-1.2-.9-1.2.977.526-1.5-1.2-.9h1.5l.451-1.428z" class="cls-3" transform="translate(-15.012 -8.243)"/>
                                <path id="Fill-71" d="M67.5 39.128H69l-1.2.9.451 1.428-1.2-.9-1.2.9.451-1.428-1.2-.9h1.5l.451-1.428z" class="cls-3" transform="translate(-16.18 -9.445)"/>
                                <path id="Fill-72" d="M67.5 52.128H69l-1.2.9.451 1.428-1.2-.9-1.2.9.449-1.426-1.2-.9h1.5l.451-1.428z" class="cls-3" transform="translate(-16.18 -12.702)"/>
                                <path id="Fill-73" d="M69.28 45.528h1.5l-1.2.9.451 1.428-1.2-.9-1.2.9.451-1.428-1.277-.9h1.5l.451-1.428z" class="cls-3" transform="translate(-16.603 -11.048)"/>
                                <path id="Fill-74" d="M49.7 34.353h1.5l-1.2.9.451 1.428-1.127-.827-1.277.9.453-1.424-1.2-.9h1.5l.529-1.43z" class="cls-3" transform="translate(-11.756 -8.268)"/>
                                <path id="Fill-75" d="M45.1 39.128h1.5l-1.2.9.451 1.428-1.2-.9-1.2.9.451-1.428-1.2-.9h1.5l.451-1.428z" class="cls-3" transform="translate(-10.613 -9.445)"/>
                                <path id="Fill-76" d="M43.4 45.528h1.5l-1.2.9.451 1.428-1.2-.9-1.2.9.449-1.426-1.2-.9h1.5l.451-1.428.451 1.428z" class="cls-3" transform="translate(-10.19 -11.048)"/>
                                <path id="Fill-77" d="M45.1 52.128h1.5l-1.2.9.451 1.428-1.2-.9-1.2.9.449-1.426-1.2-.9h1.5l.451-1.428z" class="cls-3" transform="translate(-10.613 -12.702)"/>
                                <path id="Fill-78" d="M49.8 56.828h1.5l-1.2.9.451 1.428-1.2-.9-1.2.9.451-1.428-1.2-.9h1.5l.451-1.428z" class="cls-3" transform="translate(-11.781 -13.891)"/>
                            </g>
                        </g>
                    </g>
                </g>
            </g>
        </g>
        <g id="Group_278" data-name="Group 278" transform="translate(107.288 24.492)">
            <path id="Path_238" d="M143.4 33c0-.225.075-.3.3-.3h5.561c.225 0 .3.075.3.3v.9a.275.275 0 0 1-.3.3h-4.133v2.63h3.682c.225 0 .3.075.3.3v.9a.275.275 0 0 1-.3.3h-3.682v3.006h4.208a.275.275 0 0 1 .3.3v.9a.275.275 0 0 1-.3.3H143.7c-.225 0-.3-.075-.3-.3zm13.827 9.769h-1.052a.266.266 0 0 1-.3-.3v-.526a3.267 3.267 0 0 1-.526.3c-.225.075-.376.225-.6.3l-.676.225a2.08 2.08 0 0 1-.676.075 2.635 2.635 0 0 1-1.2-.225 1.326 1.326 0 0 1-.676-.6 2.535 2.535 0 0 1-.3-.9 5.322 5.322 0 0 1-.075-1.127v-4.435c0-.225.075-.3.3-.3h1.127a.275.275 0 0 1 .3.3v4.208a1.465 1.465 0 0 0 .075.6 1.068 1.068 0 0 0 .15.451c.075.15.225.225.3.3s.3.075.526.075a1.467 1.467 0 0 0 .526-.075c.225-.075.376-.15.6-.225a3.664 3.664 0 0 0 .526-.225 1.643 1.643 0 0 0 .376-.225v-5.035a.266.266 0 0 1 .3-.3h1.048c.225 0 .3.075.3.3v6.838c-.075.376-.15.526-.376.526zm3.832-.3c0 .225-.075.3-.3.3h-1.127c-.225 0-.3-.075-.3-.3v-6.838c0-.225.075-.3.3-.3h1.052c.225 0 .3.075.3.3v.676a1.156 1.156 0 0 1 .451-.3 1.511 1.511 0 0 1 .6-.3 1.51 1.51 0 0 0 .6-.3 1.769 1.769 0 0 1 .6-.15h.225c.075 0 .075.075.15.225l.075.977v.225c0 .075-.075.075-.3.15s-.451.075-.676.15a2.194 2.194 0 0 1-.676.15 5.177 5.177 0 0 0-.6.225 2.955 2.955 0 0 1-.451.15v4.96zm9.994-3.532a8.167 8.167 0 0 1-.075 1.353 3.7 3.7 0 0 1-.451 1.277 3.024 3.024 0 0 1-.977.977 4.516 4.516 0 0 1-3.607 0 2.055 2.055 0 0 1-.977-.977 2.533 2.533 0 0 1-.376-1.277 8.167 8.167 0 0 1-.075-1.353 6.876 6.876 0 0 1 .075-1.2 3.32 3.32 0 0 1 .451-1.2 3.023 3.023 0 0 1 .977-.977 3.685 3.685 0 0 1 1.728-.376 3.565 3.565 0 0 1 1.728.3 2.284 2.284 0 0 1 .977.9 3.32 3.32 0 0 1 .451 1.2 8.28 8.28 0 0 1 .15 1.353zm-1.728.075a4.621 4.621 0 0 0-.075-1.052c-.075-.3-.15-.526-.225-.751a1.01 1.01 0 0 0-.526-.451 2.32 2.32 0 0 0-.827-.15 1.886 1.886 0 0 0-.751.15.877.877 0 0 0-.451.451 1.27 1.27 0 0 0-.225.751 4.621 4.621 0 0 0-.075 1.052 4.621 4.621 0 0 0 .075 1.052c.075.3.15.526.225.751a.877.877 0 0 0 .451.451 1.886 1.886 0 0 0 .751.15 2.32 2.32 0 0 0 .827-.15 1.01 1.01 0 0 0 .526-.451 1.269 1.269 0 0 0 .225-.751 4.3 4.3 0 0 0 .075-1.052zm9.694 0a11.257 11.257 0 0 1-.15 1.653 2.87 2.87 0 0 1-.451 1.2 2.209 2.209 0 0 1-.9.751 4.222 4.222 0 0 1-1.5.225 4.313 4.313 0 0 1-.9-.075c-.3-.075-.676-.15-1.052-.225v2.63a.266.266 0 0 1-.3.3h-1.052c-.15 0-.225 0-.225-.075s-.075-.15-.075-.225v-9.54c0-.225.075-.3.3-.3h1.052a.266.266 0 0 1 .3.3v.451h.075a1.572 1.572 0 0 0 .451-.3 4.462 4.462 0 0 1 .6-.3l.676-.225a2.081 2.081 0 0 1 .676-.075 1.907 1.907 0 0 1 1.2.3 1.811 1.811 0 0 1 .751.751 4.537 4.537 0 0 1 .376 1.2 5.122 5.122 0 0 1 .15 1.578zm-1.728 0a4.644 4.644 0 0 0-.075-1.127 7.094 7.094 0 0 0-.225-.676.5.5 0 0 0-.376-.3 1.114 1.114 0 0 0-.526-.075 1.467 1.467 0 0 0-.526.075c-.225.075-.376.075-.6.15-.15.075-.376.15-.526.225l-.451.225v3.757a7.8 7.8 0 0 1 .9.225 2.818 2.818 0 0 0 .827.075 1.5 1.5 0 0 0 .676-.15 1.993 1.993 0 0 0 .451-.376 1.27 1.27 0 0 0 .225-.751 2.567 2.567 0 0 0 .225-1.277zm4.659.451a3.808 3.808 0 0 0 .15.977 1.636 1.636 0 0 0 .376.6 1.211 1.211 0 0 0 .526.3 2.57 2.57 0 0 0 .827.075 4.622 4.622 0 0 0 .977-.075 4.622 4.622 0 0 1 .977-.075h.3c.075 0 .075.075.15.225l.075.526v.3q0 .113-.225.225a1.086 1.086 0 0 1-.526.15 1.769 1.769 0 0 0-.6.15 2.08 2.08 0 0 1-.676.075h-.6a3.756 3.756 0 0 1-1.728-.3 2.714 2.714 0 0 1-.977-.827 3.32 3.32 0 0 1-.451-1.2 8.323 8.323 0 0 1-.15-1.428 6.876 6.876 0 0 1 .075-1.2 3.7 3.7 0 0 1 .451-1.277 2.443 2.443 0 0 1 .977-.977 2.957 2.957 0 0 1 1.728-.376 3.617 3.617 0 0 1 1.653.3 2.591 2.591 0 0 1 .977.751 2.635 2.635 0 0 1 .451 1.052 6.577 6.577 0 0 1 .15 1.2c0 .3 0 .526-.15.676a.74.74 0 0 1-.6.225h-4.133zm1.5-2.931a1.5 1.5 0 0 0-.676.15 1.993 1.993 0 0 0-.451.376.853.853 0 0 0-.225.6 2.317 2.317 0 0 0-.075.751h3.006a2.08 2.08 0 0 0-.075-.676c-.075-.225-.15-.376-.225-.6s-.225-.3-.451-.376a1.713 1.713 0 0 0-.827-.225zm9.243 5.335a4.178 4.178 0 0 1-1.277.676 4.858 4.858 0 0 1-1.5.3 3.335 3.335 0 0 1-.977-.15.933.933 0 0 1-.6-.451.953.953 0 0 1-.3-.676 3.1 3.1 0 0 1-.075-.9 2.569 2.569 0 0 1 .676-1.954 3.341 3.341 0 0 1 2.1-.6h1.96v-.376a1.264 1.264 0 0 0-.3-.977l-.451-.225a2.317 2.317 0 0 0-.751-.075h-.977a74765.051 74765.051 0 0 0-1.052.15h-.3c-.075 0-.075-.075-.15-.225l-.15-.526v-.225a1.037 1.037 0 0 1 .3-.225c.15-.075.376-.075.6-.15a2.08 2.08 0 0 1 .676-.075c.225 0 .451-.075.676-.075h.6a4.39 4.39 0 0 1 1.579.222 2.6 2.6 0 0 1 .9.526 1.649 1.649 0 0 1 .376.9 5.687 5.687 0 0 1 .075 1.127v3.306c0 .075.075.15.075.225s.075.075.15.075a.568.568 0 0 1 .3.075.276.276 0 0 1 .225.075c.075 0 .075.075.075.15v.6a.344.344 0 0 1-.376.3.677.677 0 0 0-.376.075h-.376a1.35 1.35 0 0 1-.827-.225c-.3-.075-.451-.3-.526-.676zm-.075-2.48h-1.8a1.2 1.2 0 0 0-.9.3c-.225.15-.3.526-.3.977a.919.919 0 0 0 .225.676 1 1 0 0 0 .751.225 1.467 1.467 0 0 0 .526-.075c.225-.075.376-.075.6-.15a3.664 3.664 0 0 0 .526-.225 2.5 2.5 0 0 0 .451-.225v-1.5zm9.919 3.306a.276.276 0 0 1-.225.075h-1.127c-.225 0-.3-.075-.3-.3v-4.207a1.99 1.99 0 0 0-.225-1.052c-.15-.3-.451-.376-.9-.376a1.467 1.467 0 0 0-.526.075c-.225.075-.376.15-.6.225a3.663 3.663 0 0 0-.526.225 1.643 1.643 0 0 0-.376.225v5.035c0 .225-.075.3-.3.3h-1.052c-.225 0-.3-.075-.3-.3v-6.837c0-.225.075-.3.3-.3h1.052c.225 0 .3.075.3.3v.451a3.267 3.267 0 0 1 .526-.3c.225-.075.376-.225.6-.3l.676-.225a2.08 2.08 0 0 1 .676-.075 2.635 2.635 0 0 1 1.2.225 1.774 1.774 0 0 1 .676.6 3.182 3.182 0 0 1 .3.9 5.322 5.322 0 0 1 .075 1.127v4.358c.075 0 .075.075.075.15z" class="cls-4" data-name="Path 238" transform="translate(-143.4 -32.7)"/>
        </g>
        <g id="Group_279" data-name="Group 279" transform="translate(107.137 39.63)">
            <path id="Path_239" d="M143.2 58.085a14.641 14.641 0 0 1 .15-1.879 3.965 3.965 0 0 1 .6-1.653 3.675 3.675 0 0 1 1.2-1.2 4.167 4.167 0 0 1 2.1-.451h.6c.225 0 .451.075.751.075a2.67 2.67 0 0 1 .751.15l.676.225c.15.075.225.075.225.15s.075.15.075.3l-.15.6c0 .075-.075.15-.075.225-.075.075-.15.075-.3 0-.376-.075-.751-.075-1.2-.15a6.877 6.877 0 0 0-1.2-.075 1.907 1.907 0 0 0-1.2.3 3.563 3.563 0 0 0-.751.751 2.786 2.786 0 0 0-.3 1.127c0 .376-.075.9-.075 1.428a7.305 7.305 0 0 0 .075 1.353 2.5 2.5 0 0 0 .376 1.127 1.465 1.465 0 0 0 .751.751 2.561 2.561 0 0 0 1.2.3 6.074 6.074 0 0 0 1.2-.075c.376-.075.751-.075 1.2-.15h.3a.577.577 0 0 1 .15.225l.15.6a.315.315 0 0 1-.225.451 3.494 3.494 0 0 1-.676.225c-.225.075-.526.075-.751.15a2.556 2.556 0 0 1-.751.075h-.676a4.056 4.056 0 0 1-2.029-.451 2.924 2.924 0 0 1-1.2-1.127 3.645 3.645 0 0 1-.6-1.578 3.538 3.538 0 0 1-.376-1.8zm14.8 1.127a8.169 8.169 0 0 1-.075 1.353 3.7 3.7 0 0 1-.451 1.277 3.024 3.024 0 0 1-.977.977 4.516 4.516 0 0 1-3.607 0 2.055 2.055 0 0 1-.977-.977 2.533 2.533 0 0 1-.376-1.277 8.168 8.168 0 0 1-.075-1.353 6.877 6.877 0 0 1 .075-1.2 3.32 3.32 0 0 1 .451-1.2 3.023 3.023 0 0 1 .977-.977 3.685 3.685 0 0 1 1.728-.376 3.565 3.565 0 0 1 1.728.3 2.284 2.284 0 0 1 .977.9 3.32 3.32 0 0 1 .451 1.2 8.28 8.28 0 0 1 .15 1.353zm-1.728.075a4.62 4.62 0 0 0-.075-1.052c-.075-.3-.15-.526-.225-.751a1.01 1.01 0 0 0-.526-.451 2.32 2.32 0 0 0-.827-.15 1.886 1.886 0 0 0-.751.15.877.877 0 0 0-.451.451 1.269 1.269 0 0 0-.225.751 7.4 7.4 0 0 0 0 2.1c.075.3.15.526.225.751a.877.877 0 0 0 .451.451 1.886 1.886 0 0 0 .751.15 2.32 2.32 0 0 0 .827-.15 1.01 1.01 0 0 0 .526-.451 1.269 1.269 0 0 0 .225-.751c0-.3.075-.6.075-1.052zm13.977 3.682c0 .075-.075.075-.225.075h-1.052c-.225 0-.3-.075-.3-.3v-4.283a1.941 1.941 0 0 0-.225-1.127.936.936 0 0 0-.827-.3.953.953 0 0 0-.451.075c-.15.075-.376.075-.526.15s-.376.15-.526.225l-.451.225v5.035a.266.266 0 0 1-.3.3h-1.127c-.15 0-.225-.075-.225-.3v-4.358a1.99 1.99 0 0 0-.225-1.052.791.791 0 0 0-.751-.3.953.953 0 0 0-.451.075 4.79 4.79 0 0 1-.526.15c-.15.075-.376.15-.526.225l-.451.225v5.035c0 .225-.075.3-.3.3h-1.052a.275.275 0 0 1-.3-.3v-6.838c0-.225.075-.3.3-.3h1.052c.225 0 .3.075.3.3v.451c.15-.075.3-.225.451-.3s.376-.225.526-.3a5.178 5.178 0 0 1 .6-.225 1.655 1.655 0 0 1 .6-.075 3.115 3.115 0 0 1 1.2.225 1.912 1.912 0 0 1 .9.827 7.136 7.136 0 0 1 1.277-.751 3.049 3.049 0 0 1 1.428-.3 2.635 2.635 0 0 1 1.2.225 1.774 1.774 0 0 1 .676.6 2.535 2.535 0 0 1 .3.9 4.96 4.96 0 0 1 .075 1.052v4.509a.276.276 0 0 0-.075.225zm12.4 0c0 .075-.075.075-.225.075h-1.052c-.225 0-.3-.075-.3-.3v-4.283a1.941 1.941 0 0 0-.225-1.127.936.936 0 0 0-.827-.3.953.953 0 0 0-.451.075c-.15.075-.376.075-.526.15s-.376.15-.526.225l-.451.225v5.035a.266.266 0 0 1-.3.3h-1.126c-.15 0-.225-.075-.225-.3v-4.358a1.99 1.99 0 0 0-.225-1.052.791.791 0 0 0-.751-.3.953.953 0 0 0-.451.075 4.79 4.79 0 0 1-.526.15 3.664 3.664 0 0 0-.526.225l-.451.225v5.035c0 .225-.075.3-.3.3h-1.052a.275.275 0 0 1-.3-.3v-6.838c0-.225.075-.3.3-.3h1.052c.225 0 .3.075.3.3v.451c.15-.075.3-.225.451-.3s.376-.225.526-.3c.225-.075.376-.15.6-.225a1.655 1.655 0 0 1 .6-.075 3.115 3.115 0 0 1 1.2.225 1.912 1.912 0 0 1 .9.827 7.136 7.136 0 0 1 1.277-.751 3.05 3.05 0 0 1 1.428-.3 2.635 2.635 0 0 1 1.2.225 1.774 1.774 0 0 1 .676.6 2.535 2.535 0 0 1 .3.9 4.96 4.96 0 0 1 .075 1.052v4.509c0 .075-.075.15-.075.225zm3.607-9.318v.376a.57.57 0 0 1-.15.3 1.038 1.038 0 0 1-.3.225.953.953 0 0 1-.451.075c-.225 0-.376 0-.451-.075a1.037 1.037 0 0 1-.3-.225c-.075-.075-.075-.15-.15-.3v-.3a1.415 1.415 0 0 1 .15-.6 1.365 1.365 0 0 1 1.5 0 .876.876 0 0 1 .15.526zm-.075 9.093a.276.276 0 0 1-.075.225c0 .075-.075.075-.225.075h-1.051c-.225 0-.3-.075-.3-.3v-6.838c0-.225.075-.3.3-.3h1.052a.276.276 0 0 1 .225.075c0 .075.075.15.075.225v6.838zm7.364-1.954a2.509 2.509 0 0 1-.225 1.127 2.132 2.132 0 0 1-.676.751 3.775 3.775 0 0 1-.977.376 5.8 5.8 0 0 1-1.127.15 6.464 6.464 0 0 1-1.2-.075q-.676-.113-1.127-.225a1.037 1.037 0 0 1-.3-.225c-.075-.075-.075-.15 0-.3l.075-.526c0-.15.075-.225.15-.225h.3c.15 0 .376.075.526.075a1.655 1.655 0 0 1 .6.075 1.114 1.114 0 0 1 .526.075h.451a1.99 1.99 0 0 0 1.052-.225.733.733 0 0 0 .3-.676.953.953 0 0 0-.075-.451c-.075-.15-.075-.225-.225-.3s-.225-.15-.376-.15c-.15-.075-.376-.075-.6-.15-.376-.075-.751-.15-1.052-.225a4.6 4.6 0 0 1-.9-.376 2.287 2.287 0 0 1-.6-.6 1.88 1.88 0 0 1-.225-.977 2.078 2.078 0 0 1 .751-1.728 3.42 3.42 0 0 1 2.029-.6h.526a1.655 1.655 0 0 1 .6.075c.225 0 .376.075.6.075a1.086 1.086 0 0 1 .526.15c.225.075.376.225.3.451l-.15.526c0 .075-.075.15-.15.225h-.3c-.3-.075-.676-.075-1.052-.15-.376 0-.676-.075-.977-.075a1.55 1.55 0 0 0-.977.225.919.919 0 0 0-.225.676.61.61 0 0 0 .3.6 6.44 6.44 0 0 0 .977.225c.376.075.676.15 1.052.225a3.253 3.253 0 0 1 .9.376 1.774 1.774 0 0 1 .6.676 1.476 1.476 0 0 1 .376 1.127zm6.913 0a2.509 2.509 0 0 1-.225 1.127 2.132 2.132 0 0 1-.676.751 3.775 3.775 0 0 1-.977.376 5.8 5.8 0 0 1-1.127.15 6.464 6.464 0 0 1-1.2-.075q-.676-.113-1.127-.225a1.037 1.037 0 0 1-.3-.225c-.075-.075-.075-.15 0-.3l.075-.526c0-.15.075-.225.15-.225h.3c.15 0 .376.075.526.075a1.655 1.655 0 0 1 .6.075 1.114 1.114 0 0 1 .526.075h.451a1.99 1.99 0 0 0 1.052-.225.733.733 0 0 0 .3-.676.953.953 0 0 0-.075-.451c-.075-.15-.075-.225-.225-.3s-.225-.15-.376-.15c-.15-.075-.376-.075-.6-.15-.376-.075-.751-.15-1.052-.225a4.6 4.6 0 0 1-.9-.376 2.287 2.287 0 0 1-.6-.6 1.88 1.88 0 0 1-.225-.977 2.078 2.078 0 0 1 .751-1.728 3.42 3.42 0 0 1 2.029-.6h.526a1.655 1.655 0 0 1 .6.075c.225 0 .376.075.6.075a1.086 1.086 0 0 1 .526.15c.225.075.376.225.3.451l-.15.526c0 .075-.075.15-.15.225h-.3c-.3-.075-.676-.075-1.052-.15-.376 0-.676-.075-.977-.075a1.55 1.55 0 0 0-.977.225.919.919 0 0 0-.225.676.61.61 0 0 0 .3.6 6.44 6.44 0 0 0 .977.225c.376.075.676.15 1.052.225a3.253 3.253 0 0 1 .9.376 1.774 1.774 0 0 1 .6.676 1.476 1.476 0 0 1 .376 1.127zm3.382-7.139v.376a.57.57 0 0 1-.15.3 1.038 1.038 0 0 1-.3.225.953.953 0 0 1-.451.075c-.225 0-.376 0-.451-.075a1.038 1.038 0 0 1-.3-.225c-.075-.075-.075-.15-.15-.3v-.3a1.416 1.416 0 0 1 .15-.6 1.365 1.365 0 0 1 1.5 0 .876.876 0 0 1 .15.526zm-.075 9.093a.276.276 0 0 1-.075.225c0 .075-.075.075-.225.075h-1.052c-.225 0-.3-.075-.3-.3v-6.838c0-.225.075-.3.3-.3h1.052a.276.276 0 0 1 .225.075c0 .075.075.15.075.225v6.838zm8.266-3.532a8.168 8.168 0 0 1-.075 1.353 3.7 3.7 0 0 1-.451 1.277 3.023 3.023 0 0 1-.977.977 4.516 4.516 0 0 1-3.607 0 2.055 2.055 0 0 1-.977-.977 2.533 2.533 0 0 1-.376-1.277 8.169 8.169 0 0 1-.075-1.353 6.877 6.877 0 0 1 .075-1.2 3.32 3.32 0 0 1 .451-1.2 3.023 3.023 0 0 1 .977-.977 3.685 3.685 0 0 1 1.728-.376 3.565 3.565 0 0 1 1.728.3 2.284 2.284 0 0 1 .977.9 3.32 3.32 0 0 1 .451 1.2 8.278 8.278 0 0 1 .15 1.353zm-1.728.075a4.62 4.62 0 0 0-.075-1.052c-.075-.3-.15-.526-.225-.751a1.01 1.01 0 0 0-.526-.451 2.32 2.32 0 0 0-.827-.15 1.886 1.886 0 0 0-.751.15.877.877 0 0 0-.451.451 1.269 1.269 0 0 0-.225.751 7.4 7.4 0 0 0 0 2.1c.075.3.15.526.225.751a.877.877 0 0 0 .451.451 1.886 1.886 0 0 0 .751.15 2.32 2.32 0 0 0 .827-.15 1.01 1.01 0 0 0 .526-.451 1.269 1.269 0 0 0 .225-.751c0-.3.075-.6.075-1.052zm9.543 3.682a.276.276 0 0 1-.225.075H218.5c-.225 0-.3-.075-.3-.3v-4.208a1.99 1.99 0 0 0-.225-1.052c-.15-.3-.451-.376-.9-.376a1.467 1.467 0 0 0-.526.075c-.225.075-.376.15-.6.225a3.665 3.665 0 0 0-.526.225 1.643 1.643 0 0 0-.376.225v4.884c0 .225-.075.3-.3.3h-1.052c-.225 0-.3-.075-.3-.3v-6.836c0-.225.075-.3.3-.3h1.052c.225 0 .3.075.3.3v.451a3.267 3.267 0 0 1 .526-.3c.225-.075.376-.225.6-.3l.676-.225a2.08 2.08 0 0 1 .676-.075 2.635 2.635 0 0 1 1.2.225 1.774 1.774 0 0 1 .676.6 3.181 3.181 0 0 1 .3.9 5.321 5.321 0 0 1 .075 1.127v4.434c.15.075.075.15.075.225z" class="cls-4" data-name="Path 239" transform="translate(-143.2 -52.9)"/>
        </g>
        <path id="Path_240" d="M254.2 28h2.48v29.081h-2.48z" class="cls-2" data-name="Path 240" transform="translate(-63.651 -7.081)"/>
    </g>
</svg>
