<svg xmlns="http://www.w3.org/2000/svg" width="18" height="18" viewBox="0 0 18 18">
    <defs>
        <style>
            .cls-1{fill:#fff}
        </style>
    </defs>
    <path id="facebook" d="M9.614 18H.993A.993.993 0 0 1 0 17.006V.993A.993.993 0 0 1 .993 0h16.014A.993.993 0 0 1 18 .993v16.013a.994.994 0 0 1-.993.994H12.42v-6.971h2.34l.35-2.717h-2.69V6.578c0-.787.218-1.322 1.346-1.322H15.2v-2.43a19.23 19.23 0 0 0-2.1-.107 3.273 3.273 0 0 0-3.486 3.59v2H7.269v2.717h2.345V18z" class="cls-1"/>
</svg>
