<svg xmlns="http://www.w3.org/2000/svg" width="18" height="18" viewBox="0 0 18 18">
    <defs>
        <style>
            .cls-1{fill:#fff}
        </style>
    </defs>
    <path id="instagram" d="M5.289 17.946a6.653 6.653 0 0 1-2.184-.418A4.42 4.42 0 0 1 1.51 16.49 4.42 4.42 0 0 1 .473 14.9a6.653 6.653 0 0 1-.419-2.184C.01 11.749 0 11.429 0 9s.01-2.749.054-3.711a6.653 6.653 0 0 1 .419-2.184A4.42 4.42 0 0 1 1.51 1.51 4.42 4.42 0 0 1 3.105.473 6.653 6.653 0 0 1 5.289.054C6.251.01 6.571 0 9 0s2.749.01 3.711.054A6.653 6.653 0 0 1 14.9.473a4.42 4.42 0 0 1 1.59 1.037 4.42 4.42 0 0 1 1.038 1.595 6.653 6.653 0 0 1 .418 2.184C17.99 6.251 18 6.571 18 9s-.01 2.749-.054 3.711a6.653 6.653 0 0 1-.418 2.184 4.6 4.6 0 0 1-2.628 2.633 6.653 6.653 0 0 1-2.184.418C11.749 17.99 11.429 18 9 18s-2.749-.01-3.711-.054zm.074-16.272a5.013 5.013 0 0 0-1.671.31 2.808 2.808 0 0 0-1.035.673 2.808 2.808 0 0 0-.673 1.035 5.013 5.013 0 0 0-.31 1.671c-.043.944-.052 1.228-.052 3.637s.009 2.693.052 3.637a5.013 5.013 0 0 0 .31 1.671 2.808 2.808 0 0 0 .673 1.035 2.808 2.808 0 0 0 1.035.673 5.013 5.013 0 0 0 1.671.31c.943.043 1.227.052 3.637.052s2.694-.009 3.637-.052a5.013 5.013 0 0 0 1.671-.31 2.979 2.979 0 0 0 1.708-1.708 5.013 5.013 0 0 0 .31-1.671c.043-.944.052-1.228.052-3.637s-.009-2.693-.052-3.637a5.013 5.013 0 0 0-.31-1.671 2.808 2.808 0 0 0-.673-1.035 2.808 2.808 0 0 0-1.035-.673 5.013 5.013 0 0 0-1.671-.31c-.944-.043-1.228-.052-3.637-.052s-2.693.009-3.637.052zM4.379 9A4.622 4.622 0 1 1 9 13.622 4.627 4.627 0 0 1 4.379 9zM6 9a3 3 0 1 0 3-3 3 3 0 0 0-3 3zm6.724-4.8a1.08 1.08 0 1 1 1.08 1.08 1.08 1.08 0 0 1-1.08-1.08z" class="cls-1"/>
</svg>
