<svg xmlns="http://www.w3.org/2000/svg" width="110" height="45" viewBox="0 0 110 45">
    <defs>
        <style>
            .cls-1{fill:none}.cls-2{fill:#062540}
        </style>
    </defs>
    <g id="logo" transform="translate(-405.393 -427.614)">
        <path id="place" d="M0 0h110v45H0z" class="cls-1" transform="translate(405.393 427.614)"/>
        <g id="Group_289" data-name="Group 289" transform="translate(405.393 434.614)">
            <path id="Path_12873" d="M439.559 444.9a4.185 4.185 0 0 0-.7-.129q-.341-.031-.664-.032a3.791 3.791 0 0 0-1.8.387 3.678 3.678 0 0 0-1.167.936 3.562 3.562 0 0 0-.63 1.195 4.005 4.005 0 0 0-.194 1.13v8.266H429.1v-16.1h5.115v2.331h.065a5.249 5.249 0 0 1 1.748-2.022 4.506 4.506 0 0 1 2.622-.782 6.25 6.25 0 0 1 .632.032 2.481 2.481 0 0 1 .5.1z" class="cls-2" data-name="Path 12873" transform="translate(-400.126 -433.397)"/>
            <path id="Path_12874" d="M444.958 437.176a2.38 2.38 0 0 1-.211 1 2.536 2.536 0 0 1-1.412 1.343 2.764 2.764 0 0 1-1.03.2 2.6 2.6 0 0 1-1.892-.748 2.426 2.426 0 0 1-.763-1.793 2.472 2.472 0 0 1 .2-.975 2.308 2.308 0 0 1 .566-.8 3.028 3.028 0 0 1 .847-.55 2.552 2.552 0 0 1 1.046-.213 2.766 2.766 0 0 1 1.03.2 2.529 2.529 0 0 1 1.412 1.341 2.385 2.385 0 0 1 .207.995zm-5.309 20.686V441.74h5.309v16.122z" class="cls-2" data-name="Path 12874" transform="translate(-397.785 -434.609)"/>
            <path id="Path_12875" d="M459.792 457.866v-2.1h-.065a5.028 5.028 0 0 1-2.218 1.894 7.228 7.228 0 0 1-3.059.665 7.152 7.152 0 0 1-3.237-.712 7.43 7.43 0 0 1-2.411-1.894 8.311 8.311 0 0 1-1.505-2.736 10.155 10.155 0 0 1-.518-3.237 9.759 9.759 0 0 1 .534-3.22 8.408 8.408 0 0 1 1.521-2.7 7.106 7.106 0 0 1 5.552-2.525 6.138 6.138 0 0 1 3.011.68 6.671 6.671 0 0 1 1.909 1.488h.065v-8.846h5.309v23.253zm-.194-8.093a4.4 4.4 0 0 0-.275-1.522 4.339 4.339 0 0 0-.777-1.327 3.9 3.9 0 0 0-1.214-.939 3.58 3.58 0 0 0-1.619-.355 3.653 3.653 0 0 0-1.652.355 3.729 3.729 0 0 0-1.925 2.234 4.861 4.861 0 0 0-.243 1.521 5.013 5.013 0 0 0 .243 1.538 3.943 3.943 0 0 0 .728 1.344 3.678 3.678 0 0 0 1.2.938 3.635 3.635 0 0 0 1.652.357 3.562 3.562 0 0 0 1.619-.357 3.88 3.88 0 0 0 1.214-.938 4.332 4.332 0 0 0 .777-1.328 4.383 4.383 0 0 0 .274-1.521z" class="cls-2" data-name="Path 12875" transform="translate(-396.198 -434.614)"/>
            <path id="Path_12876" d="M482.116 455.133a11.319 11.319 0 0 1-.68 4.112 7.722 7.722 0 0 1-1.909 2.9 7.824 7.824 0 0 1-3 1.716 12.711 12.711 0 0 1-3.9.567 15.844 15.844 0 0 1-4.387-.647 12.048 12.048 0 0 1-3.9-1.878l2.66-3.792a7.787 7.787 0 0 0 2.574 1.538 8.208 8.208 0 0 0 2.768.5 4.435 4.435 0 0 0 3.447-1.23 4.684 4.684 0 0 0 1.117-3.27v-.971h-.1a5.241 5.241 0 0 1-2.007 1.554 6.807 6.807 0 0 1-2.882.583 7.659 7.659 0 0 1-3.269-.663 7.14 7.14 0 0 1-2.411-1.8 7.838 7.838 0 0 1-1.506-2.639 9.715 9.715 0 0 1-.518-3.188 9.864 9.864 0 0 1 .518-3.2 8.19 8.19 0 0 1 1.506-2.688 7.2 7.2 0 0 1 5.649-2.557 7.146 7.146 0 0 1 2.914.614 5.066 5.066 0 0 1 2.233 1.911h.065v-2.072h5.018zm-5.05-6.636a4.451 4.451 0 0 0-.276-1.554 3.942 3.942 0 0 0-.793-1.311 3.773 3.773 0 0 0-1.23-.891 3.867 3.867 0 0 0-1.619-.324 3.754 3.754 0 0 0-1.6.324 3.558 3.558 0 0 0-1.181.873 3.845 3.845 0 0 0-.744 1.295 4.782 4.782 0 0 0-.259 1.587 4.671 4.671 0 0 0 .259 1.554 4.017 4.017 0 0 0 .744 1.311 3.537 3.537 0 0 0 2.784 1.246 3.807 3.807 0 0 0 2.865-1.23 3.89 3.89 0 0 0 .777-1.295 4.543 4.543 0 0 0 .273-1.582z" class="cls-2" data-name="Path 12876" transform="translate(-392.325 -433.39)"/>
            <path id="Path_12877" d="M498.452 448.8v.647a5.5 5.5 0 0 1-.033.616h-11.686a2.818 2.818 0 0 0 .4 1.23 3.511 3.511 0 0 0 .875.955 4.3 4.3 0 0 0 2.574.858 4.468 4.468 0 0 0 2.137-.469 4.236 4.236 0 0 0 1.424-1.214l3.691 2.331a7.474 7.474 0 0 1-3 2.541 9.9 9.9 0 0 1-4.321.891 10.314 10.314 0 0 1-3.432-.567 8.3 8.3 0 0 1-2.833-1.652 7.611 7.611 0 0 1-1.909-2.671 8.918 8.918 0 0 1-.7-3.626 9.076 9.076 0 0 1 .679-3.577 8.1 8.1 0 0 1 1.846-2.719 8.238 8.238 0 0 1 2.751-1.732 9.429 9.429 0 0 1 3.431-.614 8.688 8.688 0 0 1 3.27.6 7.128 7.128 0 0 1 2.557 1.732 8 8 0 0 1 1.667 2.751 10.592 10.592 0 0 1 .612 3.689zm-4.888-2.039a3.185 3.185 0 0 0-.794-2.17 3 3 0 0 0-2.378-.906 4.039 4.039 0 0 0-1.424.243 3.711 3.711 0 0 0-1.134.663 3.293 3.293 0 0 0-.777.988 2.894 2.894 0 0 0-.324 1.181z" class="cls-2" data-name="Path 12877" transform="translate(-388.452 -433.408)"/>
            <path id="Path_12878" d="M429.8 451.1a6.262 6.262 0 0 1-.755 3.2 5.991 5.991 0 0 1-2 2.082 8.72 8.72 0 0 1-2.838 1.132 15.362 15.362 0 0 1-3.263.343h-9.248v-23.22h9.248a14.2 14.2 0 0 1 2.755.28 8.126 8.126 0 0 1 2.558.95 5.109 5.109 0 0 1 2.591 4.74 4.83 4.83 0 0 1-1.049 3.2 5.858 5.858 0 0 1-2.755 1.82v.066a6.34 6.34 0 0 1 1.853.606 5.389 5.389 0 0 1 1.509 1.131 5.3 5.3 0 0 1 1.016 1.608 5.391 5.391 0 0 1 .378 2.062zm-6.362-9.74a1.859 1.859 0 0 0-.9-1.721 5.271 5.271 0 0 0-2.673-.542H417.1v4.789h3.017a4.05 4.05 0 0 0 2.443-.64 2.192 2.192 0 0 0 .874-1.888zm.754 9.216a2.049 2.049 0 0 0-1.082-2 6.335 6.335 0 0 0-2.885-.557H417.1v5.313h3.149a8.428 8.428 0 0 0 1.361-.115 4.313 4.313 0 0 0 1.279-.41 2.323 2.323 0 0 0 1.295-2.229z" class="cls-2" data-name="Path 12878" transform="translate(-403.997 -434.609)"/>
            <path id="Path_12879" d="M444.958 437.176a2.38 2.38 0 0 1-.211 1 2.536 2.536 0 0 1-1.412 1.343 2.764 2.764 0 0 1-1.03.2 2.6 2.6 0 0 1-1.892-.748 2.426 2.426 0 0 1-.763-1.793 2.472 2.472 0 0 1 .2-.975 2.308 2.308 0 0 1 .566-.8 3.028 3.028 0 0 1 .847-.55 2.552 2.552 0 0 1 1.046-.213 2.766 2.766 0 0 1 1.03.2 2.529 2.529 0 0 1 1.412 1.341 2.385 2.385 0 0 1 .207.995zm-5.309 20.686V441.74h5.309v16.122z" class="cls-2" data-name="Path 12879" transform="translate(-439.649 -434.609)"/>
        </g>
    </g>
</svg>
