<svg xmlns="http://www.w3.org/2000/svg" width="75.877" height="31.041" viewBox="0 0 75.877 31.041">
    <defs>
        <style>
            .cls-1{fill:none}.cls-2{fill:#fff}
        </style>
    </defs>
    <g id="logo" transform="translate(-405.393 -427.614)">
        <path id="place" d="M0 0h75.877v31.04H0z" class="cls-1" transform="translate(405.393 427.614)"/>
        <g id="Group_289" data-name="Group 289" transform="translate(405.393 432.443)">
            <path id="Path_12873" d="M436.315 443.407a2.886 2.886 0 0 0-.479-.089q-.235-.021-.458-.022a2.615 2.615 0 0 0-1.239.267 2.538 2.538 0 0 0-.8.645 2.458 2.458 0 0 0-.435.824 2.763 2.763 0 0 0-.134.779v5.7h-3.67v-11.105h3.528v1.608h.045a3.62 3.62 0 0 1 1.206-1.395 3.108 3.108 0 0 1 1.808-.539 4.315 4.315 0 0 1 .436.022 1.711 1.711 0 0 1 .346.067z" class="cls-2" data-name="Path 12873" transform="translate(-409.115 -435.47)"/>
            <path id="Path_12874" d="M443.311 436.388a1.641 1.641 0 0 1-.146.691 1.749 1.749 0 0 1-.974.926 1.907 1.907 0 0 1-.71.136 1.79 1.79 0 0 1-1.305-.516 1.673 1.673 0 0 1-.527-1.237 1.7 1.7 0 0 1 .137-.672 1.592 1.592 0 0 1 .39-.555 2.09 2.09 0 0 1 .584-.379 1.76 1.76 0 0 1 .721-.147 1.908 1.908 0 0 1 .71.137 1.744 1.744 0 0 1 .974.925 1.646 1.646 0 0 1 .146.691zm-3.662 14.269v-11.121h3.662v11.121z" class="cls-2" data-name="Path 12874" transform="translate(-410.771 -434.617)"/>
            <path id="Path_12875" d="M455.755 450.653V449.2h-.045a3.469 3.469 0 0 1-1.53 1.306 4.986 4.986 0 0 1-2.11.458 4.933 4.933 0 0 1-2.233-.491 5.125 5.125 0 0 1-1.663-1.306 5.733 5.733 0 0 1-1.038-1.888 7.005 7.005 0 0 1-.357-2.233 6.731 6.731 0 0 1 .368-2.221 5.8 5.8 0 0 1 1.049-1.865 4.9 4.9 0 0 1 3.83-1.742 4.234 4.234 0 0 1 2.077.469 4.6 4.6 0 0 1 1.317 1.026h.045v-6.1h3.662v16.039zm-.134-5.583a3.032 3.032 0 0 0-.19-1.05 2.993 2.993 0 0 0-.536-.915 2.691 2.691 0 0 0-.838-.648 2.469 2.469 0 0 0-1.117-.245 2.52 2.52 0 0 0-1.139.245 2.572 2.572 0 0 0-1.327 1.543 3.354 3.354 0 0 0-.168 1.049 3.459 3.459 0 0 0 .168 1.061 2.719 2.719 0 0 0 .5.927 2.537 2.537 0 0 0 .826.647 2.508 2.508 0 0 0 1.139.246 2.458 2.458 0 0 0 1.117-.246 2.677 2.677 0 0 0 .838-.647 2.988 2.988 0 0 0 .536-.916 3.024 3.024 0 0 0 .191-1.05z" class="cls-2" data-name="Path 12875" transform="translate(-411.888 -434.614)"/>
            <path id="Path_12876" d="M476.563 450.463a7.808 7.808 0 0 1-.469 2.836 5.327 5.327 0 0 1-1.317 2 5.4 5.4 0 0 1-2.066 1.184 8.768 8.768 0 0 1-2.691.391 10.929 10.929 0 0 1-3.026-.447 8.31 8.31 0 0 1-2.691-1.3l1.831-2.613a5.372 5.372 0 0 0 1.775 1.061 5.662 5.662 0 0 0 1.909.346 3.06 3.06 0 0 0 2.378-.849 3.231 3.231 0 0 0 .77-2.256v-.67h-.066a3.615 3.615 0 0 1-1.384 1.072 4.7 4.7 0 0 1-1.988.4 5.283 5.283 0 0 1-2.255-.458 4.925 4.925 0 0 1-1.663-1.24 5.407 5.407 0 0 1-1.039-1.82 6.7 6.7 0 0 1-.357-2.2 6.8 6.8 0 0 1 .357-2.21 5.649 5.649 0 0 1 1.039-1.854 4.965 4.965 0 0 1 3.9-1.764 4.93 4.93 0 0 1 2.01.424 3.494 3.494 0 0 1 1.54 1.318h.045v-1.429h3.462zm-3.484-4.577a3.07 3.07 0 0 0-.19-1.072 2.718 2.718 0 0 0-.547-.9 2.6 2.6 0 0 0-.849-.614 2.667 2.667 0 0 0-1.117-.223 2.589 2.589 0 0 0-1.106.223 2.454 2.454 0 0 0-.815.6 2.651 2.651 0 0 0-.513.893 3.3 3.3 0 0 0-.179 1.095 3.222 3.222 0 0 0 .179 1.072 2.77 2.77 0 0 0 .513.9 2.44 2.44 0 0 0 1.92.86 2.626 2.626 0 0 0 1.976-.849 2.682 2.682 0 0 0 .536-.893 3.134 3.134 0 0 0 .192-1.092z" class="cls-2" data-name="Path 12876" transform="translate(-414.625 -435.466)"/>
            <path id="Path_12877" d="M493.24 446.078v.447a3.8 3.8 0 0 1-.023.425h-8.061a1.944 1.944 0 0 0 .279.849 2.422 2.422 0 0 0 .6.659 2.965 2.965 0 0 0 1.775.592 3.082 3.082 0 0 0 1.474-.324 2.922 2.922 0 0 0 .983-.838l2.546 1.608a5.156 5.156 0 0 1-2.066 1.753 6.832 6.832 0 0 1-2.98.614 7.114 7.114 0 0 1-2.367-.391 5.723 5.723 0 0 1-1.954-1.139 5.25 5.25 0 0 1-1.317-1.842 6.151 6.151 0 0 1-.48-2.5 6.26 6.26 0 0 1 .469-2.467 5.588 5.588 0 0 1 1.273-1.876 5.682 5.682 0 0 1 1.9-1.195 6.5 6.5 0 0 1 2.367-.424 5.993 5.993 0 0 1 2.256.413 4.917 4.917 0 0 1 1.764 1.195 5.52 5.52 0 0 1 1.15 1.9 7.306 7.306 0 0 1 .412 2.541zm-3.371-1.406a2.2 2.2 0 0 0-.548-1.5 2.066 2.066 0 0 0-1.641-.625 2.786 2.786 0 0 0-.983.168 2.559 2.559 0 0 0-.782.458 2.271 2.271 0 0 0-.536.682 2 2 0 0 0-.223.815z" class="cls-2" data-name="Path 12877" transform="translate(-417.363 -435.462)"/>
            <path id="Path_12878" d="M424.18 445.991a4.32 4.32 0 0 1-.521 2.206 4.133 4.133 0 0 1-1.379 1.436 6.014 6.014 0 0 1-1.957.781 10.594 10.594 0 0 1-2.251.237h-6.379v-16.017h6.379a9.79 9.79 0 0 1 1.9.193 5.605 5.605 0 0 1 1.764.656 3.524 3.524 0 0 1 1.787 3.27 3.332 3.332 0 0 1-.724 2.205 4.041 4.041 0 0 1-1.9 1.256v.045a4.373 4.373 0 0 1 1.278.418 3.717 3.717 0 0 1 1.041.78 3.657 3.657 0 0 1 .7 1.109 3.718 3.718 0 0 1 .262 1.425zm-4.389-6.719a1.282 1.282 0 0 0-.623-1.187 3.636 3.636 0 0 0-1.844-.374h-1.9v3.3h2.081a2.794 2.794 0 0 0 1.685-.442 1.512 1.512 0 0 0 .602-1.297zm.52 6.357a1.414 1.414 0 0 0-.747-1.38 4.37 4.37 0 0 0-1.99-.384h-2.15v3.665h2.176a5.808 5.808 0 0 0 .939-.079 2.975 2.975 0 0 0 .882-.283 1.6 1.6 0 0 0 .893-1.538z" class="cls-2" data-name="Path 12878" transform="translate(-406.384 -434.617)"/>
            <path id="Path_12879" d="M443.311 436.388a1.641 1.641 0 0 1-.146.691 1.749 1.749 0 0 1-.974.926 1.907 1.907 0 0 1-.71.136 1.79 1.79 0 0 1-1.305-.516 1.673 1.673 0 0 1-.527-1.237 1.7 1.7 0 0 1 .137-.672 1.592 1.592 0 0 1 .39-.555 2.09 2.09 0 0 1 .584-.379 1.76 1.76 0 0 1 .721-.147 1.908 1.908 0 0 1 .71.137 1.744 1.744 0 0 1 .974.925 1.646 1.646 0 0 1 .146.691zm-3.662 14.269v-11.121h3.662v11.121z" class="cls-2" data-name="Path 12879" transform="translate(-439.649 -434.617)"/>
        </g>
    </g>
</svg>
